STARTFONT 2.1
COMMENT
COMMENT Converted from TrueType font "Junicode-Regular.ttf" by "TTF2BDF 2.6".
COMMENT
FONT -FreeType-Junicode-Medium-R-Normal--19-140-100-100-P-98-ISO10646-1
SIZE 14 100 100
FONTBOUNDINGBOX 41 29 -12 -8
STARTPROPERTIES 25
FOUNDRY "FreeType"
FAMILY_NAME "Junicode"
WEIGHT_NAME "Medium"
SLANT "R"
SETWIDTH_NAME "Normal"
ADD_STYLE_NAME ""
PIXEL_SIZE 19
POINT_SIZE 140
RESOLUTION_X 100
RESOLUTION_Y 100
SPACING "P"
AVERAGE_WIDTH 98
CHARSET_REGISTRY "ISO10646"
CHARSET_ENCODING "1"
FONT_ASCENT 17
FONT_DESCENT 4
COPYRIGHT "Copyright (c) 1998-2007 by Peter S. Baker"
_TTF_FONTFILE "Junicode-Regular.ttf"
_TTF_PSNAME "Junicode-Regular"
_XFREE86_GLYPH_RANGES "0 12 32_126 160_544 546_563 567 584_585 592_685 688_750 768_846 848_855 857 859_879 894 900_906 908 910_929 931_974 976_977 981_983 987 1008 4347 5792_5872 7424_7531 7680_7835 7840_7929 7936_7957 7960_7965 7968_8005 8008_8013 8016_8023 8025 8027 8029 8031_8061 8064_8116 8118_8124 8126_8132 8134_8147 8150_8155 8157_8175 8178_8180 8182_8190 8192_8205 8208_8231 8239_8274 8279_8280 8284 8304_8305 8308_8334 8364 8413 8456 8468 8478_8479 8482_8483 8485_8486 8498 8526 8531_8580 8706 8710"
_XFREE86_GLYPH_RANGES "8719 8721_8722 8730 8734 8747 8756_8757 8759 8763 8776 8800 8804_8805 8919 9001_9002 9312_9471 9674 9756_9759 10086_10087 10102_10111 10214_10217 11005 11377_11379 11381_11382 11776 11788_11789 11804_11805 57354 57360 57381 57398 57402 57405 57407_57412 57446 57462_57463 57487 57497 57527 57532 57544 57553 57576_57580 57582 57584 57601 57622 57642 57653 57655 57667 57680_57684 57692 57698_57699 57704 57737_57738 57740 57750 57758 57766_57773 57776 57784 57810 57820 57864 57868 57883"

STARTCHAR 0000
ENCODING 0
SWIDTH 0 0
DWIDTH 0 0
BBX 1 1 0 0
BITMAP
00
ENDCHAR
STARTCHAR 000C
ENCODING 12
SWIDTH 308 0
DWIDTH 6 0
BBX 1 1 0 0
BITMAP
00
ENDCHAR
STARTCHAR 0020
ENCODING 32
SWIDTH 257 0
DWIDTH 5 0
BBX 1 1 0 0
BITMAP
00
ENDCHAR
STARTCHAR 0021
ENCODING 33
SWIDTH 205 0
DWIDTH 4 0
BBX 2 13 1 0
BITMAP
40
40
40
40
40
40
40
40
40
00
00
C0
C0
ENDCHAR
STARTCHAR 0022
ENCODING 34
SWIDTH 360 0
DWIDTH 7 0
BBX 5 4 1 10
BITMAP
D8
D8
D8
C8
ENDCHAR
STARTCHAR 0023
ENCODING 35
SWIDTH 462 0
DWIDTH 9 0
BBX 8 12 1 0
BITMAP
12
12
12
FF
24
24
24
48
FC
48
88
90
ENDCHAR
STARTCHAR 0024
ENCODING 36
SWIDTH 462 0
DWIDTH 9 0
BBX 7 16 1 -2
BITMAP
10
10
7C
D2
90
D0
70
3C
1E
16
92
92
D2
7C
10
10
ENDCHAR
STARTCHAR 0025
ENCODING 37
SWIDTH 822 0
DWIDTH 16 0
BBX 15 14 1 -1
BITMAP
7010
C820
8C40
8C40
8C80
8C98
4924
7262
0262
0462
0462
0826
103C
1000
ENDCHAR
STARTCHAR 0026
ENCODING 38
SWIDTH 771 0
DWIDTH 15 0
BBX 14 13 1 0
BITMAP
1800
2400
6600
6600
3400
1838
6C20
C240
8340
8180
81C0
C240
7C3C
ENDCHAR
STARTCHAR 0027
ENCODING 39
SWIDTH 154 0
DWIDTH 3 0
BBX 2 4 1 10
BITMAP
C0
C0
C0
C0
ENDCHAR
STARTCHAR 0028
ENCODING 40
SWIDTH 308 0
DWIDTH 6 0
BBX 5 17 1 -3
BITMAP
08
10
20
20
40
40
40
40
C0
40
40
40
40
60
20
10
08
ENDCHAR
STARTCHAR 0029
ENCODING 41
SWIDTH 308 0
DWIDTH 6 0
BBX 5 17 0 -3
BITMAP
C0
40
20
30
10
10
18
18
18
18
18
10
10
30
20
40
40
ENDCHAR
STARTCHAR 002A
ENCODING 42
SWIDTH 360 0
DWIDTH 7 0
BBX 5 7 1 6
BITMAP
20
20
78
30
E8
20
20
ENDCHAR
STARTCHAR 002B
ENCODING 43
SWIDTH 462 0
DWIDTH 9 0
BBX 7 7 1 0
BITMAP
10
10
10
FE
10
10
10
ENDCHAR
STARTCHAR 002C
ENCODING 44
SWIDTH 205 0
DWIDTH 4 0
BBX 3 5 1 -3
BITMAP
C0
E0
20
40
40
ENDCHAR
STARTCHAR 002D
ENCODING 45
SWIDTH 360 0
DWIDTH 7 0
BBX 6 1 1 5
BITMAP
FC
ENDCHAR
STARTCHAR 002E
ENCODING 46
SWIDTH 205 0
DWIDTH 4 0
BBX 2 2 1 0
BITMAP
C0
C0
ENDCHAR
STARTCHAR 002F
ENCODING 47
SWIDTH 308 0
DWIDTH 6 0
BBX 6 13 0 0
BITMAP
04
04
08
08
08
10
10
20
20
40
40
40
80
ENDCHAR
STARTCHAR 0030
ENCODING 48
SWIDTH 411 0
DWIDTH 8 0
BBX 7 13 1 -1
BITMAP
7C
44
C6
86
82
82
82
82
86
C6
44
68
10
ENDCHAR
STARTCHAR 0031
ENCODING 49
SWIDTH 411 0
DWIDTH 8 0
BBX 5 13 2 -1
BITMAP
20
E0
20
20
20
20
20
20
20
20
20
70
08
ENDCHAR
STARTCHAR 0032
ENCODING 50
SWIDTH 411 0
DWIDTH 8 0
BBX 8 12 0 0
BITMAP
3E
46
42
02
06
04
0C
08
10
20
41
FE
ENDCHAR
STARTCHAR 0033
ENCODING 51
SWIDTH 411 0
DWIDTH 8 0
BBX 7 12 1 0
BITMAP
78
8C
04
0C
18
78
0C
06
06
04
84
F8
ENDCHAR
STARTCHAR 0034
ENCODING 52
SWIDTH 411 0
DWIDTH 8 0
BBX 8 13 0 0
BITMAP
02
04
04
08
16
26
26
46
86
7F
06
06
06
ENDCHAR
STARTCHAR 0035
ENCODING 53
SWIDTH 411 0
DWIDTH 8 0
BBX 7 12 1 0
BITMAP
3C
40
40
40
78
0C
04
06
04
04
8C
F0
ENDCHAR
STARTCHAR 0036
ENCODING 54
SWIDTH 411 0
DWIDTH 8 0
BBX 7 13 1 0
BITMAP
04
08
10
20
40
40
FC
C6
86
82
C2
44
78
ENDCHAR
STARTCHAR 0037
ENCODING 55
SWIDTH 411 0
DWIDTH 8 0
BBX 7 12 1 0
BITMAP
FE
82
04
04
04
08
08
10
10
30
20
60
ENDCHAR
STARTCHAR 0038
ENCODING 56
SWIDTH 411 0
DWIDTH 8 0
BBX 7 13 1 -1
BITMAP
7C
84
84
C4
6C
38
7C
C6
86
82
C4
6C
10
ENDCHAR
STARTCHAR 0039
ENCODING 57
SWIDTH 411 0
DWIDTH 8 0
BBX 7 12 1 0
BITMAP
7C
C4
86
86
C6
C6
7C
04
08
18
30
40
ENDCHAR
STARTCHAR 003A
ENCODING 58
SWIDTH 257 0
DWIDTH 5 0
BBX 2 8 2 0
BITMAP
C0
C0
00
00
00
00
C0
C0
ENDCHAR
STARTCHAR 003B
ENCODING 59
SWIDTH 257 0
DWIDTH 5 0
BBX 3 11 2 -3
BITMAP
C0
C0
00
00
00
00
C0
E0
40
40
80
ENDCHAR
STARTCHAR 003C
ENCODING 60
SWIDTH 462 0
DWIDTH 9 0
BBX 7 7 1 0
BITMAP
06
18
E0
C0
30
0E
02
ENDCHAR
STARTCHAR 003D
ENCODING 61
SWIDTH 462 0
DWIDTH 9 0
BBX 7 3 1 3
BITMAP
7C
00
FE
ENDCHAR
STARTCHAR 003E
ENCODING 62
SWIDTH 462 0
DWIDTH 9 0
BBX 7 8 1 0
BITMAP
80
60
18
06
06
18
60
80
ENDCHAR
STARTCHAR 003F
ENCODING 63
SWIDTH 308 0
DWIDTH 6 0
BBX 4 13 2 0
BITMAP
C0
E0
10
10
10
30
E0
80
00
00
00
C0
C0
ENDCHAR
STARTCHAR 0040
ENCODING 64
SWIDTH 720 0
DWIDTH 14 0
BBX 13 14 1 -1
BITMAP
07C0
1820
2010
4088
C788
8888
8908
8910
8F20
C9C0
4000
6000
18C0
0700
ENDCHAR
STARTCHAR 0041
ENCODING 65
SWIDTH 617 0
DWIDTH 12 0
BBX 13 13 0 0
BITMAP
0200
0700
0700
0500
0980
0980
1080
1FC0
10C0
2040
2060
2060
F0F8
ENDCHAR
STARTCHAR 0042
ENCODING 66
SWIDTH 565 0
DWIDTH 11 0
BBX 9 13 1 0
BITMAP
FC00
6300
2100
2180
2100
2300
3E00
2180
2080
2080
2080
6180
FF00
ENDCHAR
STARTCHAR 0043
ENCODING 67
SWIDTH 617 0
DWIDTH 12 0
BBX 11 14 1 -1
BITMAP
0F80
3060
6020
4020
C000
C000
C000
C000
C000
C000
6020
3060
1DC0
0200
ENDCHAR
STARTCHAR 0044
ENCODING 68
SWIDTH 720 0
DWIDTH 14 0
BBX 12 13 1 0
BITMAP
FE00
61C0
2060
2030
2030
2030
2010
2030
2030
2030
2060
60C0
FF80
ENDCHAR
STARTCHAR 0045
ENCODING 69
SWIDTH 565 0
DWIDTH 11 0
BBX 10 13 1 0
BITMAP
FF80
6180
2080
2080
2000
2200
2200
3E00
2200
2000
2040
2040
FFC0
ENDCHAR
STARTCHAR 0046
ENCODING 70
SWIDTH 514 0
DWIDTH 10 0
BBX 9 13 1 0
BITMAP
FF80
6080
2080
2000
2200
2400
3C00
2400
2000
2000
2000
6000
F800
ENDCHAR
STARTCHAR 0047
ENCODING 71
SWIDTH 668 0
DWIDTH 13 0
BBX 12 14 1 -1
BITMAP
0F80
3060
6020
4020
C000
C000
C000
C000
C1F0
C040
6040
3040
1DE0
0200
ENDCHAR
STARTCHAR 0048
ENCODING 72
SWIDTH 771 0
DWIDTH 15 0
BBX 13 13 1 0
BITMAP
F8F8
6030
2030
2030
2030
2030
3FF0
2030
2030
2030
2030
6030
F8F8
ENDCHAR
STARTCHAR 0049
ENCODING 73
SWIDTH 308 0
DWIDTH 6 0
BBX 5 13 1 0
BITMAP
F8
60
20
20
20
20
20
20
20
20
20
60
F8
ENDCHAR
STARTCHAR 004A
ENCODING 74
SWIDTH 308 0
DWIDTH 6 0
BBX 7 17 -1 -4
BITMAP
3E
18
08
08
08
08
08
08
08
08
08
08
08
08
08
D0
E0
ENDCHAR
STARTCHAR 004B
ENCODING 75
SWIDTH 617 0
DWIDTH 12 0
BBX 12 13 1 0
BITMAP
F9C0
6180
2100
2200
2400
2800
3800
2C00
2600
2300
2300
6180
FBF0
ENDCHAR
STARTCHAR 004C
ENCODING 76
SWIDTH 617 0
DWIDTH 12 0
BBX 11 13 1 0
BITMAP
F800
6000
2000
2000
2000
2000
2000
2000
2000
2020
2020
2060
FFE0
ENDCHAR
STARTCHAR 004D
ENCODING 77
SWIDTH 874 0
DWIDTH 17 0
BBX 16 13 1 0
BITMAP
C007
600C
300C
501C
582C
482C
4C4C
4C4C
444C
468C
428C
430C
E11E
ENDCHAR
STARTCHAR 004E
ENCODING 78
SWIDTH 668 0
DWIDTH 13 0
BBX 12 13 1 0
BITMAP
C070
6020
7020
5820
4C20
4420
4620
4320
41A0
40E0
40E0
4060
F020
ENDCHAR
STARTCHAR 004F
ENCODING 79
SWIDTH 668 0
DWIDTH 13 0
BBX 12 13 1 0
BITMAP
0F00
3080
6040
4060
C020
C030
C030
C030
C030
C020
6060
3040
1F80
ENDCHAR
STARTCHAR 0050
ENCODING 80
SWIDTH 514 0
DWIDTH 10 0
BBX 9 13 1 0
BITMAP
FC00
6300
2180
2080
2080
2180
2300
3C00
2000
2000
2000
6000
F800
ENDCHAR
STARTCHAR 0051
ENCODING 81
SWIDTH 668 0
DWIDTH 13 0
BBX 14 16 1 -3
BITMAP
0F00
30C0
6040
4060
C020
C030
C030
C030
C030
C020
6060
3040
1D80
0780
00E0
001C
ENDCHAR
STARTCHAR 0052
ENCODING 82
SWIDTH 668 0
DWIDTH 13 0
BBX 11 13 1 0
BITMAP
FC00
6380
2080
20C0
20C0
2080
2300
3E00
2300
2300
2180
60C0
F860
ENDCHAR
STARTCHAR 0053
ENCODING 83
SWIDTH 462 0
DWIDTH 9 0
BBX 8 14 1 -1
BITMAP
3C
42
C2
C0
C0
70
3E
0E
03
83
83
C2
74
08
ENDCHAR
STARTCHAR 0054
ENCODING 84
SWIDTH 720 0
DWIDTH 14 0
BBX 14 13 0 0
BITMAP
FFFC
C104
8104
8100
0100
0100
0100
0100
0100
0100
0100
0100
07C0
ENDCHAR
STARTCHAR 0055
ENCODING 85
SWIDTH 668 0
DWIDTH 13 0
BBX 13 14 1 -1
BITMAP
F8F8
6020
6020
6020
6020
6020
6020
6020
6020
6020
2020
3040
1D80
0200
ENDCHAR
STARTCHAR 0056
ENCODING 86
SWIDTH 565 0
DWIDTH 11 0
BBX 12 13 0 0
BITMAP
F8F0
6060
2040
3040
1080
1080
1880
0900
0900
0E00
0600
0600
0400
ENDCHAR
STARTCHAR 0057
ENCODING 87
SWIDTH 925 0
DWIDTH 18 0
BBX 19 13 0 0
BITMAP
F7BDE0
631080
319080
31A100
10A100
18C200
084200
0C6200
04A400
06B400
073800
031800
021000
ENDCHAR
STARTCHAR 0058
ENCODING 88
SWIDTH 617 0
DWIDTH 12 0
BBX 13 13 0 0
BITMAP
F8F0
3040
1040
1880
0D00
0600
0600
0700
0900
1180
20C0
2040
F0F8
ENDCHAR
STARTCHAR 0059
ENCODING 89
SWIDTH 565 0
DWIDTH 11 0
BBX 12 13 0 0
BITMAP
F0F0
6040
3040
3080
1900
0900
0E00
0600
0400
0400
0400
0400
1F00
ENDCHAR
STARTCHAR 005A
ENCODING 90
SWIDTH 565 0
DWIDTH 11 0
BBX 11 13 1 0
BITMAP
FFC0
C0C0
8180
8300
0200
0600
0C00
0800
1800
3000
6020
4040
FFC0
ENDCHAR
STARTCHAR 005B
ENCODING 91
SWIDTH 308 0
DWIDTH 6 0
BBX 3 18 3 -4
BITMAP
E0
80
80
80
80
80
80
80
80
80
80
80
80
80
80
80
80
60
ENDCHAR
STARTCHAR 005C
ENCODING 92
SWIDTH 308 0
DWIDTH 6 0
BBX 6 14 0 0
BITMAP
80
80
40
40
20
20
30
10
10
08
08
04
04
04
ENDCHAR
STARTCHAR 005D
ENCODING 93
SWIDTH 308 0
DWIDTH 6 0
BBX 3 18 1 -4
BITMAP
E0
20
20
20
20
20
20
20
20
20
20
20
20
20
20
20
20
C0
ENDCHAR
STARTCHAR 005E
ENCODING 94
SWIDTH 514 0
DWIDTH 10 0
BBX 8 8 1 5
BITMAP
18
18
1C
24
26
42
42
C1
ENDCHAR
STARTCHAR 005F
ENCODING 95
SWIDTH 462 0
DWIDTH 9 0
BBX 10 1 0 -2
BITMAP
FFC0
ENDCHAR
STARTCHAR 0060
ENCODING 96
SWIDTH 257 0
DWIDTH 5 0
BBX 2 3 2 10
BITMAP
80
40
40
ENDCHAR
STARTCHAR 0061
ENCODING 97
SWIDTH 360 0
DWIDTH 7 0
BBX 6 8 1 0
BITMAP
78
98
98
18
78
98
98
EC
ENDCHAR
STARTCHAR 0062
ENCODING 98
SWIDTH 462 0
DWIDTH 9 0
BBX 9 15 0 -1
BITMAP
2000
E000
6000
6000
6000
6000
7E00
6300
6100
6180
6180
6100
6100
7200
0C00
ENDCHAR
STARTCHAR 0063
ENCODING 99
SWIDTH 360 0
DWIDTH 7 0
BBX 6 8 1 0
BITMAP
3C
44
C0
80
80
C0
C0
7C
ENDCHAR
STARTCHAR 0064
ENCODING 100
SWIDTH 462 0
DWIDTH 9 0
BBX 8 14 1 0
BITMAP
02
0E
06
06
06
06
3E
46
86
86
86
86
C6
7F
ENDCHAR
STARTCHAR 0065
ENCODING 101
SWIDTH 360 0
DWIDTH 7 0
BBX 6 8 1 0
BITMAP
38
44
FC
80
80
C0
C0
78
ENDCHAR
STARTCHAR 0066
ENCODING 102
SWIDTH 257 0
DWIDTH 5 0
BBX 7 14 1 0
BITMAP
0E
36
40
40
40
40
F8
40
40
40
40
40
40
E0
ENDCHAR
STARTCHAR 0067
ENCODING 103
SWIDTH 411 0
DWIDTH 8 0
BBX 8 13 1 -5
BITMAP
78
C6
84
84
CC
70
80
FC
7F
83
81
82
FC
ENDCHAR
STARTCHAR 0068
ENCODING 104
SWIDTH 514 0
DWIDTH 10 0
BBX 8 13 1 0
BITMAP
C0
40
40
40
40
5E
62
43
43
43
43
43
E3
ENDCHAR
STARTCHAR 0069
ENCODING 105
SWIDTH 205 0
DWIDTH 4 0
BBX 3 12 1 0
BITMAP
40
C0
00
00
40
C0
40
40
40
40
40
E0
ENDCHAR
STARTCHAR 006A
ENCODING 106
SWIDTH 205 0
DWIDTH 4 0
BBX 4 17 -1 -5
BITMAP
10
30
00
00
10
30
10
10
10
10
10
10
10
10
10
10
E0
ENDCHAR
STARTCHAR 006B
ENCODING 107
SWIDTH 462 0
DWIDTH 9 0
BBX 8 13 1 0
BITMAP
C0
40
40
40
40
4F
44
48
70
58
4C
46
E7
ENDCHAR
STARTCHAR 006C
ENCODING 108
SWIDTH 205 0
DWIDTH 4 0
BBX 3 13 1 0
BITMAP
C0
40
40
40
40
40
40
40
40
40
40
40
E0
ENDCHAR
STARTCHAR 006D
ENCODING 109
SWIDTH 720 0
DWIDTH 14 0
BBX 13 8 1 0
BITMAP
5CE0
E310
4210
4210
4210
4210
4210
E738
ENDCHAR
STARTCHAR 006E
ENCODING 110
SWIDTH 462 0
DWIDTH 9 0
BBX 8 8 1 0
BITMAP
5C
E2
42
42
42
42
42
E7
ENDCHAR
STARTCHAR 006F
ENCODING 111
SWIDTH 462 0
DWIDTH 9 0
BBX 8 9 1 -1
BITMAP
3C
46
C2
83
83
82
46
2C
10
ENDCHAR
STARTCHAR 0070
ENCODING 112
SWIDTH 462 0
DWIDTH 9 0
BBX 8 14 1 -6
BITMAP
5C
E2
43
43
43
43
42
64
58
40
40
40
C0
20
ENDCHAR
STARTCHAR 0071
ENCODING 113
SWIDTH 462 0
DWIDTH 9 0
BBX 7 13 1 -5
BITMAP
7E
C6
86
86
86
86
C6
6E
16
06
06
06
06
ENDCHAR
STARTCHAR 0072
ENCODING 114
SWIDTH 308 0
DWIDTH 6 0
BBX 5 8 1 0
BITMAP
58
E8
40
40
40
40
40
E0
ENDCHAR
STARTCHAR 0073
ENCODING 115
SWIDTH 308 0
DWIDTH 6 0
BBX 5 9 1 -1
BITMAP
78
88
80
E0
38
08
88
D0
20
ENDCHAR
STARTCHAR 0074
ENCODING 116
SWIDTH 308 0
DWIDTH 6 0
BBX 5 9 1 0
BITMAP
40
F8
40
40
40
40
40
40
78
ENDCHAR
STARTCHAR 0075
ENCODING 117
SWIDTH 462 0
DWIDTH 9 0
BBX 9 8 0 0
BITMAP
E700
2100
2100
2100
2100
2100
2300
1D80
ENDCHAR
STARTCHAR 0076
ENCODING 118
SWIDTH 360 0
DWIDTH 7 0
BBX 8 8 0 0
BITMAP
E7
62
24
24
34
18
18
18
ENDCHAR
STARTCHAR 0077
ENCODING 119
SWIDTH 617 0
DWIDTH 12 0
BBX 13 8 0 0
BITMAP
E738
6320
2320
2520
35C0
19C0
18C0
1880
ENDCHAR
STARTCHAR 0078
ENCODING 120
SWIDTH 411 0
DWIDTH 8 0
BBX 7 8 1 0
BITMAP
EE
64
28
30
18
68
4C
CE
ENDCHAR
STARTCHAR 0079
ENCODING 121
SWIDTH 360 0
DWIDTH 7 0
BBX 8 13 0 -5
BITMAP
E7
42
64
24
24
38
18
10
10
10
20
20
C0
ENDCHAR
STARTCHAR 007A
ENCODING 122
SWIDTH 308 0
DWIDTH 6 0
BBX 7 8 0 0
BITMAP
7C
88
18
10
30
22
64
7C
ENDCHAR
STARTCHAR 007B
ENCODING 123
SWIDTH 360 0
DWIDTH 7 0
BBX 6 17 1 -3
BITMAP
1C
20
20
20
20
20
20
60
C0
20
20
20
20
20
20
20
18
ENDCHAR
STARTCHAR 007C
ENCODING 124
SWIDTH 205 0
DWIDTH 4 0
BBX 1 16 2 -3
BITMAP
80
80
80
80
80
80
80
80
80
80
80
80
80
80
80
80
ENDCHAR
STARTCHAR 007D
ENCODING 125
SWIDTH 360 0
DWIDTH 7 0
BBX 6 17 1 -3
BITMAP
E0
20
30
30
30
30
30
10
1C
10
30
30
30
30
30
30
E0
ENDCHAR
STARTCHAR 007E
ENCODING 126
SWIDTH 308 0
DWIDTH 6 0
BBX 6 2 0 3
BITMAP
74
98
ENDCHAR
STARTCHAR 00A0
ENCODING 160
SWIDTH 257 0
DWIDTH 5 0
BBX 1 1 0 0
BITMAP
00
ENDCHAR
STARTCHAR 00A1
ENCODING 161
SWIDTH 205 0
DWIDTH 4 0
BBX 2 13 1 -5
BITMAP
C0
C0
00
00
40
40
40
40
40
40
40
C0
C0
ENDCHAR
STARTCHAR 00A2
ENCODING 162
SWIDTH 360 0
DWIDTH 7 0
BBX 6 12 1 0
BITMAP
08
08
74
50
D0
90
90
D0
E0
38
20
20
ENDCHAR
STARTCHAR 00A3
ENCODING 163
SWIDTH 514 0
DWIDTH 10 0
BBX 10 14 0 -1
BITMAP
0700
0880
1000
1000
1800
1800
7F00
0800
0800
0800
0800
F840
9780
6000
ENDCHAR
STARTCHAR 00A4
ENCODING 164
SWIDTH 462 0
DWIDTH 9 0
BBX 8 8 1 2
BITMAP
FF
C2
81
81
81
82
C2
BC
ENDCHAR
STARTCHAR 00A5
ENCODING 165
SWIDTH 617 0
DWIDTH 12 0
BBX 13 14 0 0
BITMAP
F878
6030
3020
3040
1880
0880
3DC0
0600
0600
3FC0
0600
0600
0600
0F80
ENDCHAR
STARTCHAR 00A6
ENCODING 166
SWIDTH 205 0
DWIDTH 4 0
BBX 1 12 2 1
BITMAP
80
80
80
80
80
00
00
80
80
80
80
80
ENDCHAR
STARTCHAR 00A7
ENCODING 167
SWIDTH 411 0
DWIDTH 8 0
BBX 7 17 1 -4
BITMAP
38
44
40
40
60
78
8C
86
82
E2
74
1C
0C
06
06
C4
38
ENDCHAR
STARTCHAR 00A8
ENCODING 168
SWIDTH 360 0
DWIDTH 7 0
BBX 6 2 1 10
BITMAP
C8
CC
ENDCHAR
STARTCHAR 00A9
ENCODING 169
SWIDTH 668 0
DWIDTH 13 0
BBX 13 14 0 0
BITMAP
0700
18C0
2030
4210
8D08
8808
9008
9008
8808
8888
4710
2010
1060
0F80
ENDCHAR
STARTCHAR 00AA
ENCODING 170
SWIDTH 205 0
DWIDTH 4 0
BBX 5 6 0 4
BITMAP
60
90
30
D0
B0
48
ENDCHAR
STARTCHAR 00AB
ENCODING 171
SWIDTH 360 0
DWIDTH 7 0
BBX 5 5 1 1
BITMAP
48
90
90
48
20
ENDCHAR
STARTCHAR 00AC
ENCODING 172
SWIDTH 617 0
DWIDTH 12 0
BBX 13 6 0 0
BITMAP
FFF8
0008
0008
0008
0008
0008
ENDCHAR
STARTCHAR 00AD
ENCODING 173
SWIDTH 360 0
DWIDTH 7 0
BBX 6 1 1 5
BITMAP
FC
ENDCHAR
STARTCHAR 00AE
ENCODING 174
SWIDTH 720 0
DWIDTH 14 0
BBX 13 14 0 0
BITMAP
0700
18C0
2030
4010
8788
8488
8488
8708
8488
8488
4070
2010
1060
0F80
ENDCHAR
STARTCHAR 00AF
ENCODING 175
SWIDTH 257 0
DWIDTH 5 0
BBX 5 1 0 10
BITMAP
F8
ENDCHAR
STARTCHAR 00B0
ENCODING 176
SWIDTH 308 0
DWIDTH 6 0
BBX 5 5 1 7
BITMAP
70
88
88
98
60
ENDCHAR
STARTCHAR 00B1
ENCODING 177
SWIDTH 462 0
DWIDTH 9 0
BBX 7 10 1 0
BITMAP
10
10
10
10
7C
10
10
10
00
FE
ENDCHAR
STARTCHAR 00B2
ENCODING 178
SWIDTH 257 0
DWIDTH 5 0
BBX 4 7 1 5
BITMAP
F0
10
10
20
40
80
F0
ENDCHAR
STARTCHAR 00B3
ENCODING 179
SWIDTH 257 0
DWIDTH 5 0
BBX 4 8 1 4
BITMAP
E0
20
20
20
10
10
A0
40
ENDCHAR
STARTCHAR 00B4
ENCODING 180
SWIDTH 257 0
DWIDTH 5 0
BBX 2 3 2 10
BITMAP
C0
80
80
ENDCHAR
STARTCHAR 00B5
ENCODING 181
SWIDTH 514 0
DWIDTH 10 0
BBX 10 12 0 -4
BITMAP
E380
2180
2180
2180
2180
2180
2180
3FC0
6000
6000
6000
6000
ENDCHAR
STARTCHAR 00B6
ENCODING 182
SWIDTH 462 0
DWIDTH 9 0
BBX 9 14 0 0
BITMAP
0880
7F00
F900
F900
F900
F900
7900
0900
0900
0900
0900
0900
0900
0F00
ENDCHAR
STARTCHAR 00B7
ENCODING 183
SWIDTH 308 0
DWIDTH 6 0
BBX 2 2 2 5
BITMAP
C0
C0
ENDCHAR
STARTCHAR 00B8
ENCODING 184
SWIDTH 308 0
DWIDTH 6 0
BBX 3 5 2 -5
BITMAP
40
60
20
A0
40
ENDCHAR
STARTCHAR 00B9
ENCODING 185
SWIDTH 257 0
DWIDTH 5 0
BBX 2 8 2 4
BITMAP
80
80
80
80
80
80
80
40
ENDCHAR
STARTCHAR 00BA
ENCODING 186
SWIDTH 257 0
DWIDTH 5 0
BBX 5 6 0 4
BITMAP
30
48
88
88
48
30
ENDCHAR
STARTCHAR 00BB
ENCODING 187
SWIDTH 360 0
DWIDTH 7 0
BBX 6 7 1 0
BITMAP
90
58
6C
68
58
90
20
ENDCHAR
STARTCHAR 00BC
ENCODING 188
SWIDTH 720 0
DWIDTH 14 0
BBX 12 13 2 0
BITMAP
0080
8080
8100
8200
8220
8440
8840
C8A0
1120
1220
23F0
4020
4020
ENDCHAR
STARTCHAR 00BD
ENCODING 189
SWIDTH 720 0
DWIDTH 14 0
BBX 11 13 2 0
BITMAP
00C0
8080
8100
8200
8200
84C0
8820
C820
1020
2040
2080
4100
03E0
ENDCHAR
STARTCHAR 00BE
ENCODING 190
SWIDTH 720 0
DWIDTH 14 0
BBX 13 13 1 0
BITMAP
6060
2040
2080
4100
3110
1220
1420
A450
4890
1110
11F8
2010
2010
ENDCHAR
STARTCHAR 00BF
ENCODING 191
SWIDTH 308 0
DWIDTH 6 0
BBX 4 13 1 -5
BITMAP
30
30
00
00
10
10
30
60
C0
80
80
70
30
ENDCHAR
STARTCHAR 00C0
ENCODING 192
SWIDTH 617 0
DWIDTH 12 0
BBX 13 18 0 0
BITMAP
1000
1800
0600
0100
0000
0200
0700
0700
0500
0980
0980
1080
1FC0
10C0
2040
2060
2060
F0F8
ENDCHAR
STARTCHAR 00C1
ENCODING 193
SWIDTH 617 0
DWIDTH 12 0
BBX 13 18 0 0
BITMAP
0040
00C0
0300
0400
0000
0200
0700
0700
0500
0980
0980
1080
1FC0
10C0
2040
2060
2060
F0F8
ENDCHAR
STARTCHAR 00C2
ENCODING 194
SWIDTH 617 0
DWIDTH 12 0
BBX 13 17 0 0
BITMAP
0200
0500
0880
0000
0200
0700
0700
0500
0980
0980
1080
1FC0
10C0
2040
2060
2060
F0F8
ENDCHAR
STARTCHAR 00C3
ENCODING 195
SWIDTH 617 0
DWIDTH 12 0
BBX 13 16 0 0
BITMAP
0FC0
0100
0000
0200
0700
0700
0500
0980
0980
1080
1FC0
10C0
2040
2060
2060
F0F8
ENDCHAR
STARTCHAR 00C4
ENCODING 196
SWIDTH 617 0
DWIDTH 12 0
BBX 13 16 0 0
BITMAP
0CC0
0800
0000
0200
0700
0700
0500
0980
0980
1080
1FC0
10C0
2040
2060
2060
F0F8
ENDCHAR
STARTCHAR 00C5
ENCODING 197
SWIDTH 617 0
DWIDTH 12 0
BBX 13 16 0 0
BITMAP
0300
0500
0500
0200
0300
0700
0500
0980
0980
1080
1FC0
10C0
2040
2060
2060
F0F8
ENDCHAR
STARTCHAR 00C6
ENCODING 198
SWIDTH 822 0
DWIDTH 16 0
BBX 16 13 -1 0
BITMAP
03FF
01C3
02C1
02C1
04C0
04C4
08C8
0FF8
10C4
10C0
20C0
20C1
F3FF
ENDCHAR
STARTCHAR 00C7
ENCODING 199
SWIDTH 617 0
DWIDTH 12 0
BBX 11 18 1 -5
BITMAP
0F80
3060
6020
4020
C000
C000
C000
C000
C000
C000
6020
3060
1DC0
0600
0600
0200
0A00
0400
ENDCHAR
STARTCHAR 00C8
ENCODING 200
SWIDTH 565 0
DWIDTH 11 0
BBX 10 18 1 0
BITMAP
4000
6000
1800
0400
0000
FF80
6180
2080
2080
2000
2200
2200
3E00
2200
2000
2040
2040
FFC0
ENDCHAR
STARTCHAR 00C9
ENCODING 201
SWIDTH 565 0
DWIDTH 11 0
BBX 10 18 1 0
BITMAP
0100
0300
0C00
1000
0000
FF80
6180
2080
2080
2000
2200
2200
3E00
2200
2000
2040
2040
FFC0
ENDCHAR
STARTCHAR 00CA
ENCODING 202
SWIDTH 565 0
DWIDTH 11 0
BBX 10 17 1 0
BITMAP
0800
1400
2200
0000
FF80
6180
2080
2080
2000
2200
2200
3E00
2200
2000
2040
2040
FFC0
ENDCHAR
STARTCHAR 00CB
ENCODING 203
SWIDTH 565 0
DWIDTH 11 0
BBX 10 16 1 0
BITMAP
3300
2000
0000
FF80
6180
2080
2080
2000
2200
2200
3E00
2200
2000
2040
2040
FFC0
ENDCHAR
STARTCHAR 00CC
ENCODING 204
SWIDTH 308 0
DWIDTH 6 0
BBX 6 18 0 0
BITMAP
80
C0
30
08
00
7C
30
10
10
10
10
10
10
10
10
10
30
7C
ENDCHAR
STARTCHAR 00CD
ENCODING 205
SWIDTH 308 0
DWIDTH 6 0
BBX 6 18 1 0
BITMAP
04
0C
30
40
00
F8
60
20
20
20
20
20
20
20
20
20
60
F8
ENDCHAR
STARTCHAR 00CE
ENCODING 206
SWIDTH 308 0
DWIDTH 6 0
BBX 5 17 1 0
BITMAP
20
50
88
00
F8
60
20
20
20
20
20
20
20
20
20
60
F8
ENDCHAR
STARTCHAR 00CF
ENCODING 207
SWIDTH 308 0
DWIDTH 6 0
BBX 6 16 0 0
BITMAP
CC
80
00
7C
30
10
10
10
10
10
10
10
10
10
30
7C
ENDCHAR
STARTCHAR 00D0
ENCODING 208
SWIDTH 720 0
DWIDTH 14 0
BBX 12 13 1 0
BITMAP
FE00
61C0
2060
2030
2030
2030
F810
2030
2030
2030
2060
60C0
FF80
ENDCHAR
STARTCHAR 00D1
ENCODING 209
SWIDTH 668 0
DWIDTH 13 0
BBX 12 16 1 0
BITMAP
1F80
0200
0000
C070
6020
7020
5820
4C20
4420
4620
4320
41A0
40E0
40E0
4060
F020
ENDCHAR
STARTCHAR 00D2
ENCODING 210
SWIDTH 668 0
DWIDTH 13 0
BBX 12 18 1 0
BITMAP
2000
3000
0C00
0200
0000
0F00
3080
6040
4060
C020
C030
C030
C030
C030
C020
6060
3040
1F80
ENDCHAR
STARTCHAR 00D3
ENCODING 211
SWIDTH 668 0
DWIDTH 13 0
BBX 12 18 1 0
BITMAP
0040
00C0
0300
0400
0000
0F00
3080
6040
4060
C020
C030
C030
C030
C030
C020
6060
3040
1F80
ENDCHAR
STARTCHAR 00D4
ENCODING 212
SWIDTH 668 0
DWIDTH 13 0
BBX 12 17 1 0
BITMAP
0400
0A00
1100
0000
0F00
3080
6040
4060
C020
C030
C030
C030
C030
C020
6060
3040
1F80
ENDCHAR
STARTCHAR 00D5
ENCODING 213
SWIDTH 668 0
DWIDTH 13 0
BBX 12 16 1 0
BITMAP
1F80
0200
0000
0F00
3080
6040
4060
C020
C030
C030
C030
C030
C020
6060
3040
1F80
ENDCHAR
STARTCHAR 00D6
ENCODING 214
SWIDTH 668 0
DWIDTH 13 0
BBX 12 16 1 0
BITMAP
1980
1000
0000
0F00
3080
6040
4060
C020
C030
C030
C030
C030
C020
6060
3040
1F80
ENDCHAR
STARTCHAR 00D7
ENCODING 215
SWIDTH 360 0
DWIDTH 7 0
BBX 6 6 1 0
BITMAP
8C
58
30
70
C8
80
ENDCHAR
STARTCHAR 00D8
ENCODING 216
SWIDTH 668 0
DWIDTH 13 0
BBX 12 13 1 0
BITMAP
0F00
30A0
6040
40E0
C120
C130
C230
C430
C830
D020
6060
3040
5F80
ENDCHAR
STARTCHAR 00D9
ENCODING 217
SWIDTH 668 0
DWIDTH 13 0
BBX 13 19 1 -1
BITMAP
2000
3000
0C00
0200
0000
F8F8
6020
6020
6020
6020
6020
6020
6020
6020
6020
2020
3040
1D80
0200
ENDCHAR
STARTCHAR 00DA
ENCODING 218
SWIDTH 668 0
DWIDTH 13 0
BBX 13 19 1 -1
BITMAP
0040
00C0
0300
0400
0000
F8F8
6020
6020
6020
6020
6020
6020
6020
6020
6020
2020
3040
1D80
0200
ENDCHAR
STARTCHAR 00DB
ENCODING 219
SWIDTH 668 0
DWIDTH 13 0
BBX 13 18 1 -1
BITMAP
0200
0500
0880
0000
F8F8
6020
6020
6020
6020
6020
6020
6020
6020
6020
2020
3040
1D80
0200
ENDCHAR
STARTCHAR 00DC
ENCODING 220
SWIDTH 668 0
DWIDTH 13 0
BBX 13 17 1 -1
BITMAP
1980
1000
0000
F8F8
6020
6020
6020
6020
6020
6020
6020
6020
6020
2020
3040
1D80
0200
ENDCHAR
STARTCHAR 00DD
ENCODING 221
SWIDTH 565 0
DWIDTH 11 0
BBX 12 18 0 0
BITMAP
0040
00C0
0300
0400
0000
F0F0
6040
3040
3080
1900
0900
0E00
0600
0400
0400
0400
0400
1F00
ENDCHAR
STARTCHAR 00DE
ENCODING 222
SWIDTH 514 0
DWIDTH 10 0
BBX 9 18 1 -5
BITMAP
6000
EE00
7300
6100
6180
6180
6180
6180
6100
6300
6200
6400
7800
6000
6000
6000
C000
8000
ENDCHAR
STARTCHAR 00DF
ENCODING 223
SWIDTH 514 0
DWIDTH 10 0
BBX 9 15 1 -1
BITMAP
0E00
3300
2100
4100
4200
4400
4800
4800
4C00
4700
4100
4180
4900
E900
0600
ENDCHAR
STARTCHAR 00E0
ENCODING 224
SWIDTH 360 0
DWIDTH 7 0
BBX 6 13 1 0
BITMAP
40
20
20
00
00
78
98
98
18
78
98
98
EC
ENDCHAR
STARTCHAR 00E1
ENCODING 225
SWIDTH 360 0
DWIDTH 7 0
BBX 6 13 1 0
BITMAP
18
10
10
00
00
78
98
98
18
78
98
98
EC
ENDCHAR
STARTCHAR 00E2
ENCODING 226
SWIDTH 360 0
DWIDTH 7 0
BBX 6 13 1 0
BITMAP
20
50
90
80
00
78
98
98
18
78
98
98
EC
ENDCHAR
STARTCHAR 00E3
ENCODING 227
SWIDTH 360 0
DWIDTH 7 0
BBX 6 11 1 0
BITMAP
F8
00
00
78
98
98
18
78
98
98
EC
ENDCHAR
STARTCHAR 00E4
ENCODING 228
SWIDTH 360 0
DWIDTH 7 0
BBX 6 12 1 0
BITMAP
C8
CC
00
00
78
98
98
18
78
98
98
EC
ENDCHAR
STARTCHAR 00E5
ENCODING 229
SWIDTH 360 0
DWIDTH 7 0
BBX 6 13 1 0
BITMAP
20
50
90
70
00
78
98
98
18
78
98
98
EC
ENDCHAR
STARTCHAR 00E6
ENCODING 230
SWIDTH 514 0
DWIDTH 10 0
BBX 10 8 0 0
BITMAP
3BC0
4C40
CF80
0C00
3C00
4C00
4E00
77C0
ENDCHAR
STARTCHAR 00E7
ENCODING 231
SWIDTH 360 0
DWIDTH 7 0
BBX 6 13 1 -5
BITMAP
3C
44
C0
80
80
C0
C0
7C
20
30
10
50
20
ENDCHAR
STARTCHAR 00E8
ENCODING 232
SWIDTH 360 0
DWIDTH 7 0
BBX 6 13 1 0
BITMAP
20
10
10
00
00
38
44
FC
80
80
C0
C0
78
ENDCHAR
STARTCHAR 00E9
ENCODING 233
SWIDTH 360 0
DWIDTH 7 0
BBX 6 13 1 0
BITMAP
18
10
10
00
00
38
44
FC
80
80
C0
C0
78
ENDCHAR
STARTCHAR 00EA
ENCODING 234
SWIDTH 360 0
DWIDTH 7 0
BBX 6 13 1 0
BITMAP
10
28
48
40
00
38
44
FC
80
80
C0
C0
78
ENDCHAR
STARTCHAR 00EB
ENCODING 235
SWIDTH 360 0
DWIDTH 7 0
BBX 6 12 1 0
BITMAP
C8
CC
00
00
38
44
FC
80
80
C0
C0
78
ENDCHAR
STARTCHAR 00EC
ENCODING 236
SWIDTH 205 0
DWIDTH 4 0
BBX 3 13 1 0
BITMAP
80
40
40
00
00
40
C0
40
40
40
40
40
E0
ENDCHAR
STARTCHAR 00ED
ENCODING 237
SWIDTH 205 0
DWIDTH 4 0
BBX 3 13 1 0
BITMAP
60
40
40
00
00
40
C0
40
40
40
40
40
E0
ENDCHAR
STARTCHAR 00EE
ENCODING 238
SWIDTH 205 0
DWIDTH 4 0
BBX 4 13 0 0
BITMAP
20
50
90
80
00
20
60
20
20
20
20
20
70
ENDCHAR
STARTCHAR 00EF
ENCODING 239
SWIDTH 205 0
DWIDTH 4 0
BBX 6 12 0 0
BITMAP
C8
CC
00
00
20
60
20
20
20
20
20
70
ENDCHAR
STARTCHAR 00F0
ENCODING 240
SWIDTH 462 0
DWIDTH 9 0
BBX 9 14 0 -1
BITMAP
0600
8800
7000
5800
0400
1E00
2300
6100
4180
4180
6180
2100
1600
0800
ENDCHAR
STARTCHAR 00F1
ENCODING 241
SWIDTH 462 0
DWIDTH 9 0
BBX 8 11 1 0
BITMAP
7C
00
00
5C
E2
42
42
42
42
42
E7
ENDCHAR
STARTCHAR 00F2
ENCODING 242
SWIDTH 462 0
DWIDTH 9 0
BBX 8 14 1 -1
BITMAP
20
10
10
00
00
3C
46
C2
83
83
82
46
2C
10
ENDCHAR
STARTCHAR 00F3
ENCODING 243
SWIDTH 462 0
DWIDTH 9 0
BBX 8 14 1 -1
BITMAP
0C
08
08
00
00
3C
46
C2
83
83
82
46
2C
10
ENDCHAR
STARTCHAR 00F4
ENCODING 244
SWIDTH 462 0
DWIDTH 9 0
BBX 8 14 1 -1
BITMAP
10
28
48
40
00
3C
46
C2
83
83
82
46
2C
10
ENDCHAR
STARTCHAR 00F5
ENCODING 245
SWIDTH 462 0
DWIDTH 9 0
BBX 8 12 1 -1
BITMAP
7C
00
00
3C
46
C2
83
83
82
46
2C
10
ENDCHAR
STARTCHAR 00F6
ENCODING 246
SWIDTH 462 0
DWIDTH 9 0
BBX 8 13 1 -1
BITMAP
64
66
00
00
3C
46
C2
83
83
82
46
2C
10
ENDCHAR
STARTCHAR 00F7
ENCODING 247
SWIDTH 462 0
DWIDTH 9 0
BBX 8 7 1 0
BITMAP
18
00
00
FF
00
18
10
ENDCHAR
STARTCHAR 00F8
ENCODING 248
SWIDTH 462 0
DWIDTH 9 0
BBX 8 9 1 -1
BITMAP
3C
46
CA
93
A3
A2
46
AC
90
ENDCHAR
STARTCHAR 00F9
ENCODING 249
SWIDTH 462 0
DWIDTH 9 0
BBX 9 13 0 0
BITMAP
1000
0800
0800
0000
0000
E700
2100
2100
2100
2100
2100
2300
1D80
ENDCHAR
STARTCHAR 00FA
ENCODING 250
SWIDTH 462 0
DWIDTH 9 0
BBX 9 13 0 0
BITMAP
0600
0400
0400
0000
0000
E700
2100
2100
2100
2100
2100
2300
1D80
ENDCHAR
STARTCHAR 00FB
ENCODING 251
SWIDTH 462 0
DWIDTH 9 0
BBX 9 13 0 0
BITMAP
0800
1400
2400
2000
0000
E700
2100
2100
2100
2100
2100
2300
1D80
ENDCHAR
STARTCHAR 00FC
ENCODING 252
SWIDTH 462 0
DWIDTH 9 0
BBX 9 12 0 0
BITMAP
3200
3300
0000
0000
E700
2100
2100
2100
2100
2100
2300
1D80
ENDCHAR
STARTCHAR 00FD
ENCODING 253
SWIDTH 360 0
DWIDTH 7 0
BBX 8 18 0 -5
BITMAP
0C
08
08
00
00
E7
42
64
24
24
38
18
10
10
10
20
20
C0
ENDCHAR
STARTCHAR 00FE
ENCODING 254
SWIDTH 411 0
DWIDTH 8 0
BBX 7 18 1 -5
BITMAP
C0
40
40
40
40
5C
64
46
46
46
44
48
70
40
40
40
40
C0
ENDCHAR
STARTCHAR 00FF
ENCODING 255
SWIDTH 360 0
DWIDTH 7 0
BBX 8 17 0 -5
BITMAP
64
66
00
00
E7
42
64
24
24
38
18
10
10
10
20
20
C0
ENDCHAR
STARTCHAR 0100
ENCODING 256
SWIDTH 617 0
DWIDTH 12 0
BBX 13 16 0 0
BITMAP
1F80
0000
0000
0200
0700
0700
0500
0980
0980
1080
1FC0
10C0
2040
2060
2060
F0F8
ENDCHAR
STARTCHAR 0101
ENCODING 257
SWIDTH 360 0
DWIDTH 7 0
BBX 6 11 1 0
BITMAP
F8
00
00
78
98
98
18
78
98
98
EC
ENDCHAR
STARTCHAR 0102
ENCODING 258
SWIDTH 617 0
DWIDTH 12 0
BBX 13 17 0 0
BITMAP
0080
0F80
0200
0000
0200
0700
0700
0500
0980
0980
1080
1FC0
10C0
2040
2060
2060
F0F8
ENDCHAR
STARTCHAR 0103
ENCODING 259
SWIDTH 360 0
DWIDTH 7 0
BBX 6 12 1 0
BITMAP
08
F8
20
00
78
98
98
18
78
98
98
EC
ENDCHAR
STARTCHAR 0104
ENCODING 260
SWIDTH 617 0
DWIDTH 12 0
BBX 13 17 0 -4
BITMAP
0200
0700
0700
0500
0980
0980
1080
1FC0
10C0
2040
2060
2060
F0F8
0040
0080
0080
00E0
ENDCHAR
STARTCHAR 0105
ENCODING 261
SWIDTH 360 0
DWIDTH 7 0
BBX 6 12 1 -4
BITMAP
78
98
98
18
78
98
98
EC
08
10
10
1C
ENDCHAR
STARTCHAR 0106
ENCODING 262
SWIDTH 617 0
DWIDTH 12 0
BBX 11 19 1 -1
BITMAP
0040
00C0
0300
0400
0000
0F80
3060
6020
4020
C000
C000
C000
C000
C000
C000
6020
3060
1DC0
0200
ENDCHAR
STARTCHAR 0107
ENCODING 263
SWIDTH 360 0
DWIDTH 7 0
BBX 6 13 1 0
BITMAP
0C
08
08
00
00
3C
44
C0
80
80
C0
C0
7C
ENDCHAR
STARTCHAR 0108
ENCODING 264
SWIDTH 617 0
DWIDTH 12 0
BBX 11 18 1 -1
BITMAP
0200
0500
0880
0000
0F80
3060
6020
4020
C000
C000
C000
C000
C000
C000
6020
3060
1DC0
0200
ENDCHAR
STARTCHAR 0109
ENCODING 265
SWIDTH 360 0
DWIDTH 7 0
BBX 6 13 1 0
BITMAP
10
28
48
40
00
3C
44
C0
80
80
C0
C0
7C
ENDCHAR
STARTCHAR 010A
ENCODING 266
SWIDTH 617 0
DWIDTH 12 0
BBX 11 18 1 -1
BITMAP
0200
0600
0000
0000
0F80
3060
6020
4020
C000
C000
C000
C000
C000
C000
6020
3060
1DC0
0200
ENDCHAR
STARTCHAR 010B
ENCODING 267
SWIDTH 360 0
DWIDTH 7 0
BBX 6 12 1 0
BITMAP
10
30
00
00
3C
44
C0
80
80
C0
C0
7C
ENDCHAR
STARTCHAR 010C
ENCODING 268
SWIDTH 617 0
DWIDTH 12 0
BBX 11 18 1 -1
BITMAP
0880
0700
0200
0000
0F80
3060
6020
4020
C000
C000
C000
C000
C000
C000
6020
3060
1DC0
0200
ENDCHAR
STARTCHAR 010D
ENCODING 269
SWIDTH 360 0
DWIDTH 7 0
BBX 6 13 1 0
BITMAP
04
28
10
00
00
3C
44
C0
80
80
C0
C0
7C
ENDCHAR
STARTCHAR 010E
ENCODING 270
SWIDTH 720 0
DWIDTH 14 0
BBX 12 17 1 0
BITMAP
1100
0E00
0400
0000
FE00
61C0
2060
2030
2030
2030
2010
2030
2030
2030
2060
60C0
FF80
ENDCHAR
STARTCHAR 010F
ENCODING 271
SWIDTH 565 0
DWIDTH 11 0
BBX 10 14 1 0
BITMAP
0280
0EC0
0640
0640
0680
0600
3E00
4600
8600
8600
8600
8600
C600
7F00
ENDCHAR
STARTCHAR 0110
ENCODING 272
SWIDTH 720 0
DWIDTH 14 0
BBX 12 13 1 0
BITMAP
FE00
61C0
2060
2030
2030
2030
F810
2030
2030
2030
2060
60C0
FF80
ENDCHAR
STARTCHAR 0111
ENCODING 273
SWIDTH 462 0
DWIDTH 9 0
BBX 9 14 1 0
BITMAP
0200
0E00
0600
1F80
0600
0600
3E00
4600
8600
8600
8600
8600
C600
7F00
ENDCHAR
STARTCHAR 0112
ENCODING 274
SWIDTH 565 0
DWIDTH 11 0
BBX 10 16 1 0
BITMAP
7E00
0000
0000
FF80
6180
2080
2080
2000
2200
2200
3E00
2200
2000
2040
2040
FFC0
ENDCHAR
STARTCHAR 0113
ENCODING 275
SWIDTH 360 0
DWIDTH 7 0
BBX 6 11 1 0
BITMAP
F8
00
00
38
44
FC
80
80
C0
C0
78
ENDCHAR
STARTCHAR 0114
ENCODING 276
SWIDTH 565 0
DWIDTH 11 0
BBX 10 17 1 0
BITMAP
0200
3E00
0800
0000
FF80
6180
2080
2080
2000
2200
2200
3E00
2200
2000
2040
2040
FFC0
ENDCHAR
STARTCHAR 0115
ENCODING 277
SWIDTH 360 0
DWIDTH 7 0
BBX 6 12 1 0
BITMAP
04
7C
10
00
38
44
FC
80
80
C0
C0
78
ENDCHAR
STARTCHAR 0116
ENCODING 278
SWIDTH 565 0
DWIDTH 11 0
BBX 10 17 1 0
BITMAP
0800
1800
0000
0000
FF80
6180
2080
2080
2000
2200
2200
3E00
2200
2000
2040
2040
FFC0
ENDCHAR
STARTCHAR 0117
ENCODING 279
SWIDTH 360 0
DWIDTH 7 0
BBX 6 12 1 0
BITMAP
10
30
00
00
38
44
FC
80
80
C0
C0
78
ENDCHAR
STARTCHAR 0118
ENCODING 280
SWIDTH 565 0
DWIDTH 11 0
BBX 10 17 1 -4
BITMAP
FF80
6180
2080
2080
2000
2200
2200
3E00
2200
2000
2040
2040
FFC0
0100
0200
0200
0380
ENDCHAR
STARTCHAR 0119
ENCODING 281
SWIDTH 360 0
DWIDTH 7 0
BBX 6 12 1 -4
BITMAP
38
44
FC
80
80
C0
C0
78
20
40
40
70
ENDCHAR
STARTCHAR 011A
ENCODING 282
SWIDTH 565 0
DWIDTH 11 0
BBX 10 17 1 0
BITMAP
2200
1C00
0800
0000
FF80
6180
2080
2080
2000
2200
2200
3E00
2200
2000
2040
2040
FFC0
ENDCHAR
STARTCHAR 011B
ENCODING 283
SWIDTH 360 0
DWIDTH 7 0
BBX 6 13 1 0
BITMAP
04
28
10
00
00
38
44
FC
80
80
C0
C0
78
ENDCHAR
STARTCHAR 011C
ENCODING 284
SWIDTH 668 0
DWIDTH 13 0
BBX 12 18 1 -1
BITMAP
0200
0500
0880
0000
0F80
3060
6020
4020
C000
C000
C000
C000
C1F0
C040
6040
3040
1DE0
0200
ENDCHAR
STARTCHAR 011D
ENCODING 285
SWIDTH 411 0
DWIDTH 8 0
BBX 8 18 1 -5
BITMAP
10
28
48
40
00
78
C6
84
84
CC
70
80
FC
7F
83
81
82
FC
ENDCHAR
STARTCHAR 011E
ENCODING 286
SWIDTH 668 0
DWIDTH 13 0
BBX 12 18 1 -1
BITMAP
0080
0F80
0200
0000
0F80
3060
6020
4020
C000
C000
C000
C000
C1F0
C040
6040
3040
1DE0
0200
ENDCHAR
STARTCHAR 011F
ENCODING 287
SWIDTH 411 0
DWIDTH 8 0
BBX 8 17 1 -5
BITMAP
04
7C
10
00
78
C6
84
84
CC
70
80
FC
7F
83
81
82
FC
ENDCHAR
STARTCHAR 0120
ENCODING 288
SWIDTH 668 0
DWIDTH 13 0
BBX 12 18 1 -1
BITMAP
0200
0600
0000
0000
0F80
3060
6020
4020
C000
C000
C000
C000
C1F0
C040
6040
3040
1DE0
0200
ENDCHAR
STARTCHAR 0121
ENCODING 289
SWIDTH 411 0
DWIDTH 8 0
BBX 8 17 1 -5
BITMAP
10
30
00
00
78
C6
84
84
CC
70
80
FC
7F
83
81
82
FC
ENDCHAR
STARTCHAR 0122
ENCODING 290
SWIDTH 668 0
DWIDTH 13 0
BBX 12 18 1 -5
BITMAP
0F80
3060
6020
4020
C000
C000
C000
C000
C1F0
C040
6040
3040
1DE0
0600
0600
0200
0A00
0400
ENDCHAR
STARTCHAR 0123
ENCODING 291
SWIDTH 411 0
DWIDTH 8 0
BBX 8 19 1 -5
BITMAP
10
20
20
20
30
00
78
C6
84
84
CC
70
80
FC
7F
83
81
82
FC
ENDCHAR
STARTCHAR 0124
ENCODING 292
SWIDTH 771 0
DWIDTH 15 0
BBX 13 17 1 0
BITMAP
0200
0500
0880
0000
F8F8
6030
2030
2030
2030
2030
3FF0
2030
2030
2030
2030
6030
F8F8
ENDCHAR
STARTCHAR 0125
ENCODING 293
SWIDTH 514 0
DWIDTH 10 0
BBX 9 18 0 0
BITMAP
2000
5000
8800
0000
0000
6000
2000
2000
2000
2000
2F00
3100
2180
2180
2180
2180
2180
7180
ENDCHAR
STARTCHAR 0126
ENCODING 294
SWIDTH 771 0
DWIDTH 15 0
BBX 13 13 1 0
BITMAP
F8F8
6030
2030
FFF8
2030
2030
3FF0
2030
2030
2030
2030
6030
F8F8
ENDCHAR
STARTCHAR 0127
ENCODING 295
SWIDTH 514 0
DWIDTH 10 0
BBX 9 13 0 0
BITMAP
6000
2000
FC00
2000
2000
2E00
3100
2180
2180
2180
2180
2180
7180
ENDCHAR
STARTCHAR 0128
ENCODING 296
SWIDTH 308 0
DWIDTH 6 0
BBX 5 16 1 0
BITMAP
F8
00
00
F8
60
20
20
20
20
20
20
20
20
20
60
F8
ENDCHAR
STARTCHAR 0129
ENCODING 297
SWIDTH 205 0
DWIDTH 4 0
BBX 5 11 0 0
BITMAP
F8
00
00
20
60
20
20
20
20
20
70
ENDCHAR
STARTCHAR 012A
ENCODING 298
SWIDTH 308 0
DWIDTH 6 0
BBX 6 16 0 0
BITMAP
F8
00
00
7C
30
10
10
10
10
10
10
10
10
10
30
7C
ENDCHAR
STARTCHAR 012B
ENCODING 299
SWIDTH 205 0
DWIDTH 4 0
BBX 5 11 0 0
BITMAP
F8
00
00
20
60
20
20
20
20
20
70
ENDCHAR
STARTCHAR 012C
ENCODING 300
SWIDTH 308 0
DWIDTH 6 0
BBX 5 17 1 0
BITMAP
08
F8
20
00
F8
60
20
20
20
20
20
20
20
20
20
60
F8
ENDCHAR
STARTCHAR 012D
ENCODING 301
SWIDTH 205 0
DWIDTH 4 0
BBX 5 12 0 0
BITMAP
08
F8
20
00
20
60
20
20
20
20
20
70
ENDCHAR
STARTCHAR 012E
ENCODING 302
SWIDTH 308 0
DWIDTH 6 0
BBX 5 17 1 -4
BITMAP
F8
60
20
20
20
20
20
20
20
20
20
60
F8
40
80
80
E0
ENDCHAR
STARTCHAR 012F
ENCODING 303
SWIDTH 205 0
DWIDTH 4 0
BBX 3 16 1 -4
BITMAP
40
C0
00
00
40
C0
40
40
40
40
40
E0
40
80
80
E0
ENDCHAR
STARTCHAR 0130
ENCODING 304
SWIDTH 308 0
DWIDTH 6 0
BBX 5 17 1 0
BITMAP
20
60
00
00
F8
60
20
20
20
20
20
20
20
20
20
60
F8
ENDCHAR
STARTCHAR 0131
ENCODING 305
SWIDTH 205 0
DWIDTH 4 0
BBX 3 8 1 0
BITMAP
40
C0
40
40
40
40
40
E0
ENDCHAR
STARTCHAR 0132
ENCODING 306
SWIDTH 668 0
DWIDTH 13 0
BBX 12 17 1 -4
BITMAP
F9F0
60C0
2040
2040
2040
2040
2040
2040
2040
2040
2040
6040
F840
0040
0040
0680
0700
ENDCHAR
STARTCHAR 0133
ENCODING 307
SWIDTH 462 0
DWIDTH 9 0
BBX 7 17 1 -5
BITMAP
42
C6
00
00
42
C6
42
42
42
42
42
E2
02
02
02
02
1C
ENDCHAR
STARTCHAR 0134
ENCODING 308
SWIDTH 308 0
DWIDTH 6 0
BBX 7 21 -1 -4
BITMAP
08
14
22
00
3E
18
08
08
08
08
08
08
08
08
08
08
08
08
08
D0
E0
ENDCHAR
STARTCHAR 0135
ENCODING 309
SWIDTH 205 0
DWIDTH 4 0
BBX 5 18 -1 -5
BITMAP
10
28
48
40
00
10
30
10
10
10
10
10
10
10
10
10
10
E0
ENDCHAR
STARTCHAR 0136
ENCODING 310
SWIDTH 617 0
DWIDTH 12 0
BBX 12 17 1 -4
BITMAP
F9C0
6180
2100
2200
2400
2800
3800
2C00
2600
2300
2300
6180
FBF0
0000
0600
0300
0E00
ENDCHAR
STARTCHAR 0137
ENCODING 311
SWIDTH 462 0
DWIDTH 9 0
BBX 8 17 1 -4
BITMAP
C0
40
40
40
40
4F
44
48
70
58
4C
46
E7
00
18
0C
38
ENDCHAR
STARTCHAR 0138
ENCODING 312
SWIDTH 462 0
DWIDTH 9 0
BBX 9 8 0 0
BITMAP
F300
2500
2800
3800
2C00
2400
2600
7380
ENDCHAR
STARTCHAR 0139
ENCODING 313
SWIDTH 617 0
DWIDTH 12 0
BBX 11 18 1 0
BITMAP
0400
0C00
3000
4000
0000
F800
6000
2000
2000
2000
2000
2000
2000
2000
2020
2020
2060
FFE0
ENDCHAR
STARTCHAR 013A
ENCODING 314
SWIDTH 205 0
DWIDTH 4 0
BBX 5 19 1 0
BITMAP
08
18
60
80
00
00
C0
40
40
40
40
40
40
40
40
40
40
40
E0
ENDCHAR
STARTCHAR 013B
ENCODING 315
SWIDTH 617 0
DWIDTH 12 0
BBX 11 18 1 -5
BITMAP
F800
6000
2000
2000
2000
2000
2000
2000
2000
2020
2020
2060
FFE0
0800
0C00
0400
1400
0800
ENDCHAR
STARTCHAR 013C
ENCODING 316
SWIDTH 205 0
DWIDTH 4 0
BBX 3 18 1 -5
BITMAP
C0
40
40
40
40
40
40
40
40
40
40
40
E0
40
60
20
A0
40
ENDCHAR
STARTCHAR 013D
ENCODING 317
SWIDTH 617 0
DWIDTH 12 0
BBX 11 17 1 0
BITMAP
8800
7000
2000
0000
F800
6000
2000
2000
2000
2000
2000
2000
2000
2020
2020
2060
FFE0
ENDCHAR
STARTCHAR 013E
ENCODING 318
SWIDTH 308 0
DWIDTH 6 0
BBX 5 14 1 0
BITMAP
10
D8
48
48
50
40
40
40
40
40
40
40
40
E0
ENDCHAR
STARTCHAR 013F
ENCODING 319
SWIDTH 617 0
DWIDTH 12 0
BBX 11 13 1 0
BITMAP
F800
6100
2300
2000
2000
2000
2000
2000
2000
2020
2020
2060
FFE0
ENDCHAR
STARTCHAR 0140
ENCODING 320
SWIDTH 308 0
DWIDTH 6 0
BBX 5 13 1 0
BITMAP
C0
48
58
40
40
40
40
40
40
40
40
40
E0
ENDCHAR
STARTCHAR 0141
ENCODING 321
SWIDTH 617 0
DWIDTH 12 0
BBX 11 13 1 0
BITMAP
F800
6000
2000
2000
2000
3800
7000
A000
2000
2020
2020
2060
FFE0
ENDCHAR
STARTCHAR 0142
ENCODING 322
SWIDTH 205 0
DWIDTH 4 0
BBX 4 13 1 0
BITMAP
C0
40
40
40
40
70
C0
40
40
40
40
40
E0
ENDCHAR
STARTCHAR 0143
ENCODING 323
SWIDTH 668 0
DWIDTH 13 0
BBX 12 18 1 0
BITMAP
0080
0180
0600
0800
0000
C070
6020
7020
5820
4C20
4420
4620
4320
41A0
40E0
40E0
4060
F020
ENDCHAR
STARTCHAR 0144
ENCODING 324
SWIDTH 462 0
DWIDTH 9 0
BBX 8 13 1 0
BITMAP
06
04
04
00
00
5C
E2
42
42
42
42
42
E7
ENDCHAR
STARTCHAR 0145
ENCODING 325
SWIDTH 668 0
DWIDTH 13 0
BBX 12 17 1 -4
BITMAP
C070
6020
7020
5820
4C20
4420
4620
4320
41A0
40E0
40E0
4060
F020
0000
0600
0300
0E00
ENDCHAR
STARTCHAR 0146
ENCODING 326
SWIDTH 462 0
DWIDTH 9 0
BBX 8 12 1 -4
BITMAP
5C
E2
42
42
42
42
42
E7
00
18
0C
38
ENDCHAR
STARTCHAR 0147
ENCODING 327
SWIDTH 668 0
DWIDTH 13 0
BBX 12 17 1 0
BITMAP
1100
0E00
0400
0000
C070
6020
7020
5820
4C20
4420
4620
4320
41A0
40E0
40E0
4060
F020
ENDCHAR
STARTCHAR 0148
ENCODING 328
SWIDTH 462 0
DWIDTH 9 0
BBX 8 13 1 0
BITMAP
02
14
08
00
00
5C
E2
42
42
42
42
42
E7
ENDCHAR
STARTCHAR 0149
ENCODING 329
SWIDTH 462 0
DWIDTH 9 0
BBX 8 15 1 0
BITMAP
80
C0
40
40
80
00
00
5C
E2
42
42
42
42
42
E7
ENDCHAR
STARTCHAR 014A
ENCODING 330
SWIDTH 668 0
DWIDTH 13 0
BBX 12 18 1 -5
BITMAP
C070
6020
7020
5820
4C20
4420
4620
4320
41A0
40E0
40E0
4060
F020
0020
0020
0020
0140
0180
ENDCHAR
STARTCHAR 014B
ENCODING 331
SWIDTH 462 0
DWIDTH 9 0
BBX 7 13 1 -5
BITMAP
5C
E2
42
42
42
42
42
E2
02
02
02
02
1C
ENDCHAR
STARTCHAR 014C
ENCODING 332
SWIDTH 668 0
DWIDTH 13 0
BBX 12 16 1 0
BITMAP
3F00
0000
0000
0F00
3080
6040
4060
C020
C030
C030
C030
C030
C020
6060
3040
1F80
ENDCHAR
STARTCHAR 014D
ENCODING 333
SWIDTH 462 0
DWIDTH 9 0
BBX 8 12 1 -1
BITMAP
7C
00
00
3C
46
C2
83
83
82
46
2C
10
ENDCHAR
STARTCHAR 014E
ENCODING 334
SWIDTH 668 0
DWIDTH 13 0
BBX 12 17 1 0
BITMAP
0100
1F00
0400
0000
0F00
3080
6040
4060
C020
C030
C030
C030
C030
C020
6060
3040
1F80
ENDCHAR
STARTCHAR 014F
ENCODING 335
SWIDTH 462 0
DWIDTH 9 0
BBX 8 13 1 -1
BITMAP
04
7C
10
00
3C
46
C2
83
83
82
46
2C
10
ENDCHAR
STARTCHAR 0150
ENCODING 336
SWIDTH 668 0
DWIDTH 13 0
BBX 12 18 1 0
BITMAP
06C0
0480
0480
0000
0000
0F00
3080
6040
4060
C020
C030
C030
C030
C030
C020
6060
3040
1F80
ENDCHAR
STARTCHAR 0151
ENCODING 337
SWIDTH 462 0
DWIDTH 9 0
BBX 8 14 1 -1
BITMAP
36
24
24
00
00
3C
46
C2
83
83
82
46
2C
10
ENDCHAR
STARTCHAR 0152
ENCODING 338
SWIDTH 874 0
DWIDTH 17 0
BBX 16 13 1 0
BITMAP
07FF
38C3
60C1
40C1
C0C0
C0C0
C0C8
C0F8
C0C0
C0C0
60C1
30C1
1FFF
ENDCHAR
STARTCHAR 0153
ENCODING 339
SWIDTH 720 0
DWIDTH 14 0
BBX 12 9 1 -1
BITMAP
3CE0
4710
83F0
8200
8300
8300
4780
6CF0
1000
ENDCHAR
STARTCHAR 0154
ENCODING 340
SWIDTH 668 0
DWIDTH 13 0
BBX 11 18 1 0
BITMAP
0100
0300
0C00
1000
0000
FC00
6380
2080
20C0
20C0
2080
2300
3E00
2300
2300
2180
60C0
F860
ENDCHAR
STARTCHAR 0155
ENCODING 341
SWIDTH 308 0
DWIDTH 6 0
BBX 5 13 1 0
BITMAP
30
20
20
00
00
58
E8
40
40
40
40
40
E0
ENDCHAR
STARTCHAR 0156
ENCODING 342
SWIDTH 668 0
DWIDTH 13 0
BBX 11 17 1 -4
BITMAP
FC00
6380
2080
20C0
20C0
2080
2300
3E00
2300
2300
2180
60C0
F860
0000
0300
0180
0700
ENDCHAR
STARTCHAR 0157
ENCODING 343
SWIDTH 308 0
DWIDTH 6 0
BBX 6 13 0 -5
BITMAP
2C
74
20
20
20
20
20
70
40
60
20
A0
40
ENDCHAR
STARTCHAR 0158
ENCODING 344
SWIDTH 668 0
DWIDTH 13 0
BBX 11 17 1 0
BITMAP
2200
1C00
0800
0000
FC00
6380
2080
20C0
20C0
2080
2300
3E00
2300
2300
2180
60C0
F860
ENDCHAR
STARTCHAR 0159
ENCODING 345
SWIDTH 308 0
DWIDTH 6 0
BBX 5 13 1 0
BITMAP
08
50
20
00
00
58
E8
40
40
40
40
40
E0
ENDCHAR
STARTCHAR 015A
ENCODING 346
SWIDTH 462 0
DWIDTH 9 0
BBX 8 19 1 -1
BITMAP
01
03
0C
10
00
3C
42
C2
C0
C0
70
3E
0E
03
83
83
C2
74
08
ENDCHAR
STARTCHAR 015B
ENCODING 347
SWIDTH 308 0
DWIDTH 6 0
BBX 5 14 1 -1
BITMAP
30
20
20
00
00
78
88
80
E0
38
08
88
D0
20
ENDCHAR
STARTCHAR 015C
ENCODING 348
SWIDTH 462 0
DWIDTH 9 0
BBX 8 18 1 -1
BITMAP
10
28
44
00
3C
42
C2
C0
C0
70
3E
0E
03
83
83
C2
74
08
ENDCHAR
STARTCHAR 015D
ENCODING 349
SWIDTH 308 0
DWIDTH 6 0
BBX 5 14 1 -1
BITMAP
20
50
90
80
00
78
88
80
E0
38
08
88
D0
20
ENDCHAR
STARTCHAR 015E
ENCODING 350
SWIDTH 462 0
DWIDTH 9 0
BBX 8 18 1 -5
BITMAP
3C
42
C2
C0
C0
70
3E
0E
03
83
83
C2
74
18
18
08
28
10
ENDCHAR
STARTCHAR 015F
ENCODING 351
SWIDTH 308 0
DWIDTH 6 0
BBX 5 13 1 -5
BITMAP
78
88
80
E0
38
08
88
D0
60
60
20
A0
40
ENDCHAR
STARTCHAR 0160
ENCODING 352
SWIDTH 462 0
DWIDTH 9 0
BBX 8 18 1 -1
BITMAP
44
38
10
00
3C
42
C2
C0
C0
70
3E
0E
03
83
83
C2
74
08
ENDCHAR
STARTCHAR 0161
ENCODING 353
SWIDTH 308 0
DWIDTH 6 0
BBX 5 14 1 -1
BITMAP
08
50
20
00
00
78
88
80
E0
38
08
88
D0
20
ENDCHAR
STARTCHAR 0162
ENCODING 354
SWIDTH 720 0
DWIDTH 14 0
BBX 14 18 0 -5
BITMAP
FFFC
C104
8104
8100
0100
0100
0100
0100
0100
0100
0100
0100
07C0
0200
0300
0100
0500
0200
ENDCHAR
STARTCHAR 0163
ENCODING 355
SWIDTH 308 0
DWIDTH 6 0
BBX 5 14 1 -5
BITMAP
40
F8
40
40
40
40
40
40
78
20
30
10
50
20
ENDCHAR
STARTCHAR 0164
ENCODING 356
SWIDTH 720 0
DWIDTH 14 0
BBX 14 17 0 0
BITMAP
0440
0380
0100
0000
FFFC
C104
8104
8100
0100
0100
0100
0100
0100
0100
0100
0100
07C0
ENDCHAR
STARTCHAR 0165
ENCODING 357
SWIDTH 462 0
DWIDTH 9 0
BBX 8 15 1 0
BITMAP
02
03
01
01
02
00
40
F8
40
40
40
40
40
40
78
ENDCHAR
STARTCHAR 0166
ENCODING 358
SWIDTH 720 0
DWIDTH 14 0
BBX 14 13 0 0
BITMAP
FFFC
C104
8104
8100
0100
0100
0100
0100
1FF0
0100
0100
0100
07C0
ENDCHAR
STARTCHAR 0167
ENCODING 359
SWIDTH 308 0
DWIDTH 6 0
BBX 6 9 0 0
BITMAP
20
7C
20
20
FC
20
20
20
3C
ENDCHAR
STARTCHAR 0168
ENCODING 360
SWIDTH 668 0
DWIDTH 13 0
BBX 13 17 1 -1
BITMAP
0FC0
0100
0000
F8F8
6020
6020
6020
6020
6020
6020
6020
6020
6020
2020
3040
1D80
0200
ENDCHAR
STARTCHAR 0169
ENCODING 361
SWIDTH 462 0
DWIDTH 9 0
BBX 9 11 0 0
BITMAP
3E00
0000
0000
E700
2100
2100
2100
2100
2100
2300
1D80
ENDCHAR
STARTCHAR 016A
ENCODING 362
SWIDTH 668 0
DWIDTH 13 0
BBX 13 17 1 -1
BITMAP
1F80
0000
0000
F8F8
6020
6020
6020
6020
6020
6020
6020
6020
6020
2020
3040
1D80
0200
ENDCHAR
STARTCHAR 016B
ENCODING 363
SWIDTH 462 0
DWIDTH 9 0
BBX 9 11 0 0
BITMAP
3E00
0000
0000
E700
2100
2100
2100
2100
2100
2300
1D80
ENDCHAR
STARTCHAR 016C
ENCODING 364
SWIDTH 668 0
DWIDTH 13 0
BBX 13 18 1 -1
BITMAP
0080
0F80
0200
0000
F8F8
6020
6020
6020
6020
6020
6020
6020
6020
6020
2020
3040
1D80
0200
ENDCHAR
STARTCHAR 016D
ENCODING 365
SWIDTH 462 0
DWIDTH 9 0
BBX 9 12 0 0
BITMAP
0200
3E00
0800
0000
E700
2100
2100
2100
2100
2100
2300
1D80
ENDCHAR
STARTCHAR 016E
ENCODING 366
SWIDTH 668 0
DWIDTH 13 0
BBX 13 19 1 -1
BITMAP
0200
0500
0900
0700
0000
F8F8
6020
6020
6020
6020
6020
6020
6020
6020
6020
2020
3040
1D80
0200
ENDCHAR
STARTCHAR 016F
ENCODING 367
SWIDTH 462 0
DWIDTH 9 0
BBX 9 13 0 0
BITMAP
0800
1400
2400
1C00
0000
E700
2100
2100
2100
2100
2100
2300
1D80
ENDCHAR
STARTCHAR 0170
ENCODING 368
SWIDTH 668 0
DWIDTH 13 0
BBX 13 19 1 -1
BITMAP
06C0
0480
0480
0000
0000
F8F8
6020
6020
6020
6020
6020
6020
6020
6020
6020
2020
3040
1D80
0200
ENDCHAR
STARTCHAR 0171
ENCODING 369
SWIDTH 462 0
DWIDTH 9 0
BBX 9 13 0 0
BITMAP
1B00
1200
1200
0000
0000
E700
2100
2100
2100
2100
2100
2300
1D80
ENDCHAR
STARTCHAR 0172
ENCODING 370
SWIDTH 668 0
DWIDTH 13 0
BBX 13 17 1 -4
BITMAP
F8F8
6020
6020
6020
6020
6020
6020
6020
6020
6020
2020
3040
1D80
0600
0800
0800
0E00
ENDCHAR
STARTCHAR 0173
ENCODING 371
SWIDTH 462 0
DWIDTH 9 0
BBX 9 12 0 -4
BITMAP
E700
2100
2100
2100
2100
2100
2300
1D80
0200
0400
0400
0700
ENDCHAR
STARTCHAR 0174
ENCODING 372
SWIDTH 925 0
DWIDTH 18 0
BBX 19 17 0 0
BITMAP
004000
00A000
011000
000000
F7BDE0
631080
319080
31A100
10A100
18C200
084200
0C6200
04A400
06B400
073800
031800
021000
ENDCHAR
STARTCHAR 0175
ENCODING 373
SWIDTH 617 0
DWIDTH 12 0
BBX 13 13 0 0
BITMAP
0200
0500
0900
0800
0000
E738
6320
2320
2520
35C0
19C0
18C0
1880
ENDCHAR
STARTCHAR 0176
ENCODING 374
SWIDTH 565 0
DWIDTH 11 0
BBX 12 17 0 0
BITMAP
0400
0A00
1100
0000
F0F0
6040
3040
3080
1900
0900
0E00
0600
0400
0400
0400
0400
1F00
ENDCHAR
STARTCHAR 0177
ENCODING 375
SWIDTH 360 0
DWIDTH 7 0
BBX 8 18 0 -5
BITMAP
10
28
48
40
00
E7
42
64
24
24
38
18
10
10
10
20
20
C0
ENDCHAR
STARTCHAR 0178
ENCODING 376
SWIDTH 565 0
DWIDTH 11 0
BBX 12 16 0 0
BITMAP
1980
1000
0000
F0F0
6040
3040
3080
1900
0900
0E00
0600
0400
0400
0400
0400
1F00
ENDCHAR
STARTCHAR 0179
ENCODING 377
SWIDTH 565 0
DWIDTH 11 0
BBX 11 18 1 0
BITMAP
0100
0300
0C00
1000
0000
FFC0
C0C0
8180
8300
0200
0600
0C00
0800
1800
3000
6020
4040
FFC0
ENDCHAR
STARTCHAR 017A
ENCODING 378
SWIDTH 308 0
DWIDTH 6 0
BBX 7 13 0 0
BITMAP
0C
08
08
00
00
7C
88
18
10
30
22
64
7C
ENDCHAR
STARTCHAR 017B
ENCODING 379
SWIDTH 565 0
DWIDTH 11 0
BBX 11 17 1 0
BITMAP
0400
0C00
0000
0000
FFC0
C0C0
8180
8300
0200
0600
0C00
0800
1800
3000
6020
4040
FFC0
ENDCHAR
STARTCHAR 017C
ENCODING 380
SWIDTH 308 0
DWIDTH 6 0
BBX 7 12 0 0
BITMAP
10
30
00
00
7C
88
18
10
30
22
64
7C
ENDCHAR
STARTCHAR 017D
ENCODING 381
SWIDTH 565 0
DWIDTH 11 0
BBX 11 17 1 0
BITMAP
1100
0E00
0400
0000
FFC0
C0C0
8180
8300
0200
0600
0C00
0800
1800
3000
6020
4040
FFC0
ENDCHAR
STARTCHAR 017E
ENCODING 382
SWIDTH 308 0
DWIDTH 6 0
BBX 7 13 0 0
BITMAP
04
28
10
00
00
7C
88
18
10
30
22
64
7C
ENDCHAR
STARTCHAR 017F
ENCODING 383
SWIDTH 257 0
DWIDTH 5 0
BBX 7 14 1 0
BITMAP
0E
36
20
40
40
40
40
40
40
40
40
40
40
E0
ENDCHAR
STARTCHAR 0180
ENCODING 384
SWIDTH 462 0
DWIDTH 9 0
BBX 10 15 -1 -1
BITMAP
1000
7000
3000
FC00
3000
3000
3F00
3180
3080
30C0
30C0
3080
3080
3900
0600
ENDCHAR
STARTCHAR 0181
ENCODING 385
SWIDTH 565 0
DWIDTH 11 0
BBX 12 13 -2 0
BITMAP
3F80
CC60
8420
4430
0420
0460
07C0
0430
0410
0410
0410
0C30
1FE0
ENDCHAR
STARTCHAR 0182
ENCODING 386
SWIDTH 565 0
DWIDTH 11 0
BBX 9 13 1 0
BITMAP
FF80
6180
2080
2000
2000
2000
3E00
2180
2080
2080
2080
6180
FF00
ENDCHAR
STARTCHAR 0183
ENCODING 387
SWIDTH 462 0
DWIDTH 9 0
BBX 8 14 1 -1
BITMAP
06
FA
C2
C0
C0
FC
C6
C2
C3
C3
C2
C2
E4
18
ENDCHAR
STARTCHAR 0184
ENCODING 388
SWIDTH 565 0
DWIDTH 11 0
BBX 9 12 1 0
BITMAP
2000
6000
E000
6000
2000
3E00
2180
2080
2080
2080
6180
FF00
ENDCHAR
STARTCHAR 0185
ENCODING 389
SWIDTH 462 0
DWIDTH 9 0
BBX 9 12 0 -1
BITMAP
2000
E000
6000
7E00
6300
6100
6180
6180
6100
6100
7200
0C00
ENDCHAR
STARTCHAR 0186
ENCODING 390
SWIDTH 617 0
DWIDTH 12 0
BBX 11 14 1 -1
BITMAP
7E00
C180
80C0
00C0
0060
0060
0060
0060
0060
0040
80C0
8180
E600
1800
ENDCHAR
STARTCHAR 0187
ENCODING 391
SWIDTH 617 0
DWIDTH 12 0
BBX 13 16 1 -1
BITMAP
0018
0028
0FA0
3060
6020
4020
C000
C000
C000
C000
C000
C000
6020
3060
1DC0
0200
ENDCHAR
STARTCHAR 0188
ENCODING 392
SWIDTH 360 0
DWIDTH 7 0
BBX 8 10 1 0
BITMAP
03
04
3C
44
C0
80
80
C0
C0
7C
ENDCHAR
STARTCHAR 0189
ENCODING 393
SWIDTH 720 0
DWIDTH 14 0
BBX 12 13 1 0
BITMAP
FE00
61C0
2060
2030
2030
2030
F810
2030
2030
2030
2060
60C0
FF80
ENDCHAR
STARTCHAR 018A
ENCODING 394
SWIDTH 720 0
DWIDTH 14 0
BBX 15 13 -2 0
BITMAP
3FC0
CC38
840C
4406
0406
0406
0402
0406
0406
0406
040C
0C18
1FF0
ENDCHAR
STARTCHAR 018B
ENCODING 395
SWIDTH 514 0
DWIDTH 10 0
BBX 9 13 1 0
BITMAP
FF80
C300
8300
8300
0300
0300
3F00
4300
C300
8300
8300
C300
7F80
ENDCHAR
STARTCHAR 018C
ENCODING 396
SWIDTH 462 0
DWIDTH 9 0
BBX 8 13 1 0
BITMAP
40
FE
86
06
06
3E
46
86
86
86
86
C6
7F
ENDCHAR
STARTCHAR 018D
ENCODING 397
SWIDTH 411 0
DWIDTH 8 0
BBX 7 12 1 -1
BITMAP
7C
C4
86
86
84
C4
28
1C
04
04
6C
10
ENDCHAR
STARTCHAR 018E
ENCODING 398
SWIDTH 565 0
DWIDTH 11 0
BBX 10 13 1 0
BITMAP
FFC0
C300
8300
8300
0300
0300
2300
3F00
0300
0300
0300
8300
FFC0
ENDCHAR
STARTCHAR 018F
ENCODING 399
SWIDTH 668 0
DWIDTH 13 0
BBX 12 14 1 -1
BITMAP
0F00
31C0
4040
0060
0020
0030
0030
FFF0
C030
C020
6060
3040
1B80
0400
ENDCHAR
STARTCHAR 0190
ENCODING 400
SWIDTH 411 0
DWIDTH 8 0
BBX 7 13 1 0
BITMAP
30
6E
C2
C2
42
20
7C
C0
80
80
C0
C0
3C
ENDCHAR
STARTCHAR 0191
ENCODING 401
SWIDTH 565 0
DWIDTH 11 0
BBX 11 17 -1 -4
BITMAP
3FE0
1820
0820
0800
0800
0900
0F00
0900
0800
0800
0800
0800
0800
0800
0800
1000
E000
ENDCHAR
STARTCHAR 0192
ENCODING 402
SWIDTH 257 0
DWIDTH 5 0
BBX 9 19 -1 -5
BITMAP
0380
0D80
1000
1000
1000
1000
3E00
1000
1000
1000
1000
1000
1000
1000
1000
1000
1000
1000
E000
ENDCHAR
STARTCHAR 0193
ENCODING 403
SWIDTH 668 0
DWIDTH 13 0
BBX 13 16 1 -1
BITMAP
0008
0038
0FA0
3060
6020
4020
C000
C000
C000
C000
C1F0
C040
6040
3040
1DE0
0200
ENDCHAR
STARTCHAR 0194
ENCODING 404
SWIDTH 565 0
DWIDTH 11 0
BBX 12 13 0 0
BITMAP
F0F0
6060
3040
3080
1900
0900
0E00
0600
0600
0B00
0900
0900
0F00
ENDCHAR
STARTCHAR 0195
ENCODING 405
SWIDTH 720 0
DWIDTH 14 0
BBX 13 14 1 -1
BITMAP
C000
4000
4000
4000
4000
5C30
6218
4318
4308
4308
4318
4310
E1B0
0040
ENDCHAR
STARTCHAR 0196
ENCODING 406
SWIDTH 308 0
DWIDTH 6 0
BBX 4 13 2 0
BITMAP
C0
C0
40
40
40
40
40
40
40
40
40
40
70
ENDCHAR
STARTCHAR 0197
ENCODING 407
SWIDTH 308 0
DWIDTH 6 0
BBX 5 13 1 0
BITMAP
F8
60
20
20
20
20
F8
20
20
20
20
60
F8
ENDCHAR
STARTCHAR 0198
ENCODING 408
SWIDTH 617 0
DWIDTH 12 0
BBX 12 13 1 0
BITMAP
F860
60A0
2100
2200
2400
2800
3800
2C00
2600
2300
2300
6180
FBF0
ENDCHAR
STARTCHAR 0199
ENCODING 409
SWIDTH 514 0
DWIDTH 10 0
BBX 8 14 1 0
BITMAP
0E
36
20
40
40
40
4F
44
48
70
58
4C
46
E7
ENDCHAR
STARTCHAR 019A
ENCODING 410
SWIDTH 205 0
DWIDTH 4 0
BBX 4 13 1 0
BITMAP
C0
40
40
40
40
40
F0
40
40
40
40
40
E0
ENDCHAR
STARTCHAR 019B
ENCODING 411
SWIDTH 360 0
DWIDTH 7 0
BBX 9 13 0 0
BITMAP
C000
2800
1000
3000
5000
1000
1800
3800
2400
2400
6400
4200
4380
ENDCHAR
STARTCHAR 019C
ENCODING 412
SWIDTH 925 0
DWIDTH 18 0
BBX 18 13 0 0
BITMAP
FDF7C0
30C100
304100
304100
304100
304100
304100
304100
304100
304100
30C100
30C380
1F3D00
ENDCHAR
STARTCHAR 019D
ENCODING 413
SWIDTH 668 0
DWIDTH 13 0
BBX 14 17 -1 -4
BITMAP
301C
1808
1C08
1608
1308
1108
1188
10C8
1068
1038
1038
1018
1008
1000
1000
2000
E000
ENDCHAR
STARTCHAR 019E
ENCODING 414
SWIDTH 462 0
DWIDTH 9 0
BBX 8 13 1 -5
BITMAP
5C
E2
42
42
42
42
42
E2
02
02
02
02
03
ENDCHAR
STARTCHAR 019F
ENCODING 415
SWIDTH 668 0
DWIDTH 13 0
BBX 12 14 1 -1
BITMAP
0F00
30C0
6040
4060
C020
C030
FFF0
C030
C030
C020
6060
3040
1D80
0200
ENDCHAR
STARTCHAR 01A0
ENCODING 416
SWIDTH 668 0
DWIDTH 13 0
BBX 12 14 1 -1
BITMAP
0F30
30A0
6040
4060
C020
C030
C030
C030
C030
C020
6060
3040
1D80
0200
ENDCHAR
STARTCHAR 01A1
ENCODING 417
SWIDTH 462 0
DWIDTH 9 0
BBX 8 10 1 -1
BITMAP
03
3D
47
C2
83
83
82
46
2C
10
ENDCHAR
STARTCHAR 01A2
ENCODING 418
SWIDTH 822 0
DWIDTH 16 0
BBX 17 17 1 -4
BITMAP
0F3C00
30C600
604200
406200
C02200
C03200
C03200
C03200
C03200
C02200
606200
304200
1D8200
020200
000200
000200
000F80
ENDCHAR
STARTCHAR 01A3
ENCODING 419
SWIDTH 617 0
DWIDTH 12 0
BBX 11 13 1 -5
BITMAP
3F80
4640
C240
8340
8340
8240
4640
2C40
1040
0040
0040
0040
01E0
ENDCHAR
STARTCHAR 01A4
ENCODING 420
SWIDTH 514 0
DWIDTH 10 0
BBX 12 13 -2 0
BITMAP
3F80
CC60
8430
4410
0410
0430
0460
0780
0400
0400
0400
0C00
1F00
ENDCHAR
STARTCHAR 01A5
ENCODING 421
SWIDTH 462 0
DWIDTH 9 0
BBX 7 18 1 -6
BITMAP
18
68
40
40
5C
66
42
42
42
42
46
6C
50
40
40
40
C0
20
ENDCHAR
STARTCHAR 01A6
ENCODING 422
SWIDTH 668 0
DWIDTH 13 0
BBX 12 17 1 -2
BITMAP
F800
6000
3C00
2380
2080
20C0
20C0
2080
2300
3E00
2300
2300
2180
6180
F8C0
0060
0010
ENDCHAR
STARTCHAR 01A7
ENCODING 423
SWIDTH 462 0
DWIDTH 9 0
BBX 8 14 1 -1
BITMAP
3C
42
43
03
03
0E
7C
70
C0
C1
81
43
2E
10
ENDCHAR
STARTCHAR 01A8
ENCODING 424
SWIDTH 308 0
DWIDTH 6 0
BBX 5 9 1 -1
BITMAP
F0
88
08
70
E0
80
88
58
20
ENDCHAR
STARTCHAR 01A9
ENCODING 425
SWIDTH 565 0
DWIDTH 11 0
BBX 10 12 0 0
BITMAP
FF80
6080
2080
3000
1800
0C00
0C00
0800
1000
2040
4040
7FC0
ENDCHAR
STARTCHAR 01AA
ENCODING 426
SWIDTH 205 0
DWIDTH 4 0
BBX 7 19 -1 -6
BITMAP
E0
90
F0
10
10
10
10
10
10
10
10
10
10
10
10
10
10
0A
04
ENDCHAR
STARTCHAR 01AB
ENCODING 427
SWIDTH 308 0
DWIDTH 6 0
BBX 5 11 1 -2
BITMAP
40
F8
40
40
40
40
40
40
78
08
70
ENDCHAR
STARTCHAR 01AC
ENCODING 428
SWIDTH 720 0
DWIDTH 14 0
BBX 14 13 0 0
BITMAP
3FFC
C104
8104
C100
0100
0100
0100
0100
0100
0100
0100
0100
07C0
ENDCHAR
STARTCHAR 01AD
ENCODING 429
SWIDTH 308 0
DWIDTH 6 0
BBX 5 13 1 0
BITMAP
38
40
40
40
40
F8
40
40
40
40
40
40
78
ENDCHAR
STARTCHAR 01AE
ENCODING 430
SWIDTH 720 0
DWIDTH 14 0
BBX 14 17 0 -4
BITMAP
FFFC
C104
8104
8100
0100
0100
0100
0100
0100
0100
0100
0100
0100
0100
0100
00B0
0060
ENDCHAR
STARTCHAR 01AF
ENCODING 431
SWIDTH 668 0
DWIDTH 13 0
BBX 14 15 1 -1
BITMAP
0004
F8FC
6020
6020
6020
6020
6020
6020
6020
6020
6020
2020
3040
1D80
0200
ENDCHAR
STARTCHAR 01B0
ENCODING 432
SWIDTH 462 0
DWIDTH 9 0
BBX 10 10 0 0
BITMAP
0040
0040
E7C0
2100
2100
2100
2100
2100
2300
1D80
ENDCHAR
STARTCHAR 01B1
ENCODING 433
SWIDTH 668 0
DWIDTH 13 0
BBX 12 14 1 -1
BITMAP
60C0
30C0
6040
4060
C020
C030
C030
C030
C030
C020
6060
3040
1D80
0200
ENDCHAR
STARTCHAR 01B2
ENCODING 434
SWIDTH 668 0
DWIDTH 13 0
BBX 12 14 1 -1
BITMAP
F980
61C0
6020
6020
6010
6010
6010
6010
6010
6020
2020
3040
1D80
0200
ENDCHAR
STARTCHAR 01B3
ENCODING 435
SWIDTH 720 0
DWIDTH 14 0
BBX 14 13 0 0
BITMAP
301C
C808
8C10
8620
0620
0340
0180
0180
0180
0180
0180
0180
03C0
ENDCHAR
STARTCHAR 01B4
ENCODING 436
SWIDTH 360 0
DWIDTH 7 0
BBX 10 14 0 -5
BITMAP
01C0
E200
4200
6400
2400
2400
3800
1800
1000
1000
1000
2000
2000
C000
ENDCHAR
STARTCHAR 01B5
ENCODING 437
SWIDTH 565 0
DWIDTH 11 0
BBX 11 13 1 0
BITMAP
FFC0
C0C0
8180
8300
0200
0600
7FC0
0800
1800
3000
6020
4040
FFC0
ENDCHAR
STARTCHAR 01B6
ENCODING 438
SWIDTH 308 0
DWIDTH 6 0
BBX 7 8 0 0
BITMAP
7C
88
18
10
7C
22
64
7C
ENDCHAR
STARTCHAR 01B7
ENCODING 439
SWIDTH 462 0
DWIDTH 9 0
BBX 8 14 1 -1
BITMAP
7E
FE
84
08
10
3C
42
03
03
03
03
C6
EC
10
ENDCHAR
STARTCHAR 01B8
ENCODING 440
SWIDTH 462 0
DWIDTH 9 0
BBX 8 14 1 -1
BITMAP
FE
7E
40
20
18
7C
C0
C0
C0
C0
C0
43
36
08
ENDCHAR
STARTCHAR 01B9
ENCODING 441
SWIDTH 411 0
DWIDTH 8 0
BBX 8 13 0 -5
BITMAP
FE
43
21
10
08
76
40
C0
C0
C0
40
63
3F
ENDCHAR
STARTCHAR 01BA
ENCODING 442
SWIDTH 411 0
DWIDTH 8 0
BBX 7 12 1 -4
BITMAP
FE
84
08
10
20
5C
04
18
60
80
C2
7C
ENDCHAR
STARTCHAR 01BB
ENCODING 443
SWIDTH 411 0
DWIDTH 8 0
BBX 8 12 0 0
BITMAP
3E
46
42
02
06
04
3F
08
10
20
41
FE
ENDCHAR
STARTCHAR 01BC
ENCODING 444
SWIDTH 411 0
DWIDTH 8 0
BBX 7 13 1 0
BITMAP
FC
44
44
40
60
7C
0C
06
06
04
04
8C
F0
ENDCHAR
STARTCHAR 01BD
ENCODING 445
SWIDTH 360 0
DWIDTH 7 0
BBX 6 9 1 -1
BITMAP
FC
84
80
78
04
04
04
D8
20
ENDCHAR
STARTCHAR 01BE
ENCODING 446
SWIDTH 360 0
DWIDTH 7 0
BBX 6 10 1 -1
BITMAP
40
F8
40
40
70
1C
04
04
68
10
ENDCHAR
STARTCHAR 01BF
ENCODING 447
SWIDTH 411 0
DWIDTH 8 0
BBX 7 13 1 -5
BITMAP
5C
E4
46
46
46
44
48
70
40
40
40
40
C0
ENDCHAR
STARTCHAR 01C0
ENCODING 448
SWIDTH 205 0
DWIDTH 4 0
BBX 1 16 2 -3
BITMAP
80
80
80
80
80
80
80
80
80
80
80
80
80
80
80
80
ENDCHAR
STARTCHAR 01C1
ENCODING 449
SWIDTH 360 0
DWIDTH 7 0
BBX 4 16 2 -3
BITMAP
90
90
90
90
90
90
90
90
90
90
90
90
90
90
90
90
ENDCHAR
STARTCHAR 01C2
ENCODING 450
SWIDTH 411 0
DWIDTH 8 0
BBX 7 16 0 -3
BITMAP
10
10
10
10
10
10
7C
10
FE
10
10
10
10
10
10
10
ENDCHAR
STARTCHAR 01C3
ENCODING 451
SWIDTH 205 0
DWIDTH 4 0
BBX 2 13 1 0
BITMAP
40
40
40
40
40
40
40
40
40
00
00
C0
C0
ENDCHAR
STARTCHAR 01C4
ENCODING 452
SWIDTH 1285 0
DWIDTH 25 0
BBX 25 17 1 0
BITMAP
00004400
00003800
00001000
00000000
FE03FF00
61C30300
20620600
20320C00
20300800
20301800
20103000
20302000
20306000
2030C000
20618080
60C10100
FF83FF00
ENDCHAR
STARTCHAR 01C5
ENCODING 453
SWIDTH 1028 0
DWIDTH 20 0
BBX 20 13 1 0
BITMAP
FE0020
61C140
206080
203000
203000
2033E0
201440
2030C0
203080
203180
206110
60C320
FF83E0
ENDCHAR
STARTCHAR 01C6
ENCODING 454
SWIDTH 822 0
DWIDTH 16 0
BBX 15 14 1 0
BITMAP
0200
0E04
0628
0610
0600
0600
3E7C
4688
8618
8610
8630
8622
C664
7F7C
ENDCHAR
STARTCHAR 01C7
ENCODING 455
SWIDTH 977 0
DWIDTH 19 0
BBX 17 17 1 -4
BITMAP
F80F80
600600
200200
200200
200200
200200
200200
200200
200200
202200
202200
206200
FFE200
000200
000200
003400
003800
ENDCHAR
STARTCHAR 01C8
ENCODING 456
SWIDTH 874 0
DWIDTH 17 0
BBX 14 18 1 -5
BITMAP
F800
6004
200C
2000
2000
2004
200C
2004
2004
2024
2024
2064
FFE4
0004
0004
0004
0004
0038
ENDCHAR
STARTCHAR 01C9
ENCODING 457
SWIDTH 462 0
DWIDTH 9 0
BBX 7 18 1 -5
BITMAP
C0
42
46
40
40
42
46
42
42
42
42
42
E2
02
02
02
02
1C
ENDCHAR
STARTCHAR 01CA
ENCODING 458
SWIDTH 1028 0
DWIDTH 20 0
BBX 19 17 1 -4
BITMAP
C073E0
602180
702080
582080
4C2080
442080
462080
432080
41A080
40E080
40E080
406080
F02080
000080
000080
000D00
000E00
ENDCHAR
STARTCHAR 01CB
ENCODING 459
SWIDTH 925 0
DWIDTH 18 0
BBX 16 18 1 -5
BITMAP
C070
6021
7023
5820
4C20
4421
4623
4321
41A1
40E1
40E1
4061
F021
0001
0001
0001
0001
000E
ENDCHAR
STARTCHAR 01CC
ENCODING 460
SWIDTH 720 0
DWIDTH 14 0
BBX 12 17 1 -5
BITMAP
0010
0030
0000
0000
5C10
E230
4210
4210
4210
4210
4210
E710
0010
0010
0010
0010
00E0
ENDCHAR
STARTCHAR 01CD
ENCODING 461
SWIDTH 617 0
DWIDTH 12 0
BBX 13 17 0 0
BITMAP
0880
0700
0200
0000
0200
0700
0700
0500
0980
0980
1080
1FC0
10C0
2040
2060
2060
F0F8
ENDCHAR
STARTCHAR 01CE
ENCODING 462
SWIDTH 360 0
DWIDTH 7 0
BBX 6 13 1 0
BITMAP
08
50
20
00
00
78
98
98
18
78
98
98
EC
ENDCHAR
STARTCHAR 01CF
ENCODING 463
SWIDTH 308 0
DWIDTH 6 0
BBX 5 17 1 0
BITMAP
88
70
20
00
F8
60
20
20
20
20
20
20
20
20
20
60
F8
ENDCHAR
STARTCHAR 01D0
ENCODING 464
SWIDTH 205 0
DWIDTH 4 0
BBX 4 13 1 0
BITMAP
10
A0
40
00
00
40
C0
40
40
40
40
40
E0
ENDCHAR
STARTCHAR 01D1
ENCODING 465
SWIDTH 668 0
DWIDTH 13 0
BBX 12 17 1 0
BITMAP
1100
0E00
0400
0000
0F00
3080
6040
4060
C020
C030
C030
C030
C030
C020
6060
3040
1F80
ENDCHAR
STARTCHAR 01D2
ENCODING 466
SWIDTH 462 0
DWIDTH 9 0
BBX 8 14 1 -1
BITMAP
04
28
10
00
00
3C
46
C2
83
83
82
46
2C
10
ENDCHAR
STARTCHAR 01D3
ENCODING 467
SWIDTH 668 0
DWIDTH 13 0
BBX 13 18 1 -1
BITMAP
0880
0700
0200
0000
F8F8
6020
6020
6020
6020
6020
6020
6020
6020
6020
2020
3040
1D80
0200
ENDCHAR
STARTCHAR 01D4
ENCODING 468
SWIDTH 462 0
DWIDTH 9 0
BBX 9 13 0 0
BITMAP
0200
1400
0800
0000
0000
E700
2100
2100
2100
2100
2100
2300
1D80
ENDCHAR
STARTCHAR 01D5
ENCODING 469
SWIDTH 668 0
DWIDTH 13 0
BBX 13 20 1 -1
BITMAP
1F80
0000
0000
1980
1000
0000
F8F8
6020
6020
6020
6020
6020
6020
6020
6020
6020
2020
3040
1D80
0200
ENDCHAR
STARTCHAR 01D6
ENCODING 470
SWIDTH 462 0
DWIDTH 9 0
BBX 9 14 0 0
BITMAP
3E00
0000
3200
3300
0000
0000
E700
2100
2100
2100
2100
2100
2300
1D80
ENDCHAR
STARTCHAR 01D7
ENCODING 471
SWIDTH 668 0
DWIDTH 13 0
BBX 13 22 1 -1
BITMAP
0080
0180
0600
0800
0000
1980
1000
0000
F8F8
6020
6020
6020
6020
6020
6020
6020
6020
6020
2020
3040
1D80
0200
ENDCHAR
STARTCHAR 01D8
ENCODING 472
SWIDTH 462 0
DWIDTH 9 0
BBX 9 16 0 0
BITMAP
0600
0400
0400
0000
3200
3300
0000
0000
E700
2100
2100
2100
2100
2100
2300
1D80
ENDCHAR
STARTCHAR 01D9
ENCODING 473
SWIDTH 668 0
DWIDTH 13 0
BBX 13 21 1 -1
BITMAP
1100
0E00
0400
0000
1980
1000
0000
F8F8
6020
6020
6020
6020
6020
6020
6020
6020
6020
2020
3040
1D80
0200
ENDCHAR
STARTCHAR 01DA
ENCODING 474
SWIDTH 462 0
DWIDTH 9 0
BBX 9 16 0 0
BITMAP
0200
1400
0800
0000
3200
3300
0000
0000
E700
2100
2100
2100
2100
2100
2300
1D80
ENDCHAR
STARTCHAR 01DB
ENCODING 475
SWIDTH 668 0
DWIDTH 13 0
BBX 13 22 1 -1
BITMAP
1000
1800
0600
0100
0000
1980
1000
0000
F8F8
6020
6020
6020
6020
6020
6020
6020
6020
6020
2020
3040
1D80
0200
ENDCHAR
STARTCHAR 01DC
ENCODING 476
SWIDTH 462 0
DWIDTH 9 0
BBX 9 16 0 0
BITMAP
1000
0800
0800
0000
3200
3300
0000
0000
E700
2100
2100
2100
2100
2100
2300
1D80
ENDCHAR
STARTCHAR 01DD
ENCODING 477
SWIDTH 360 0
DWIDTH 7 0
BBX 6 9 1 -1
BITMAP
78
08
0C
04
04
FC
8C
48
30
ENDCHAR
STARTCHAR 01DE
ENCODING 478
SWIDTH 617 0
DWIDTH 12 0
BBX 13 19 0 0
BITMAP
1F80
0000
0000
0CC0
0800
0000
0200
0700
0700
0500
0980
0980
1080
1FC0
10C0
2040
2060
2060
F0F8
ENDCHAR
STARTCHAR 01DF
ENCODING 479
SWIDTH 360 0
DWIDTH 7 0
BBX 6 14 1 0
BITMAP
F8
00
C8
CC
00
00
78
98
98
18
78
98
98
EC
ENDCHAR
STARTCHAR 01E0
ENCODING 480
SWIDTH 617 0
DWIDTH 12 0
BBX 13 19 0 0
BITMAP
1F80
0000
0200
0600
0000
0000
0200
0700
0700
0500
0980
0980
1080
1FC0
10C0
2040
2060
2060
F0F8
ENDCHAR
STARTCHAR 01E1
ENCODING 481
SWIDTH 360 0
DWIDTH 7 0
BBX 6 14 1 0
BITMAP
F8
00
20
60
00
00
78
98
98
18
78
98
98
EC
ENDCHAR
STARTCHAR 01E2
ENCODING 482
SWIDTH 822 0
DWIDTH 16 0
BBX 16 16 -1 0
BITMAP
01F8
0000
0000
03FF
01C3
02C1
02C1
04C0
04C4
08C8
0FF8
10C4
10C0
20C0
20C1
F3FF
ENDCHAR
STARTCHAR 01E3
ENCODING 483
SWIDTH 514 0
DWIDTH 10 0
BBX 10 11 0 0
BITMAP
1F00
0000
0000
3BC0
4C40
CF80
0C00
3C00
4C00
4E00
77C0
ENDCHAR
STARTCHAR 01E4
ENCODING 484
SWIDTH 668 0
DWIDTH 13 0
BBX 12 14 1 -1
BITMAP
0F80
3060
6020
4020
C000
C000
C000
C1F0
C040
C040
61F0
3040
1DE0
0200
ENDCHAR
STARTCHAR 01E5
ENCODING 485
SWIDTH 411 0
DWIDTH 8 0
BBX 9 13 0 -5
BITMAP
3C00
6300
4200
4200
6600
3800
4000
7E00
3F80
4180
FF80
4100
7E00
ENDCHAR
STARTCHAR 01E6
ENCODING 486
SWIDTH 668 0
DWIDTH 13 0
BBX 12 18 1 -1
BITMAP
1100
0E00
0400
0000
0F80
3060
6020
4020
C000
C000
C000
C000
C1F0
C040
6040
3040
1DE0
0200
ENDCHAR
STARTCHAR 01E7
ENCODING 487
SWIDTH 411 0
DWIDTH 8 0
BBX 8 18 1 -5
BITMAP
08
50
20
00
00
78
C6
84
84
CC
70
80
FC
7F
83
81
82
FC
ENDCHAR
STARTCHAR 01E8
ENCODING 488
SWIDTH 617 0
DWIDTH 12 0
BBX 12 17 1 0
BITMAP
2200
1C00
0800
0000
F9C0
6180
2100
2200
2400
2800
3800
2C00
2600
2300
2300
6180
FBF0
ENDCHAR
STARTCHAR 01E9
ENCODING 489
SWIDTH 462 0
DWIDTH 9 0
BBX 9 18 0 0
BITMAP
8800
7000
2000
0000
0000
6000
2000
2000
2000
2000
2780
2200
2400
3800
2C00
2600
2300
7380
ENDCHAR
STARTCHAR 01EA
ENCODING 490
SWIDTH 668 0
DWIDTH 13 0
BBX 12 17 1 -4
BITMAP
0F00
3080
6040
4060
C020
C030
C030
C030
C030
C020
6060
3040
1F80
0400
0800
0800
0E00
ENDCHAR
STARTCHAR 01EB
ENCODING 491
SWIDTH 462 0
DWIDTH 9 0
BBX 8 12 1 -4
BITMAP
3C
46
C2
83
83
82
46
2C
10
20
20
38
ENDCHAR
STARTCHAR 01EC
ENCODING 492
SWIDTH 668 0
DWIDTH 13 0
BBX 12 20 1 -4
BITMAP
3F00
0000
0000
0F00
3080
6040
4060
C020
C030
C030
C030
C030
C020
6060
3040
1F80
0400
0800
0800
0E00
ENDCHAR
STARTCHAR 01ED
ENCODING 493
SWIDTH 462 0
DWIDTH 9 0
BBX 8 15 1 -4
BITMAP
7C
00
00
3C
46
C2
83
83
82
46
2C
10
20
20
38
ENDCHAR
STARTCHAR 01EE
ENCODING 494
SWIDTH 462 0
DWIDTH 9 0
BBX 8 18 1 -1
BITMAP
44
38
10
00
7E
FE
84
08
10
3C
42
03
03
03
03
C6
EC
10
ENDCHAR
STARTCHAR 01EF
ENCODING 495
SWIDTH 411 0
DWIDTH 8 0
BBX 8 18 0 -5
BITMAP
02
14
08
00
00
7F
42
04
08
10
2E
03
01
01
01
03
C2
7C
ENDCHAR
STARTCHAR 01F0
ENCODING 496
SWIDTH 205 0
DWIDTH 4 0
BBX 6 18 -1 -5
BITMAP
04
28
10
00
00
10
30
10
10
10
10
10
10
10
10
10
10
E0
ENDCHAR
STARTCHAR 01F1
ENCODING 497
SWIDTH 1285 0
DWIDTH 25 0
BBX 25 13 1 0
BITMAP
FE03FF00
61C30300
20620600
20320C00
20300800
20301800
20103000
20302000
20306000
2030C000
20618080
60C10100
FF83FF00
ENDCHAR
STARTCHAR 01F2
ENCODING 498
SWIDTH 1028 0
DWIDTH 20 0
BBX 20 13 1 0
BITMAP
FE0000
61C000
206000
203000
203000
2033E0
201440
2030C0
203080
203180
206110
60C320
FF83E0
ENDCHAR
STARTCHAR 01F3
ENCODING 499
SWIDTH 822 0
DWIDTH 16 0
BBX 15 14 1 0
BITMAP
0200
0E00
0600
0600
0600
0600
3E7C
4688
8618
8610
8630
8622
C664
7F7C
ENDCHAR
STARTCHAR 01F4
ENCODING 500
SWIDTH 668 0
DWIDTH 13 0
BBX 12 19 1 -1
BITMAP
0080
0180
0600
0800
0000
0F80
3060
6020
4020
C000
C000
C000
C000
C1F0
C040
6040
3040
1DE0
0200
ENDCHAR
STARTCHAR 01F5
ENCODING 501
SWIDTH 411 0
DWIDTH 8 0
BBX 8 18 1 -5
BITMAP
18
10
10
00
00
78
C6
84
84
CC
70
80
FC
7F
83
81
82
FC
ENDCHAR
STARTCHAR 01F6
ENCODING 502
SWIDTH 925 0
DWIDTH 18 0
BBX 17 14 1 -1
BITMAP
F8F800
603000
203000
203000
203000
203000
3FF380
203180
203080
203080
203080
603180
F81B00
000400
ENDCHAR
STARTCHAR 01F7
ENCODING 503
SWIDTH 565 0
DWIDTH 11 0
BBX 10 18 0 -5
BITMAP
FFC0
3040
3040
3080
3100
3100
3200
3200
3400
3800
3800
3000
3000
3000
3000
3000
6000
4000
ENDCHAR
STARTCHAR 01F8
ENCODING 504
SWIDTH 668 0
DWIDTH 13 0
BBX 12 18 1 0
BITMAP
1000
1800
0600
0100
0000
C070
6020
7020
5820
4C20
4420
4620
4320
41A0
40E0
40E0
4060
F020
ENDCHAR
STARTCHAR 01F9
ENCODING 505
SWIDTH 462 0
DWIDTH 9 0
BBX 8 13 1 0
BITMAP
10
08
08
00
00
5C
E2
42
42
42
42
42
E7
ENDCHAR
STARTCHAR 01FA
ENCODING 506
SWIDTH 617 0
DWIDTH 12 0
BBX 13 21 0 0
BITMAP
0040
00C0
0300
0400
0000
0300
0500
0500
0200
0300
0700
0500
0980
0980
1080
1FC0
10C0
2040
2060
2060
F0F8
ENDCHAR
STARTCHAR 01FB
ENCODING 507
SWIDTH 360 0
DWIDTH 7 0
BBX 6 17 1 0
BITMAP
18
10
10
00
20
50
90
70
00
78
98
98
18
78
98
98
EC
ENDCHAR
STARTCHAR 01FC
ENCODING 508
SWIDTH 822 0
DWIDTH 16 0
BBX 16 18 -1 0
BITMAP
0004
000C
0030
0040
0000
03FF
01C3
02C1
02C1
04C0
04C4
08C8
0FF8
10C4
10C0
20C0
20C1
F3FF
ENDCHAR
STARTCHAR 01FD
ENCODING 509
SWIDTH 514 0
DWIDTH 10 0
BBX 10 13 0 0
BITMAP
0300
0200
0200
0000
0000
3BC0
4C40
CF80
0C00
3C00
4C00
4E00
77C0
ENDCHAR
STARTCHAR 01FE
ENCODING 510
SWIDTH 668 0
DWIDTH 13 0
BBX 12 18 1 0
BITMAP
0080
0180
0600
0800
0000
0F00
30A0
6040
40E0
C120
C130
C230
C430
C830
D020
6060
3040
5F80
ENDCHAR
STARTCHAR 01FF
ENCODING 511
SWIDTH 462 0
DWIDTH 9 0
BBX 8 14 1 -1
BITMAP
0C
08
08
00
00
3C
46
CA
93
A3
A2
46
AC
90
ENDCHAR
STARTCHAR 0200
ENCODING 512
SWIDTH 617 0
DWIDTH 12 0
BBX 13 18 0 0
BITMAP
1200
0900
0900
0000
0000
0200
0700
0700
0500
0980
0980
1080
1FC0
10C0
2040
2060
2060
F0F8
ENDCHAR
STARTCHAR 0201
ENCODING 513
SWIDTH 360 0
DWIDTH 7 0
BBX 7 13 0 0
BITMAP
90
48
48
00
00
3C
4C
4C
0C
3C
4C
4C
76
ENDCHAR
STARTCHAR 0202
ENCODING 514
SWIDTH 617 0
DWIDTH 12 0
BBX 13 17 0 0
BITMAP
0600
0980
0080
0000
0200
0700
0700
0500
0980
0980
1080
1FC0
10C0
2040
2060
2060
F0F8
ENDCHAR
STARTCHAR 0203
ENCODING 515
SWIDTH 360 0
DWIDTH 7 0
BBX 6 12 1 0
BITMAP
60
98
08
00
78
98
98
18
78
98
98
EC
ENDCHAR
STARTCHAR 0204
ENCODING 516
SWIDTH 565 0
DWIDTH 11 0
BBX 10 18 1 0
BITMAP
2800
1400
1400
0000
0000
FF80
6180
2080
2080
2000
2200
2200
3E00
2200
2000
2040
2040
FFC0
ENDCHAR
STARTCHAR 0205
ENCODING 517
SWIDTH 360 0
DWIDTH 7 0
BBX 6 13 1 0
BITMAP
A0
50
50
00
00
38
44
FC
80
80
C0
C0
78
ENDCHAR
STARTCHAR 0206
ENCODING 518
SWIDTH 565 0
DWIDTH 11 0
BBX 10 17 1 0
BITMAP
0C00
1300
0100
0000
FF80
6180
2080
2080
2000
2200
2200
3E00
2200
2000
2040
2040
FFC0
ENDCHAR
STARTCHAR 0207
ENCODING 519
SWIDTH 360 0
DWIDTH 7 0
BBX 6 12 1 0
BITMAP
30
4C
04
00
38
44
FC
80
80
C0
C0
78
ENDCHAR
STARTCHAR 0208
ENCODING 520
SWIDTH 308 0
DWIDTH 6 0
BBX 6 18 0 0
BITMAP
90
48
48
00
00
7C
30
10
10
10
10
10
10
10
10
10
30
7C
ENDCHAR
STARTCHAR 0209
ENCODING 521
SWIDTH 205 0
DWIDTH 4 0
BBX 5 13 -1 0
BITMAP
90
48
48
00
00
10
30
10
10
10
10
10
38
ENDCHAR
STARTCHAR 020A
ENCODING 522
SWIDTH 308 0
DWIDTH 6 0
BBX 5 17 1 0
BITMAP
60
98
08
00
F8
60
20
20
20
20
20
20
20
20
20
60
F8
ENDCHAR
STARTCHAR 020B
ENCODING 523
SWIDTH 205 0
DWIDTH 4 0
BBX 5 12 0 0
BITMAP
60
98
08
00
20
60
20
20
20
20
20
70
ENDCHAR
STARTCHAR 020C
ENCODING 524
SWIDTH 668 0
DWIDTH 13 0
BBX 12 18 1 0
BITMAP
2400
1200
1200
0000
0000
0F00
3080
6040
4060
C020
C030
C030
C030
C030
C020
6060
3040
1F80
ENDCHAR
STARTCHAR 020D
ENCODING 525
SWIDTH 462 0
DWIDTH 9 0
BBX 8 14 1 -1
BITMAP
90
48
48
00
00
3C
46
C2
83
83
82
46
2C
10
ENDCHAR
STARTCHAR 020E
ENCODING 526
SWIDTH 668 0
DWIDTH 13 0
BBX 12 17 1 0
BITMAP
0600
0980
0080
0000
0F00
3080
6040
4060
C020
C030
C030
C030
C030
C020
6060
3040
1F80
ENDCHAR
STARTCHAR 020F
ENCODING 527
SWIDTH 462 0
DWIDTH 9 0
BBX 8 13 1 -1
BITMAP
18
26
02
00
3C
46
C2
83
83
82
46
2C
10
ENDCHAR
STARTCHAR 0210
ENCODING 528
SWIDTH 668 0
DWIDTH 13 0
BBX 11 18 1 0
BITMAP
4800
2400
2400
0000
0000
FC00
6380
2080
20C0
20C0
2080
2300
3E00
2300
2300
2180
60C0
F860
ENDCHAR
STARTCHAR 0211
ENCODING 529
SWIDTH 308 0
DWIDTH 6 0
BBX 6 13 0 0
BITMAP
90
48
48
00
00
2C
74
20
20
20
20
20
70
ENDCHAR
STARTCHAR 0212
ENCODING 530
SWIDTH 668 0
DWIDTH 13 0
BBX 11 17 1 0
BITMAP
0C00
1300
0100
0000
FC00
6380
2080
20C0
20C0
2080
2300
3E00
2300
2300
2180
60C0
F860
ENDCHAR
STARTCHAR 0213
ENCODING 531
SWIDTH 308 0
DWIDTH 6 0
BBX 5 12 1 0
BITMAP
60
98
08
00
58
E8
40
40
40
40
40
E0
ENDCHAR
STARTCHAR 0214
ENCODING 532
SWIDTH 668 0
DWIDTH 13 0
BBX 13 19 1 -1
BITMAP
1400
0A00
0A00
0000
0000
F8F8
6020
6020
6020
6020
6020
6020
6020
6020
6020
2020
3040
1D80
0200
ENDCHAR
STARTCHAR 0215
ENCODING 533
SWIDTH 462 0
DWIDTH 9 0
BBX 9 13 0 0
BITMAP
4800
2400
2400
0000
0000
E700
2100
2100
2100
2100
2100
2300
1D80
ENDCHAR
STARTCHAR 0216
ENCODING 534
SWIDTH 668 0
DWIDTH 13 0
BBX 13 18 1 -1
BITMAP
0600
0980
0080
0000
F8F8
6020
6020
6020
6020
6020
6020
6020
6020
6020
2020
3040
1D80
0200
ENDCHAR
STARTCHAR 0217
ENCODING 535
SWIDTH 462 0
DWIDTH 9 0
BBX 9 12 0 0
BITMAP
0C00
1300
0100
0000
E700
2100
2100
2100
2100
2100
2300
1D80
ENDCHAR
STARTCHAR 0218
ENCODING 536
SWIDTH 462 0
DWIDTH 9 0
BBX 8 19 1 -6
BITMAP
3C
42
C2
C0
C0
70
3E
0E
03
83
83
C2
74
08
10
18
08
08
10
ENDCHAR
STARTCHAR 0219
ENCODING 537
SWIDTH 308 0
DWIDTH 6 0
BBX 5 14 1 -6
BITMAP
78
88
80
E0
38
08
88
D0
20
40
60
20
20
40
ENDCHAR
STARTCHAR 021A
ENCODING 538
SWIDTH 720 0
DWIDTH 14 0
BBX 14 19 0 -6
BITMAP
FFFC
C104
8104
8100
0100
0100
0100
0100
0100
0100
0100
0100
07C0
0000
0100
0180
0080
0080
0100
ENDCHAR
STARTCHAR 021B
ENCODING 539
SWIDTH 308 0
DWIDTH 6 0
BBX 5 15 1 -6
BITMAP
40
F8
40
40
40
40
40
40
78
00
20
30
10
10
20
ENDCHAR
STARTCHAR 021C
ENCODING 540
SWIDTH 462 0
DWIDTH 9 0
BBX 7 14 1 -1
BITMAP
B8
CC
84
84
04
08
1C
06
06
06
06
0C
18
E0
ENDCHAR
STARTCHAR 021D
ENCODING 541
SWIDTH 411 0
DWIDTH 8 0
BBX 6 13 1 -5
BITMAP
78
88
08
08
10
78
0C
0C
0C
08
08
10
E0
ENDCHAR
STARTCHAR 021E
ENCODING 542
SWIDTH 771 0
DWIDTH 15 0
BBX 13 17 1 0
BITMAP
0880
0700
0200
0000
F8F8
6030
2030
2030
2030
2030
3FF0
2030
2030
2030
2030
6030
F8F8
ENDCHAR
STARTCHAR 021F
ENCODING 543
SWIDTH 514 0
DWIDTH 10 0
BBX 8 18 1 0
BITMAP
22
1C
08
00
00
C0
40
40
40
40
5E
62
43
43
43
43
43
E3
ENDCHAR
STARTCHAR 0220
ENCODING 544
SWIDTH 617 0
DWIDTH 12 0
BBX 12 17 1 -4
BITMAP
6700
F880
6040
6060
6060
6060
6060
6060
6060
6060
6060
6060
F060
0060
0060
0060
00F0
ENDCHAR
STARTCHAR 0222
ENCODING 546
SWIDTH 514 0
DWIDTH 10 0
BBX 9 12 1 0
BITMAP
3300
4300
4100
6300
3600
1C00
2600
4300
C180
C180
6100
3E00
ENDCHAR
STARTCHAR 0223
ENCODING 547
SWIDTH 411 0
DWIDTH 8 0
BBX 7 13 1 -1
BITMAP
4C
84
84
C4
6C
38
7C
C6
86
82
C4
6C
10
ENDCHAR
STARTCHAR 0224
ENCODING 548
SWIDTH 565 0
DWIDTH 11 0
BBX 10 16 1 -3
BITMAP
FFC0
C0C0
8180
8300
0200
0600
0C00
0800
1800
3000
6000
4000
FF80
0040
0040
0040
ENDCHAR
STARTCHAR 0225
ENCODING 549
SWIDTH 308 0
DWIDTH 6 0
BBX 7 12 0 -4
BITMAP
7C
88
18
10
30
20
60
7C
02
02
02
04
ENDCHAR
STARTCHAR 0226
ENCODING 550
SWIDTH 617 0
DWIDTH 12 0
BBX 13 17 0 0
BITMAP
0200
0600
0000
0000
0200
0700
0700
0500
0980
0980
1080
1FC0
10C0
2040
2060
2060
F0F8
ENDCHAR
STARTCHAR 0227
ENCODING 551
SWIDTH 360 0
DWIDTH 7 0
BBX 6 12 1 0
BITMAP
20
60
00
00
78
98
98
18
78
98
98
EC
ENDCHAR
STARTCHAR 0228
ENCODING 552
SWIDTH 565 0
DWIDTH 11 0
BBX 10 18 1 -5
BITMAP
FF80
6180
2080
2080
2000
2200
2200
3E00
2200
2000
2040
2040
FFC0
1000
1800
0800
2800
1000
ENDCHAR
STARTCHAR 0229
ENCODING 553
SWIDTH 360 0
DWIDTH 7 0
BBX 6 13 1 -5
BITMAP
38
44
FC
80
80
C0
C0
78
20
30
10
50
20
ENDCHAR
STARTCHAR 022A
ENCODING 554
SWIDTH 668 0
DWIDTH 13 0
BBX 12 19 1 0
BITMAP
3F00
0000
0000
1980
1000
0000
0F00
3080
6040
4060
C020
C030
C030
C030
C030
C020
6060
3040
1F80
ENDCHAR
STARTCHAR 022B
ENCODING 555
SWIDTH 462 0
DWIDTH 9 0
BBX 8 15 1 -1
BITMAP
7C
00
64
66
00
00
3C
46
C2
83
83
82
46
2C
10
ENDCHAR
STARTCHAR 022C
ENCODING 556
SWIDTH 668 0
DWIDTH 13 0
BBX 12 19 1 0
BITMAP
3F00
0000
0000
1F80
0200
0000
0F00
3080
6040
4060
C020
C030
C030
C030
C030
C020
6060
3040
1F80
ENDCHAR
STARTCHAR 022D
ENCODING 557
SWIDTH 462 0
DWIDTH 9 0
BBX 8 15 1 -1
BITMAP
7C
00
00
7C
00
00
3C
46
C2
83
83
82
46
2C
10
ENDCHAR
STARTCHAR 022E
ENCODING 558
SWIDTH 668 0
DWIDTH 13 0
BBX 12 17 1 0
BITMAP
0400
0C00
0000
0000
0F00
3080
6040
4060
C020
C030
C030
C030
C030
C020
6060
3040
1F80
ENDCHAR
STARTCHAR 022F
ENCODING 559
SWIDTH 462 0
DWIDTH 9 0
BBX 8 13 1 -1
BITMAP
10
30
00
00
3C
46
C2
83
83
82
46
2C
10
ENDCHAR
STARTCHAR 0230
ENCODING 560
SWIDTH 668 0
DWIDTH 13 0
BBX 12 19 1 0
BITMAP
3F00
0000
0400
0C00
0000
0000
0F00
3080
6040
4060
C020
C030
C030
C030
C030
C020
6060
3040
1F80
ENDCHAR
STARTCHAR 0231
ENCODING 561
SWIDTH 462 0
DWIDTH 9 0
BBX 8 15 1 -1
BITMAP
7C
00
10
30
00
00
3C
46
C2
83
83
82
46
2C
10
ENDCHAR
STARTCHAR 0232
ENCODING 562
SWIDTH 565 0
DWIDTH 11 0
BBX 12 16 0 0
BITMAP
3F00
0000
0000
F0F0
6040
3040
3080
1900
0900
0E00
0600
0400
0400
0400
0400
1F00
ENDCHAR
STARTCHAR 0233
ENCODING 563
SWIDTH 360 0
DWIDTH 7 0
BBX 8 16 0 -5
BITMAP
7C
00
00
E7
42
64
24
24
38
18
10
10
10
20
20
C0
ENDCHAR
STARTCHAR 0237
ENCODING 567
SWIDTH 205 0
DWIDTH 4 0
BBX 4 13 -1 -5
BITMAP
10
30
10
10
10
10
10
10
10
10
10
10
E0
ENDCHAR
STARTCHAR 0248
ENCODING 584
SWIDTH 308 0
DWIDTH 6 0
BBX 7 17 -1 -4
BITMAP
3E
18
08
08
08
08
3E
08
08
08
08
08
08
08
08
D0
E0
ENDCHAR
STARTCHAR 0249
ENCODING 585
SWIDTH 205 0
DWIDTH 4 0
BBX 6 17 -1 -5
BITMAP
10
30
00
00
10
30
10
7C
10
10
10
10
10
10
10
10
E0
ENDCHAR
STARTCHAR 0250
ENCODING 592
SWIDTH 360 0
DWIDTH 7 0
BBX 6 9 1 -1
BITMAP
DC
6C
4C
48
70
44
44
68
10
ENDCHAR
STARTCHAR 0251
ENCODING 593
SWIDTH 462 0
DWIDTH 9 0
BBX 8 8 1 0
BITMAP
3E
46
86
86
86
86
C6
7B
ENDCHAR
STARTCHAR 0252
ENCODING 594
SWIDTH 462 0
DWIDTH 9 0
BBX 9 9 0 -1
BITMAP
EF00
3300
2180
2180
2080
2180
2100
3200
0C00
ENDCHAR
STARTCHAR 0253
ENCODING 595
SWIDTH 462 0
DWIDTH 9 0
BBX 8 15 1 -1
BITMAP
10
78
40
40
40
C0
FC
C6
C2
C3
C3
C2
C2
E4
18
ENDCHAR
STARTCHAR 0254
ENCODING 596
SWIDTH 360 0
DWIDTH 7 0
BBX 6 9 1 -1
BITMAP
78
0C
0C
04
04
04
88
D0
20
ENDCHAR
STARTCHAR 0255
ENCODING 597
SWIDTH 411 0
DWIDTH 8 0
BBX 7 10 1 -2
BITMAP
3C
44
C0
80
80
DC
E2
7C
40
80
ENDCHAR
STARTCHAR 0256
ENCODING 598
SWIDTH 462 0
DWIDTH 9 0
BBX 10 19 1 -5
BITMAP
0200
0E00
0600
0600
0600
0600
3E00
4600
8600
8600
8600
8600
C600
7E00
0600
0200
0200
0200
01C0
ENDCHAR
STARTCHAR 0257
ENCODING 599
SWIDTH 462 0
DWIDTH 9 0
BBX 10 14 1 0
BITMAP
0080
03C0
0200
0200
0600
0600
3E00
4600
8600
8600
8600
8600
C600
7F00
ENDCHAR
STARTCHAR 0258
ENCODING 600
SWIDTH 360 0
DWIDTH 7 0
BBX 6 8 1 0
BITMAP
70
88
FC
04
04
0C
08
78
ENDCHAR
STARTCHAR 0259
ENCODING 601
SWIDTH 360 0
DWIDTH 7 0
BBX 6 9 1 -1
BITMAP
78
08
0C
04
04
FC
8C
48
30
ENDCHAR
STARTCHAR 025A
ENCODING 602
SWIDTH 514 0
DWIDTH 10 0
BBX 8 9 1 -1
BITMAP
78
08
0C
05
1F
E5
8C
48
30
ENDCHAR
STARTCHAR 025B
ENCODING 603
SWIDTH 308 0
DWIDTH 6 0
BBX 5 8 1 0
BITMAP
78
88
80
E0
80
80
80
F8
ENDCHAR
STARTCHAR 025C
ENCODING 604
SWIDTH 308 0
DWIDTH 6 0
BBX 5 8 1 0
BITMAP
F0
88
08
78
08
08
08
F8
ENDCHAR
STARTCHAR 025D
ENCODING 605
SWIDTH 462 0
DWIDTH 9 0
BBX 7 8 1 0
BITMAP
F0
8E
0A
7A
08
08
08
F8
ENDCHAR
STARTCHAR 025E
ENCODING 606
SWIDTH 360 0
DWIDTH 7 0
BBX 7 8 0 0
BITMAP
3C
44
46
DC
C4
C6
46
7C
ENDCHAR
STARTCHAR 025F
ENCODING 607
SWIDTH 205 0
DWIDTH 4 0
BBX 6 13 -1 -5
BITMAP
10
30
10
7C
10
10
10
10
10
10
10
10
E0
ENDCHAR
STARTCHAR 0260
ENCODING 608
SWIDTH 411 0
DWIDTH 8 0
BBX 10 15 1 -5
BITMAP
0080
03C0
7E00
C600
C600
8600
8600
C600
C600
6E00
1600
0400
0400
4400
7800
ENDCHAR
STARTCHAR 0261
ENCODING 609
SWIDTH 411 0
DWIDTH 8 0
BBX 7 13 1 -5
BITMAP
7E
C6
C6
86
86
C6
C6
6E
16
04
04
44
78
ENDCHAR
STARTCHAR 0262
ENCODING 610
SWIDTH 411 0
DWIDTH 8 0
BBX 7 9 1 -1
BITMAP
3C
C2
80
80
80
86
C6
66
18
ENDCHAR
STARTCHAR 0263
ENCODING 611
SWIDTH 360 0
DWIDTH 7 0
BBX 8 13 0 -5
BITMAP
F7
64
24
34
38
18
18
08
18
18
24
24
1C
ENDCHAR
STARTCHAR 0264
ENCODING 612
SWIDTH 462 0
DWIDTH 9 0
BBX 10 9 0 -1
BITMAP
6180
B280
9C40
0800
0C00
1400
1600
1400
0800
ENDCHAR
STARTCHAR 0265
ENCODING 613
SWIDTH 514 0
DWIDTH 10 0
BBX 9 13 1 -5
BITMAP
E780
4300
4300
4300
4300
4300
6300
3F00
0300
0300
0300
0300
0200
ENDCHAR
STARTCHAR 0266
ENCODING 614
SWIDTH 514 0
DWIDTH 10 0
BBX 8 14 1 0
BITMAP
0E
36
40
40
40
40
5C
62
43
43
43
43
43
E3
ENDCHAR
STARTCHAR 0267
ENCODING 615
SWIDTH 514 0
DWIDTH 10 0
BBX 8 19 1 -5
BITMAP
0E
36
40
40
40
40
5C
62
43
43
43
43
43
E3
03
02
02
02
1C
ENDCHAR
STARTCHAR 0268
ENCODING 616
SWIDTH 205 0
DWIDTH 4 0
BBX 4 13 1 0
BITMAP
C0
40
00
00
00
40
C0
40
40
F0
40
40
E0
ENDCHAR
STARTCHAR 0269
ENCODING 617
SWIDTH 205 0
DWIDTH 4 0
BBX 4 8 1 0
BITMAP
40
C0
40
40
40
40
40
70
ENDCHAR
STARTCHAR 026A
ENCODING 618
SWIDTH 205 0
DWIDTH 4 0
BBX 3 8 1 0
BITMAP
E0
40
40
40
40
40
40
E0
ENDCHAR
STARTCHAR 026B
ENCODING 619
SWIDTH 205 0
DWIDTH 4 0
BBX 4 13 1 0
BITMAP
C0
40
40
40
40
D0
60
40
40
40
40
40
E0
ENDCHAR
STARTCHAR 026C
ENCODING 620
SWIDTH 205 0
DWIDTH 4 0
BBX 5 13 -1 0
BITMAP
30
10
10
10
10
70
90
78
10
10
10
10
38
ENDCHAR
STARTCHAR 026D
ENCODING 621
SWIDTH 205 0
DWIDTH 4 0
BBX 5 18 1 -5
BITMAP
C0
40
40
40
40
40
40
40
40
40
40
40
40
40
40
40
40
38
ENDCHAR
STARTCHAR 026E
ENCODING 622
SWIDTH 565 0
DWIDTH 11 0
BBX 10 18 1 -5
BITMAP
C000
4000
4000
4000
4000
7FC0
4080
4100
4200
4400
5B80
40C0
E0C0
0040
00C0
00C0
3080
1F00
ENDCHAR
STARTCHAR 026F
ENCODING 623
SWIDTH 720 0
DWIDTH 14 0
BBX 13 8 1 0
BITMAP
E738
4210
4210
4210
4210
4210
4638
39D0
ENDCHAR
STARTCHAR 0270
ENCODING 624
SWIDTH 720 0
DWIDTH 14 0
BBX 13 13 1 -5
BITMAP
E738
4210
4210
4210
4210
4210
4630
39D0
0010
0010
0010
0018
0010
ENDCHAR
STARTCHAR 0271
ENCODING 625
SWIDTH 720 0
DWIDTH 14 0
BBX 12 12 1 -4
BITMAP
5CE0
E310
4210
4210
4210
4210
4210
E710
0010
0010
0010
00E0
ENDCHAR
STARTCHAR 0272
ENCODING 626
SWIDTH 462 0
DWIDTH 9 0
BBX 10 13 -1 -5
BITMAP
1700
3880
1080
1080
1080
1080
1080
11C0
1000
1000
1000
1000
E000
ENDCHAR
STARTCHAR 0273
ENCODING 627
SWIDTH 462 0
DWIDTH 9 0
BBX 10 13 1 -5
BITMAP
5C00
E200
4200
4200
4200
4200
4200
E200
0200
0200
0200
0200
01C0
ENDCHAR
STARTCHAR 0274
ENCODING 628
SWIDTH 411 0
DWIDTH 8 0
BBX 9 8 0 0
BITMAP
E380
6100
5100
5900
4D00
4700
4300
6100
ENDCHAR
STARTCHAR 0275
ENCODING 629
SWIDTH 462 0
DWIDTH 9 0
BBX 8 9 1 -1
BITMAP
3C
46
C2
83
FF
82
46
2C
10
ENDCHAR
STARTCHAR 0276
ENCODING 630
SWIDTH 668 0
DWIDTH 13 0
BBX 12 8 1 0
BITMAP
3FE0
C220
8240
8240
83C0
8200
C210
3FF0
ENDCHAR
STARTCHAR 0277
ENCODING 631
SWIDTH 617 0
DWIDTH 12 0
BBX 10 9 1 -1
BITMAP
2100
40C0
8C40
8C40
8C40
8840
C440
5A80
2100
ENDCHAR
STARTCHAR 0278
ENCODING 632
SWIDTH 462 0
DWIDTH 9 0
BBX 8 17 1 -5
BITMAP
18
10
10
10
3C
56
D2
93
93
92
56
3C
10
10
10
10
08
ENDCHAR
STARTCHAR 0279
ENCODING 633
SWIDTH 308 0
DWIDTH 6 0
BBX 6 8 0 0
BITMAP
3C
08
08
08
08
08
5C
E8
ENDCHAR
STARTCHAR 027A
ENCODING 634
SWIDTH 308 0
DWIDTH 6 0
BBX 6 13 0 0
BITMAP
3C
08
08
08
08
08
08
08
08
08
08
58
E8
ENDCHAR
STARTCHAR 027B
ENCODING 635
SWIDTH 308 0
DWIDTH 6 0
BBX 8 12 0 -4
BITMAP
3C
08
08
08
08
08
58
E8
08
08
08
07
ENDCHAR
STARTCHAR 027C
ENCODING 636
SWIDTH 308 0
DWIDTH 6 0
BBX 5 14 1 -6
BITMAP
58
E8
40
40
40
40
40
40
40
40
40
40
C0
20
ENDCHAR
STARTCHAR 027D
ENCODING 637
SWIDTH 308 0
DWIDTH 6 0
BBX 5 13 1 -5
BITMAP
58
E8
40
40
40
40
40
40
40
40
40
40
38
ENDCHAR
STARTCHAR 027E
ENCODING 638
SWIDTH 308 0
DWIDTH 6 0
BBX 5 8 1 0
BITMAP
38
68
40
40
40
40
40
E0
ENDCHAR
STARTCHAR 027F
ENCODING 639
SWIDTH 308 0
DWIDTH 6 0
BBX 6 8 0 0
BITMAP
E0
50
08
08
08
08
08
1C
ENDCHAR
STARTCHAR 0280
ENCODING 640
SWIDTH 411 0
DWIDTH 8 0
BBX 9 9 0 -1
BITMAP
FC00
2200
2200
2200
3C00
2400
2200
7300
0080
ENDCHAR
STARTCHAR 0281
ENCODING 641
SWIDTH 411 0
DWIDTH 8 0
BBX 8 9 0 -1
BITMAP
F1
62
64
6C
76
62
62
64
18
ENDCHAR
STARTCHAR 0282
ENCODING 642
SWIDTH 308 0
DWIDTH 6 0
BBX 5 10 1 -2
BITMAP
78
88
80
E0
38
08
08
D0
A0
70
ENDCHAR
STARTCHAR 0283
ENCODING 643
SWIDTH 205 0
DWIDTH 4 0
BBX 7 19 -1 -5
BITMAP
06
0A
10
10
10
10
10
10
10
10
10
10
10
10
10
10
10
10
E0
ENDCHAR
STARTCHAR 0284
ENCODING 644
SWIDTH 257 0
DWIDTH 5 0
BBX 9 19 -2 -5
BITMAP
0100
0780
0400
0400
0400
0C00
0C00
0C00
0C00
0C00
0C00
0C00
1E00
0C00
0C00
0C00
0800
8800
F000
ENDCHAR
STARTCHAR 0285
ENCODING 645
SWIDTH 205 0
DWIDTH 4 0
BBX 7 12 -1 0
BITMAP
C0
A0
10
10
10
10
10
10
10
10
10
0E
ENDCHAR
STARTCHAR 0286
ENCODING 646
SWIDTH 205 0
DWIDTH 4 0
BBX 7 19 -1 -6
BITMAP
0E
10
10
10
10
10
10
10
10
10
10
10
10
10
10
F0
90
A0
40
ENDCHAR
STARTCHAR 0287
ENCODING 647
SWIDTH 308 0
DWIDTH 6 0
BBX 5 9 1 -1
BITMAP
E0
30
30
30
30
30
30
F8
20
ENDCHAR
STARTCHAR 0288
ENCODING 648
SWIDTH 308 0
DWIDTH 6 0
BBX 5 14 1 -5
BITMAP
40
F8
40
40
40
40
40
40
40
40
40
40
40
78
ENDCHAR
STARTCHAR 0289
ENCODING 649
SWIDTH 462 0
DWIDTH 9 0
BBX 9 8 0 0
BITMAP
E700
2100
2100
7F80
2100
2100
2300
1D80
ENDCHAR
STARTCHAR 028A
ENCODING 650
SWIDTH 462 0
DWIDTH 9 0
BBX 9 9 0 -1
BITMAP
E380
2300
6100
4100
4100
4100
2300
3600
0800
ENDCHAR
STARTCHAR 028B
ENCODING 651
SWIDTH 462 0
DWIDTH 9 0
BBX 8 9 1 -1
BITMAP
46
C6
43
43
43
43
42
24
18
ENDCHAR
STARTCHAR 028C
ENCODING 652
SWIDTH 360 0
DWIDTH 7 0
BBX 7 8 1 0
BITMAP
20
30
50
58
48
88
8C
8E
ENDCHAR
STARTCHAR 028D
ENCODING 653
SWIDTH 617 0
DWIDTH 12 0
BBX 11 8 1 0
BITMAP
2100
3180
5280
5A80
4CC0
8C40
8C60
8E60
ENDCHAR
STARTCHAR 028E
ENCODING 654
SWIDTH 360 0
DWIDTH 7 0
BBX 8 13 0 0
BITMAP
06
04
08
08
10
18
18
28
2C
44
44
46
C7
ENDCHAR
STARTCHAR 028F
ENCODING 655
SWIDTH 411 0
DWIDTH 8 0
BBX 8 8 0 0
BITMAP
E7
62
24
38
18
18
18
38
ENDCHAR
STARTCHAR 0290
ENCODING 656
SWIDTH 308 0
DWIDTH 6 0
BBX 10 13 0 -5
BITMAP
7C00
8800
1800
1000
3000
2200
6200
7E00
0600
0600
0200
02C0
0180
ENDCHAR
STARTCHAR 0291
ENCODING 657
SWIDTH 411 0
DWIDTH 8 0
BBX 8 9 0 -1
BITMAP
7C
88
18
10
30
26
69
7E
10
ENDCHAR
STARTCHAR 0292
ENCODING 658
SWIDTH 411 0
DWIDTH 8 0
BBX 8 13 0 -5
BITMAP
7F
42
04
08
10
2E
03
01
01
01
03
C2
7C
ENDCHAR
STARTCHAR 0293
ENCODING 659
SWIDTH 411 0
DWIDTH 8 0
BBX 8 14 0 -6
BITMAP
7F
42
04
08
10
2E
03
01
01
7D
83
82
6E
10
ENDCHAR
STARTCHAR 0294
ENCODING 660
SWIDTH 360 0
DWIDTH 7 0
BBX 7 14 0 0
BITMAP
18
66
C2
42
42
02
06
1C
18
18
18
18
18
18
ENDCHAR
STARTCHAR 0295
ENCODING 661
SWIDTH 360 0
DWIDTH 7 0
BBX 7 14 0 0
BITMAP
18
66
42
C2
C2
40
60
38
18
18
18
18
18
18
ENDCHAR
STARTCHAR 0296
ENCODING 662
SWIDTH 360 0
DWIDTH 7 0
BBX 7 15 0 -1
BITMAP
24
18
18
18
18
18
18
0C
06
02
42
C2
46
6C
10
ENDCHAR
STARTCHAR 0297
ENCODING 663
SWIDTH 360 0
DWIDTH 7 0
BBX 6 13 1 -5
BITMAP
3C
44
C0
80
80
80
80
80
80
80
C0
C0
7C
ENDCHAR
STARTCHAR 0298
ENCODING 664
SWIDTH 720 0
DWIDTH 14 0
BBX 13 15 1 -1
BITMAP
0F00
10C0
2060
6030
C030
C018
C218
C618
C018
C010
6030
6020
3060
1D80
0200
ENDCHAR
STARTCHAR 0299
ENCODING 665
SWIDTH 411 0
DWIDTH 8 0
BBX 7 9 0 -1
BITMAP
FC
26
26
2C
36
22
22
74
08
ENDCHAR
STARTCHAR 029A
ENCODING 666
SWIDTH 360 0
DWIDTH 7 0
BBX 7 8 0 0
BITMAP
3C
44
46
76
46
C6
C4
7C
ENDCHAR
STARTCHAR 029B
ENCODING 667
SWIDTH 462 0
DWIDTH 9 0
BBX 10 12 1 -1
BITMAP
01C0
0200
0200
3E00
4200
8000
8000
8700
8200
C200
3700
0800
ENDCHAR
STARTCHAR 029C
ENCODING 668
SWIDTH 514 0
DWIDTH 10 0
BBX 9 8 1 0
BITMAP
E780
4300
4300
4300
7F00
4300
4300
E780
ENDCHAR
STARTCHAR 029D
ENCODING 669
SWIDTH 205 0
DWIDTH 4 0
BBX 5 19 -1 -6
BITMAP
30
10
00
00
00
10
30
10
10
10
10
10
10
10
38
D0
90
A0
40
ENDCHAR
STARTCHAR 029E
ENCODING 670
SWIDTH 462 0
DWIDTH 9 0
BBX 9 13 0 -5
BITMAP
F780
3100
1900
0D00
0700
0900
1100
7100
0100
0100
0100
0180
0100
ENDCHAR
STARTCHAR 029F
ENCODING 671
SWIDTH 411 0
DWIDTH 8 0
BBX 8 9 0 -1
BITMAP
F0
20
20
20
20
20
21
77
08
ENDCHAR
STARTCHAR 02A0
ENCODING 672
SWIDTH 411 0
DWIDTH 8 0
BBX 10 15 1 -5
BITMAP
03C0
0200
7E00
C600
C600
8600
8600
C600
C600
6E00
1600
0600
0600
0600
0600
ENDCHAR
STARTCHAR 02A1
ENCODING 673
SWIDTH 360 0
DWIDTH 7 0
BBX 7 14 0 0
BITMAP
18
66
C2
42
42
02
06
1C
7E
18
18
18
18
18
ENDCHAR
STARTCHAR 02A2
ENCODING 674
SWIDTH 360 0
DWIDTH 7 0
BBX 7 14 0 0
BITMAP
18
66
42
C2
C2
40
60
38
7E
18
18
18
18
18
ENDCHAR
STARTCHAR 02A3
ENCODING 675
SWIDTH 720 0
DWIDTH 14 0
BBX 13 14 1 0
BITMAP
0200
0E00
0600
0600
0600
0600
3FF0
4630
8620
8660
8640
86C8
C688
7FF8
ENDCHAR
STARTCHAR 02A4
ENCODING 676
SWIDTH 822 0
DWIDTH 16 0
BBX 14 19 1 -5
BITMAP
0200
0E00
0600
0600
0600
0600
3FFC
4608
8610
8620
8640
86B8
C60C
7F04
0004
0004
000C
0308
01F0
ENDCHAR
STARTCHAR 02A5
ENCODING 677
SWIDTH 771 0
DWIDTH 15 0
BBX 14 16 1 -2
BITMAP
0200
0E00
0600
0600
0600
0600
3FF0
4630
8620
8640
86C0
8698
C7A4
7FFC
0040
0040
ENDCHAR
STARTCHAR 02A6
ENCODING 678
SWIDTH 462 0
DWIDTH 9 0
BBX 8 10 1 -1
BITMAP
40
FF
50
58
4E
47
41
41
61
1E
ENDCHAR
STARTCHAR 02A7
ENCODING 679
SWIDTH 411 0
DWIDTH 8 0
BBX 9 19 1 -5
BITMAP
0180
0680
0400
0400
0400
4400
FC00
4400
4400
4400
4400
4400
4400
7C00
0400
0400
0400
0800
3800
ENDCHAR
STARTCHAR 02A8
ENCODING 680
SWIDTH 617 0
DWIDTH 12 0
BBX 11 9 1 0
BITMAP
4000
FBC0
4440
4C00
4800
4800
4DE0
4E20
7FC0
ENDCHAR
STARTCHAR 02A9
ENCODING 681
SWIDTH 720 0
DWIDTH 14 0
BBX 12 19 1 -5
BITMAP
0E00
3600
4000
4000
4000
4000
FEE0
4310
4210
4210
4210
4210
4210
E710
0010
0010
0010
0010
00E0
ENDCHAR
STARTCHAR 02AA
ENCODING 682
SWIDTH 462 0
DWIDTH 9 0
BBX 8 14 1 -1
BITMAP
C0
40
40
40
40
5E
51
50
5C
46
43
61
F2
0C
ENDCHAR
STARTCHAR 02AB
ENCODING 683
SWIDTH 462 0
DWIDTH 9 0
BBX 8 13 1 0
BITMAP
C0
40
40
40
40
7F
62
46
44
4C
49
59
FF
ENDCHAR
STARTCHAR 02AC
ENCODING 684
SWIDTH 462 0
DWIDTH 9 0
BBX 10 13 0 0
BITMAP
EDC0
4D00
4D00
3500
3200
3200
0000
CC80
4D00
4D00
3500
3200
0200
ENDCHAR
STARTCHAR 02AD
ENCODING 685
SWIDTH 462 0
DWIDTH 9 0
BBX 8 9 1 0
BITMAP
FF
81
81
81
00
FF
FF
81
81
ENDCHAR
STARTCHAR 02B0
ENCODING 688
SWIDTH 308 0
DWIDTH 6 0
BBX 5 9 1 4
BITMAP
80
80
80
A0
D0
90
90
90
08
ENDCHAR
STARTCHAR 02B1
ENCODING 689
SWIDTH 308 0
DWIDTH 6 0
BBX 4 8 1 5
BITMAP
70
80
80
A0
D0
90
90
90
ENDCHAR
STARTCHAR 02B2
ENCODING 690
SWIDTH 102 0
DWIDTH 2 0
BBX 3 11 -1 2
BITMAP
20
00
00
20
20
20
20
20
20
20
C0
ENDCHAR
STARTCHAR 02B3
ENCODING 691
SWIDTH 154 0
DWIDTH 3 0
BBX 3 5 1 5
BITMAP
A0
C0
80
80
80
ENDCHAR
STARTCHAR 02B4
ENCODING 692
SWIDTH 154 0
DWIDTH 3 0
BBX 4 5 0 5
BITMAP
E0
40
40
40
70
ENDCHAR
STARTCHAR 02B5
ENCODING 693
SWIDTH 154 0
DWIDTH 3 0
BBX 5 8 0 2
BITMAP
70
20
20
20
E0
20
20
18
ENDCHAR
STARTCHAR 02B6
ENCODING 694
SWIDTH 257 0
DWIDTH 5 0
BBX 5 6 0 4
BITMAP
C8
50
60
50
50
20
ENDCHAR
STARTCHAR 02B7
ENCODING 695
SWIDTH 360 0
DWIDTH 7 0
BBX 8 5 0 5
BITMAP
DB
5A
5C
6C
24
ENDCHAR
STARTCHAR 02B8
ENCODING 696
SWIDTH 205 0
DWIDTH 4 0
BBX 5 8 0 2
BITMAP
D8
90
50
60
20
40
40
C0
ENDCHAR
STARTCHAR 02B9
ENCODING 697
SWIDTH 257 0
DWIDTH 5 0
BBX 2 3 2 10
BITMAP
C0
80
80
ENDCHAR
STARTCHAR 02BA
ENCODING 698
SWIDTH 360 0
DWIDTH 7 0
BBX 5 3 1 10
BITMAP
D8
90
90
ENDCHAR
STARTCHAR 02BB
ENCODING 699
SWIDTH 154 0
DWIDTH 3 0
BBX 2 5 1 9
BITMAP
40
80
80
80
C0
ENDCHAR
STARTCHAR 02BC
ENCODING 700
SWIDTH 154 0
DWIDTH 3 0
BBX 2 5 1 9
BITMAP
80
C0
40
40
80
ENDCHAR
STARTCHAR 02BD
ENCODING 701
SWIDTH 154 0
DWIDTH 3 0
BBX 2 4 1 10
BITMAP
C0
C0
80
80
ENDCHAR
STARTCHAR 02BE
ENCODING 702
SWIDTH 154 0
DWIDTH 3 0
BBX 2 5 1 9
BITMAP
40
40
40
40
80
ENDCHAR
STARTCHAR 02BF
ENCODING 703
SWIDTH 154 0
DWIDTH 3 0
BBX 3 5 0 9
BITMAP
40
40
80
40
20
ENDCHAR
STARTCHAR 02C0
ENCODING 704
SWIDTH 205 0
DWIDTH 4 0
BBX 4 8 0 5
BITMAP
F0
90
10
10
20
20
20
20
ENDCHAR
STARTCHAR 02C1
ENCODING 705
SWIDTH 205 0
DWIDTH 4 0
BBX 4 8 0 5
BITMAP
70
80
80
40
20
20
20
20
ENDCHAR
STARTCHAR 02C2
ENCODING 706
SWIDTH 257 0
DWIDTH 5 0
BBX 4 4 1 5
BITMAP
20
C0
40
30
ENDCHAR
STARTCHAR 02C3
ENCODING 707
SWIDTH 257 0
DWIDTH 5 0
BBX 5 5 0 5
BITMAP
80
60
18
30
C0
ENDCHAR
STARTCHAR 02C4
ENCODING 708
SWIDTH 257 0
DWIDTH 5 0
BBX 5 4 0 5
BITMAP
20
50
50
88
ENDCHAR
STARTCHAR 02C5
ENCODING 709
SWIDTH 257 0
DWIDTH 5 0
BBX 4 4 1 5
BITMAP
10
A0
A0
40
ENDCHAR
STARTCHAR 02C6
ENCODING 710
SWIDTH 360 0
DWIDTH 7 0
BBX 4 4 1 9
BITMAP
20
50
90
80
ENDCHAR
STARTCHAR 02C7
ENCODING 711
SWIDTH 360 0
DWIDTH 7 0
BBX 4 3 2 10
BITMAP
10
A0
40
ENDCHAR
STARTCHAR 02C8
ENCODING 712
SWIDTH 154 0
DWIDTH 3 0
BBX 1 4 1 9
BITMAP
80
80
80
80
ENDCHAR
STARTCHAR 02C9
ENCODING 713
SWIDTH 257 0
DWIDTH 5 0
BBX 5 1 0 10
BITMAP
F8
ENDCHAR
STARTCHAR 02CA
ENCODING 714
SWIDTH 257 0
DWIDTH 5 0
BBX 2 3 2 10
BITMAP
C0
80
80
ENDCHAR
STARTCHAR 02CB
ENCODING 715
SWIDTH 257 0
DWIDTH 5 0
BBX 2 3 2 10
BITMAP
80
40
40
ENDCHAR
STARTCHAR 02CC
ENCODING 716
SWIDTH 154 0
DWIDTH 3 0
BBX 1 3 1 -2
BITMAP
80
80
80
ENDCHAR
STARTCHAR 02CD
ENCODING 717
SWIDTH 462 0
DWIDTH 9 0
BBX 4 1 3 -2
BITMAP
F0
ENDCHAR
STARTCHAR 02CE
ENCODING 718
SWIDTH 257 0
DWIDTH 5 0
BBX 5 3 0 -4
BITMAP
C0
60
18
ENDCHAR
STARTCHAR 02CF
ENCODING 719
SWIDTH 257 0
DWIDTH 5 0
BBX 5 4 0 -5
BITMAP
08
30
60
80
ENDCHAR
STARTCHAR 02D0
ENCODING 720
SWIDTH 257 0
DWIDTH 5 0
BBX 2 6 1 1
BITMAP
C0
40
00
00
40
40
ENDCHAR
STARTCHAR 02D1
ENCODING 721
SWIDTH 257 0
DWIDTH 5 0
BBX 2 2 2 5
BITMAP
C0
40
ENDCHAR
STARTCHAR 02D2
ENCODING 722
SWIDTH 154 0
DWIDTH 3 0
BBX 2 5 1 5
BITMAP
C0
40
40
40
C0
ENDCHAR
STARTCHAR 02D3
ENCODING 723
SWIDTH 154 0
DWIDTH 3 0
BBX 3 5 0 5
BITMAP
60
40
80
40
60
ENDCHAR
STARTCHAR 02D4
ENCODING 724
SWIDTH 462 0
DWIDTH 9 0
BBX 7 4 1 3
BITMAP
10
10
10
FE
ENDCHAR
STARTCHAR 02D5
ENCODING 725
SWIDTH 462 0
DWIDTH 9 0
BBX 7 4 1 0
BITMAP
FE
10
10
10
ENDCHAR
STARTCHAR 02D6
ENCODING 726
SWIDTH 462 0
DWIDTH 9 0
BBX 7 7 1 0
BITMAP
10
10
10
FE
10
10
10
ENDCHAR
STARTCHAR 02D7
ENCODING 727
SWIDTH 360 0
DWIDTH 7 0
BBX 6 3 1 4
BITMAP
04
FC
84
ENDCHAR
STARTCHAR 02D8
ENCODING 728
SWIDTH 308 0
DWIDTH 6 0
BBX 5 3 1 9
BITMAP
08
F8
20
ENDCHAR
STARTCHAR 02D9
ENCODING 729
SWIDTH 308 0
DWIDTH 6 0
BBX 2 2 2 10
BITMAP
40
C0
ENDCHAR
STARTCHAR 02DA
ENCODING 730
SWIDTH 308 0
DWIDTH 6 0
BBX 4 4 1 9
BITMAP
20
50
90
70
ENDCHAR
STARTCHAR 02DB
ENCODING 731
SWIDTH 308 0
DWIDTH 6 0
BBX 3 4 2 -4
BITMAP
40
80
80
E0
ENDCHAR
STARTCHAR 02DC
ENCODING 732
SWIDTH 257 0
DWIDTH 5 0
BBX 5 1 0 10
BITMAP
F8
ENDCHAR
STARTCHAR 02DD
ENCODING 733
SWIDTH 360 0
DWIDTH 7 0
BBX 5 3 1 10
BITMAP
D8
90
90
ENDCHAR
STARTCHAR 02DE
ENCODING 734
SWIDTH 154 0
DWIDTH 3 0
BBX 3 2 -1 2
BITMAP
C0
20
ENDCHAR
STARTCHAR 02DF
ENCODING 735
SWIDTH 257 0
DWIDTH 5 0
BBX 4 3 1 9
BITMAP
60
60
90
ENDCHAR
STARTCHAR 02E0
ENCODING 736
SWIDTH 205 0
DWIDTH 4 0
BBX 5 9 0 1
BITMAP
D8
50
60
60
20
20
60
50
20
ENDCHAR
STARTCHAR 02E1
ENCODING 737
SWIDTH 102 0
DWIDTH 2 0
BBX 2 9 1 4
BITMAP
80
80
80
80
80
80
80
80
40
ENDCHAR
STARTCHAR 02E2
ENCODING 738
SWIDTH 154 0
DWIDTH 3 0
BBX 4 6 0 4
BITMAP
60
80
60
10
A0
40
ENDCHAR
STARTCHAR 02E3
ENCODING 739
SWIDTH 257 0
DWIDTH 5 0
BBX 5 5 0 5
BITMAP
D8
50
20
50
10
ENDCHAR
STARTCHAR 02E4
ENCODING 740
SWIDTH 205 0
DWIDTH 4 0
BBX 4 8 0 5
BITMAP
70
80
80
40
20
20
20
20
ENDCHAR
STARTCHAR 02E5
ENCODING 741
SWIDTH 411 0
DWIDTH 8 0
BBX 7 13 1 -1
BITMAP
FE
06
06
06
06
06
06
06
06
06
06
06
06
ENDCHAR
STARTCHAR 02E6
ENCODING 742
SWIDTH 411 0
DWIDTH 8 0
BBX 7 13 1 -1
BITMAP
02
02
FE
02
02
02
02
02
02
02
02
02
02
ENDCHAR
STARTCHAR 02E7
ENCODING 743
SWIDTH 462 0
DWIDTH 9 0
BBX 7 13 1 -1
BITMAP
02
02
02
02
02
02
FE
02
02
02
02
02
02
ENDCHAR
STARTCHAR 02E8
ENCODING 744
SWIDTH 411 0
DWIDTH 8 0
BBX 7 13 1 -1
BITMAP
02
02
02
02
02
02
02
02
02
02
FE
02
02
ENDCHAR
STARTCHAR 02E9
ENCODING 745
SWIDTH 411 0
DWIDTH 8 0
BBX 7 13 1 -1
BITMAP
02
02
02
02
02
02
02
02
02
02
02
02
FE
ENDCHAR
STARTCHAR 02EA
ENCODING 746
SWIDTH 411 0
DWIDTH 8 0
BBX 5 7 1 0
BITMAP
80
80
80
80
80
80
F8
ENDCHAR
STARTCHAR 02EB
ENCODING 747
SWIDTH 462 0
DWIDTH 9 0
BBX 5 7 1 0
BITMAP
80
80
80
F8
80
80
80
ENDCHAR
STARTCHAR 02EC
ENCODING 748
SWIDTH 360 0
DWIDTH 7 0
BBX 4 4 2 -5
BITMAP
10
A0
60
40
ENDCHAR
STARTCHAR 02ED
ENCODING 749
SWIDTH 257 0
DWIDTH 5 0
BBX 5 5 0 10
BITMAP
F8
00
00
00
F8
ENDCHAR
STARTCHAR 02EE
ENCODING 750
SWIDTH 360 0
DWIDTH 7 0
BBX 5 5 1 9
BITMAP
90
D8
48
48
90
ENDCHAR
STARTCHAR 0300
ENCODING 768
SWIDTH 0 0
DWIDTH 0 0
BBX 2 3 -5 10
BITMAP
80
40
40
ENDCHAR
STARTCHAR 0301
ENCODING 769
SWIDTH 0 0
DWIDTH 0 0
BBX 2 3 -4 10
BITMAP
C0
80
80
ENDCHAR
STARTCHAR 0302
ENCODING 770
SWIDTH 0 0
DWIDTH 0 0
BBX 4 4 -6 9
BITMAP
20
50
90
80
ENDCHAR
STARTCHAR 0303
ENCODING 771
SWIDTH 0 0
DWIDTH 0 0
BBX 5 1 -6 10
BITMAP
F8
ENDCHAR
STARTCHAR 0304
ENCODING 772
SWIDTH 0 0
DWIDTH 0 0
BBX 5 1 -7 10
BITMAP
F8
ENDCHAR
STARTCHAR 0305
ENCODING 773
SWIDTH 0 0
DWIDTH 0 0
BBX 8 1 -8 10
BITMAP
FF
ENDCHAR
STARTCHAR 0306
ENCODING 774
SWIDTH 0 0
DWIDTH 0 0
BBX 5 3 -6 9
BITMAP
08
F8
20
ENDCHAR
STARTCHAR 0307
ENCODING 775
SWIDTH 0 0
DWIDTH 0 0
BBX 2 2 -5 10
BITMAP
40
C0
ENDCHAR
STARTCHAR 0308
ENCODING 776
SWIDTH 0 0
DWIDTH 0 0
BBX 6 2 -7 10
BITMAP
C8
CC
ENDCHAR
STARTCHAR 0309
ENCODING 777
SWIDTH 0 0
DWIDTH 0 0
BBX 2 5 -4 9
BITMAP
C0
40
40
40
80
ENDCHAR
STARTCHAR 030A
ENCODING 778
SWIDTH 0 0
DWIDTH 0 0
BBX 4 4 -6 9
BITMAP
20
50
90
70
ENDCHAR
STARTCHAR 030B
ENCODING 779
SWIDTH 0 0
DWIDTH 0 0
BBX 5 3 -5 10
BITMAP
D8
90
90
ENDCHAR
STARTCHAR 030C
ENCODING 780
SWIDTH 0 0
DWIDTH 0 0
BBX 4 3 -5 10
BITMAP
10
A0
40
ENDCHAR
STARTCHAR 030D
ENCODING 781
SWIDTH 0 0
DWIDTH 0 0
BBX 1 4 -4 9
BITMAP
80
80
80
80
ENDCHAR
STARTCHAR 030E
ENCODING 782
SWIDTH 0 0
DWIDTH 0 0
BBX 4 4 -6 9
BITMAP
90
90
90
90
ENDCHAR
STARTCHAR 030F
ENCODING 783
SWIDTH 0 0
DWIDTH 0 0
BBX 5 3 -7 10
BITMAP
90
48
48
ENDCHAR
STARTCHAR 0310
ENCODING 784
SWIDTH 0 0
DWIDTH 0 0
BBX 5 6 -6 9
BITMAP
20
60
00
08
F8
20
ENDCHAR
STARTCHAR 0311
ENCODING 785
SWIDTH 0 0
DWIDTH 0 0
BBX 5 3 -6 9
BITMAP
60
98
08
ENDCHAR
STARTCHAR 0312
ENCODING 786
SWIDTH 0 0
DWIDTH 0 0
BBX 2 5 -5 9
BITMAP
40
80
80
80
C0
ENDCHAR
STARTCHAR 0313
ENCODING 787
SWIDTH 0 0
DWIDTH 0 0
BBX 2 5 -4 9
BITMAP
80
C0
40
40
80
ENDCHAR
STARTCHAR 0314
ENCODING 788
SWIDTH 0 0
DWIDTH 0 0
BBX 2 4 -4 10
BITMAP
C0
C0
80
80
ENDCHAR
STARTCHAR 0315
ENCODING 789
SWIDTH 0 0
DWIDTH 0 0
BBX 2 5 -1 9
BITMAP
80
C0
40
40
80
ENDCHAR
STARTCHAR 0316
ENCODING 790
SWIDTH 0 0
DWIDTH 0 0
BBX 5 3 -6 -4
BITMAP
C0
60
18
ENDCHAR
STARTCHAR 0317
ENCODING 791
SWIDTH 0 0
DWIDTH 0 0
BBX 5 4 -6 -5
BITMAP
08
30
60
80
ENDCHAR
STARTCHAR 0318
ENCODING 792
SWIDTH 0 0
DWIDTH 0 0
BBX 2 1 -5 -3
BITMAP
C0
ENDCHAR
STARTCHAR 0319
ENCODING 793
SWIDTH 0 0
DWIDTH 0 0
BBX 2 3 -5 -4
BITMAP
80
C0
80
ENDCHAR
STARTCHAR 031A
ENCODING 794
SWIDTH 0 0
DWIDTH 0 0
BBX 5 3 -6 9
BITMAP
F8
08
08
ENDCHAR
STARTCHAR 031B
ENCODING 795
SWIDTH 0 0
DWIDTH 0 0
BBX 3 3 -2 7
BITMAP
60
20
E0
ENDCHAR
STARTCHAR 031C
ENCODING 796
SWIDTH 0 0
DWIDTH 0 0
BBX 2 4 -5 -5
BITMAP
40
80
80
40
ENDCHAR
STARTCHAR 031D
ENCODING 797
SWIDTH 0 0
DWIDTH 0 0
BBX 3 2 -5 -4
BITMAP
40
E0
ENDCHAR
STARTCHAR 031E
ENCODING 798
SWIDTH 0 0
DWIDTH 0 0
BBX 1 2 -4 -4
BITMAP
80
80
ENDCHAR
STARTCHAR 031F
ENCODING 799
SWIDTH 0 0
DWIDTH 0 0
BBX 1 4 -4 -5
BITMAP
80
80
80
80
ENDCHAR
STARTCHAR 0320
ENCODING 800
SWIDTH 0 0
DWIDTH 0 0
BBX 5 1 -6 -3
BITMAP
F8
ENDCHAR
STARTCHAR 0321
ENCODING 801
SWIDTH 0 0
DWIDTH 0 0
BBX 3 5 -4 -3
BITMAP
20
20
20
40
C0
ENDCHAR
STARTCHAR 0322
ENCODING 802
SWIDTH 0 0
DWIDTH 0 0
BBX 2 5 -2 -3
BITMAP
80
80
80
80
C0
ENDCHAR
STARTCHAR 0323
ENCODING 803
SWIDTH 0 0
DWIDTH 0 0
BBX 2 1 -5 -3
BITMAP
C0
ENDCHAR
STARTCHAR 0324
ENCODING 804
SWIDTH 0 0
DWIDTH 0 0
BBX 6 2 -6 -3
BITMAP
C8
CC
ENDCHAR
STARTCHAR 0325
ENCODING 805
SWIDTH 0 0
DWIDTH 0 0
BBX 4 4 -6 -5
BITMAP
60
90
90
60
ENDCHAR
STARTCHAR 0326
ENCODING 806
SWIDTH 0 0
DWIDTH 0 0
BBX 3 6 -5 -7
BITMAP
40
E0
60
20
40
80
ENDCHAR
STARTCHAR 0327
ENCODING 807
SWIDTH 0 0
DWIDTH 0 0
BBX 3 5 -5 -5
BITMAP
40
60
20
A0
40
ENDCHAR
STARTCHAR 0328
ENCODING 808
SWIDTH 0 0
DWIDTH 0 0
BBX 3 4 -6 -4
BITMAP
40
80
80
E0
ENDCHAR
STARTCHAR 0329
ENCODING 809
SWIDTH 0 0
DWIDTH 0 0
BBX 1 4 -4 -5
BITMAP
80
80
80
80
ENDCHAR
STARTCHAR 032A
ENCODING 810
SWIDTH 0 0
DWIDTH 0 0
BBX 5 3 -6 -4
BITMAP
F8
88
88
ENDCHAR
STARTCHAR 032B
ENCODING 811
SWIDTH 0 0
DWIDTH 0 0
BBX 6 2 -7 -4
BITMAP
B4
48
ENDCHAR
STARTCHAR 032C
ENCODING 812
SWIDTH 0 0
DWIDTH 0 0
BBX 4 3 -5 -3
BITMAP
10
A0
40
ENDCHAR
STARTCHAR 032D
ENCODING 813
SWIDTH 0 0
DWIDTH 0 0
BBX 4 4 -6 -5
BITMAP
20
50
90
80
ENDCHAR
STARTCHAR 032E
ENCODING 814
SWIDTH 0 0
DWIDTH 0 0
BBX 5 3 -6 -4
BITMAP
08
F8
20
ENDCHAR
STARTCHAR 032F
ENCODING 815
SWIDTH 0 0
DWIDTH 0 0
BBX 5 3 -6 -4
BITMAP
60
98
08
ENDCHAR
STARTCHAR 0330
ENCODING 816
SWIDTH 0 0
DWIDTH 0 0
BBX 5 1 -6 -2
BITMAP
F8
ENDCHAR
STARTCHAR 0331
ENCODING 817
SWIDTH 0 0
DWIDTH 0 0
BBX 5 1 -6 -2
BITMAP
F8
ENDCHAR
STARTCHAR 0332
ENCODING 818
SWIDTH 0 0
DWIDTH 0 0
BBX 10 1 -9 -2
BITMAP
FFC0
ENDCHAR
STARTCHAR 0333
ENCODING 819
SWIDTH 0 0
DWIDTH 0 0
BBX 10 3 -9 -4
BITMAP
FFC0
0000
FFC0
ENDCHAR
STARTCHAR 0334
ENCODING 820
SWIDTH 0 0
DWIDTH 0 0
BBX 5 1 -7 5
BITMAP
F8
ENDCHAR
STARTCHAR 0335
ENCODING 821
SWIDTH 0 0
DWIDTH 0 0
BBX 5 1 -7 4
BITMAP
F8
ENDCHAR
STARTCHAR 0336
ENCODING 822
SWIDTH 0 0
DWIDTH 0 0
BBX 10 2 -8 3
BITMAP
FFC0
FFC0
ENDCHAR
STARTCHAR 0337
ENCODING 823
SWIDTH 0 0
DWIDTH 0 0
BBX 6 9 -8 -1
BITMAP
04
04
08
10
20
20
40
80
80
ENDCHAR
STARTCHAR 0338
ENCODING 824
SWIDTH 0 0
DWIDTH 0 0
BBX 10 12 -12 0
BITMAP
0040
0080
0100
0200
0200
0400
0800
1000
2000
4000
4000
8000
ENDCHAR
STARTCHAR 0339
ENCODING 825
SWIDTH 0 0
DWIDTH 0 0
BBX 2 4 -5 -5
BITMAP
80
40
40
C0
ENDCHAR
STARTCHAR 033A
ENCODING 826
SWIDTH 0 0
DWIDTH 0 0
BBX 5 2 -6 -4
BITMAP
88
F8
ENDCHAR
STARTCHAR 033B
ENCODING 827
SWIDTH 0 0
DWIDTH 0 0
BBX 4 4 -6 -5
BITMAP
F0
90
90
F0
ENDCHAR
STARTCHAR 033C
ENCODING 828
SWIDTH 0 0
DWIDTH 0 0
BBX 6 1 -7 -3
BITMAP
FC
ENDCHAR
STARTCHAR 033D
ENCODING 829
SWIDTH 0 0
DWIDTH 0 0
BBX 3 4 -5 9
BITMAP
20
C0
C0
20
ENDCHAR
STARTCHAR 033E
ENCODING 830
SWIDTH 0 0
DWIDTH 0 0
BBX 1 5 -4 9
BITMAP
80
80
80
80
80
ENDCHAR
STARTCHAR 033F
ENCODING 831
SWIDTH 0 0
DWIDTH 0 0
BBX 8 3 -8 8
BITMAP
FF
00
FF
ENDCHAR
STARTCHAR 0340
ENCODING 832
SWIDTH 0 0
DWIDTH 0 0
BBX 2 3 -5 10
BITMAP
80
40
40
ENDCHAR
STARTCHAR 0341
ENCODING 833
SWIDTH 0 0
DWIDTH 0 0
BBX 2 3 -4 10
BITMAP
C0
80
80
ENDCHAR
STARTCHAR 0342
ENCODING 834
SWIDTH 0 0
DWIDTH 0 0
BBX 5 1 -6 10
BITMAP
F8
ENDCHAR
STARTCHAR 0343
ENCODING 835
SWIDTH 0 0
DWIDTH 0 0
BBX 2 5 -4 9
BITMAP
80
C0
40
40
80
ENDCHAR
STARTCHAR 0344
ENCODING 836
SWIDTH 0 0
DWIDTH 0 0
BBX 5 5 -6 9
BITMAP
10
10
20
80
98
ENDCHAR
STARTCHAR 0345
ENCODING 837
SWIDTH 0 0
DWIDTH 0 0
BBX 1 3 -4 -5
BITMAP
80
80
80
ENDCHAR
STARTCHAR 0346
ENCODING 838
SWIDTH 0 0
DWIDTH 0 0
BBX 5 3 -6 9
BITMAP
F8
88
88
ENDCHAR
STARTCHAR 0347
ENCODING 839
SWIDTH 0 0
DWIDTH 0 0
BBX 7 3 -7 -5
BITMAP
7C
00
FE
ENDCHAR
STARTCHAR 0348
ENCODING 840
SWIDTH 0 0
DWIDTH 0 0
BBX 3 4 -5 -5
BITMAP
A0
A0
A0
A0
ENDCHAR
STARTCHAR 0349
ENCODING 841
SWIDTH 0 0
DWIDTH 0 0
BBX 1 1 -5 -5
BITMAP
00
ENDCHAR
STARTCHAR 034A
ENCODING 842
SWIDTH 0 0
DWIDTH 0 0
BBX 5 2 -6 9
BITMAP
E8
30
ENDCHAR
STARTCHAR 034B
ENCODING 843
SWIDTH 0 0
DWIDTH 0 0
BBX 6 4 -7 9
BITMAP
10
74
98
10
ENDCHAR
STARTCHAR 034C
ENCODING 844
SWIDTH 0 0
DWIDTH 0 0
BBX 5 3 -6 8
BITMAP
70
E8
10
ENDCHAR
STARTCHAR 034D
ENCODING 845
SWIDTH 0 0
DWIDTH 0 0
BBX 4 2 -6 -4
BITMAP
10
F0
ENDCHAR
STARTCHAR 034E
ENCODING 846
SWIDTH 0 0
DWIDTH 0 0
BBX 2 2 -5 -4
BITMAP
C0
40
ENDCHAR
STARTCHAR 0350
ENCODING 848
SWIDTH 0 0
DWIDTH 0 0
BBX 3 3 -5 9
BITMAP
C0
20
C0
ENDCHAR
STARTCHAR 0351
ENCODING 849
SWIDTH 0 0
DWIDTH 0 0
BBX 2 2 -5 9
BITMAP
80
40
ENDCHAR
STARTCHAR 0352
ENCODING 850
SWIDTH 0 0
DWIDTH 0 0
BBX 5 4 -6 9
BITMAP
60
98
28
60
ENDCHAR
STARTCHAR 0353
ENCODING 851
SWIDTH 0 0
DWIDTH 0 0
BBX 4 3 -6 -5
BITMAP
60
60
90
ENDCHAR
STARTCHAR 0354
ENCODING 852
SWIDTH 0 0
DWIDTH 0 0
BBX 2 2 -5 -4
BITMAP
80
40
ENDCHAR
STARTCHAR 0355
ENCODING 853
SWIDTH 0 0
DWIDTH 0 0
BBX 1 2 -4 -4
BITMAP
80
80
ENDCHAR
STARTCHAR 0356
ENCODING 854
SWIDTH 0 0
DWIDTH 0 0
BBX 6 3 -7 -4
BITMAP
80
6C
44
ENDCHAR
STARTCHAR 0357
ENCODING 855
SWIDTH 0 0
DWIDTH 0 0
BBX 1 3 -4 9
BITMAP
80
80
80
ENDCHAR
STARTCHAR 0359
ENCODING 857
SWIDTH 0 0
DWIDTH 0 0
BBX 4 3 -7 -5
BITMAP
D0
60
D0
ENDCHAR
STARTCHAR 035B
ENCODING 859
SWIDTH 0 0
DWIDTH 0 0
BBX 5 4 -6 10
BITMAP
40
40
F8
10
ENDCHAR
STARTCHAR 035C
ENCODING 860
SWIDTH 0 0
DWIDTH 0 0
BBX 10 3 -5 -4
BITMAP
8040
4080
3F00
ENDCHAR
STARTCHAR 035D
ENCODING 861
SWIDTH 0 0
DWIDTH 0 0
BBX 10 3 -5 9
BITMAP
8040
4080
3F00
ENDCHAR
STARTCHAR 035E
ENCODING 862
SWIDTH 0 0
DWIDTH 0 0
BBX 12 1 -6 10
BITMAP
FFF0
ENDCHAR
STARTCHAR 035F
ENCODING 863
SWIDTH 0 0
DWIDTH 0 0
BBX 12 1 -6 -3
BITMAP
FFF0
ENDCHAR
STARTCHAR 0360
ENCODING 864
SWIDTH 0 0
DWIDTH 0 0
BBX 9 2 -5 9
BITMAP
3000
DF80
ENDCHAR
STARTCHAR 0361
ENCODING 865
SWIDTH 0 0
DWIDTH 0 0
BBX 10 3 -5 9
BITMAP
0C00
7380
8040
ENDCHAR
STARTCHAR 0362
ENCODING 866
SWIDTH 0 0
DWIDTH 0 0
BBX 10 2 -5 -4
BITMAP
FFC0
0040
ENDCHAR
STARTCHAR 0363
ENCODING 867
SWIDTH 0 0
DWIDTH 0 0
BBX 3 5 -6 8
BITMAP
E0
20
E0
A0
40
ENDCHAR
STARTCHAR 0364
ENCODING 868
SWIDTH 0 0
DWIDTH 0 0
BBX 4 5 -6 8
BITMAP
70
A0
80
40
20
ENDCHAR
STARTCHAR 0365
ENCODING 869
SWIDTH 0 0
DWIDTH 0 0
BBX 2 7 -5 9
BITMAP
40
00
00
C0
40
40
40
ENDCHAR
STARTCHAR 0366
ENCODING 870
SWIDTH 0 0
DWIDTH 0 0
BBX 4 5 -6 8
BITMAP
F0
90
90
90
60
ENDCHAR
STARTCHAR 0367
ENCODING 871
SWIDTH 0 0
DWIDTH 0 0
BBX 5 5 -6 8
BITMAP
90
90
90
90
68
ENDCHAR
STARTCHAR 0368
ENCODING 872
SWIDTH 0 0
DWIDTH 0 0
BBX 4 5 -6 8
BITMAP
70
80
80
40
30
ENDCHAR
STARTCHAR 0369
ENCODING 873
SWIDTH 0 0
DWIDTH 0 0
BBX 5 8 -6 8
BITMAP
10
10
10
F0
90
90
50
28
ENDCHAR
STARTCHAR 036A
ENCODING 874
SWIDTH 0 0
DWIDTH 0 0
BBX 5 7 -6 8
BITMAP
80
80
F0
90
90
90
08
ENDCHAR
STARTCHAR 036B
ENCODING 875
SWIDTH 0 0
DWIDTH 0 0
BBX 7 5 -7 8
BITMAP
FC
94
94
90
02
ENDCHAR
STARTCHAR 036C
ENCODING 876
SWIDTH 0 0
DWIDTH 0 0
BBX 3 4 -5 9
BITMAP
E0
80
80
80
ENDCHAR
STARTCHAR 036D
ENCODING 877
SWIDTH 0 0
DWIDTH 0 0
BBX 2 5 -5 8
BITMAP
C0
80
80
80
40
ENDCHAR
STARTCHAR 036E
ENCODING 878
SWIDTH 0 0
DWIDTH 0 0
BBX 3 4 -5 9
BITMAP
A0
C0
C0
40
ENDCHAR
STARTCHAR 036F
ENCODING 879
SWIDTH 0 0
DWIDTH 0 0
BBX 3 4 -5 9
BITMAP
A0
40
40
A0
ENDCHAR
STARTCHAR 037E
ENCODING 894
SWIDTH 257 0
DWIDTH 5 0
BBX 3 11 2 -3
BITMAP
C0
C0
00
00
00
00
C0
E0
40
40
80
ENDCHAR
STARTCHAR 0384
ENCODING 900
SWIDTH 257 0
DWIDTH 5 0
BBX 2 5 2 10
BITMAP
40
40
40
80
80
ENDCHAR
STARTCHAR 0385
ENCODING 901
SWIDTH 360 0
DWIDTH 7 0
BBX 6 5 1 10
BITMAP
10
10
10
8C
CC
ENDCHAR
STARTCHAR 0386
ENCODING 902
SWIDTH 617 0
DWIDTH 12 0
BBX 13 15 0 0
BITMAP
2000
2000
2200
4700
4700
0500
0980
0980
1080
1FC0
10C0
2040
2060
2060
F0F8
ENDCHAR
STARTCHAR 0387
ENCODING 903
SWIDTH 308 0
DWIDTH 6 0
BBX 2 2 2 5
BITMAP
C0
C0
ENDCHAR
STARTCHAR 0388
ENCODING 904
SWIDTH 720 0
DWIDTH 14 0
BBX 13 15 1 0
BITMAP
4000
4000
5FF0
8C30
8C10
0C10
0C00
0C40
0C40
0FC0
0C40
0C00
0C08
0C08
1FF8
ENDCHAR
STARTCHAR 0389
ENCODING 905
SWIDTH 925 0
DWIDTH 18 0
BBX 17 15 1 0
BITMAP
400000
400000
5F1F80
8C0600
840600
040600
040600
040600
07FE00
040600
040600
040600
040600
040600
1F0F80
ENDCHAR
STARTCHAR 038A
ENCODING 906
SWIDTH 462 0
DWIDTH 9 0
BBX 8 15 1 0
BITMAP
40
40
5F
8C
8C
0C
0C
0C
0C
0C
0C
0C
0C
0C
1F
ENDCHAR
STARTCHAR 038C
ENCODING 908
SWIDTH 771 0
DWIDTH 15 0
BBX 14 16 1 -1
BITMAP
4000
4000
43C0
8C20
9810
1018
3008
300C
300C
300C
300C
3008
1818
0C10
0760
0080
ENDCHAR
STARTCHAR 038E
ENCODING 910
SWIDTH 720 0
DWIDTH 14 0
BBX 13 15 1 0
BITMAP
4000
4000
8C70
9E78
8180
0180
0180
0180
0180
0180
0180
0180
0180
0180
07C0
ENDCHAR
STARTCHAR 038F
ENCODING 911
SWIDTH 822 0
DWIDTH 16 0
BBX 15 15 1 0
BITMAP
4000
4000
43C0
8C30
9818
1018
300C
300C
300C
300C
3008
1018
4812
4422
7E7E
ENDCHAR
STARTCHAR 0390
ENCODING 912
SWIDTH 205 0
DWIDTH 4 0
BBX 6 14 0 0
BITMAP
10
10
D4
CC
00
00
30
20
20
40
40
40
E0
E0
ENDCHAR
STARTCHAR 0391
ENCODING 913
SWIDTH 617 0
DWIDTH 12 0
BBX 13 13 0 0
BITMAP
0200
0700
0700
0500
0980
0980
1080
1FC0
10C0
2040
2060
2060
F0F8
ENDCHAR
STARTCHAR 0392
ENCODING 914
SWIDTH 565 0
DWIDTH 11 0
BBX 9 13 1 0
BITMAP
FC00
6300
2100
2180
2100
2300
3E00
2180
2080
2080
2080
6180
FF00
ENDCHAR
STARTCHAR 0393
ENCODING 915
SWIDTH 565 0
DWIDTH 11 0
BBX 9 13 1 0
BITMAP
FF80
6180
2080
2080
2000
2000
2000
2000
2000
2000
2000
2000
F800
ENDCHAR
STARTCHAR 0394
ENCODING 916
SWIDTH 565 0
DWIDTH 11 0
BBX 9 13 1 0
BITMAP
0800
0C00
1400
1400
2600
2600
2200
4300
4300
8100
8180
FF80
FF80
ENDCHAR
STARTCHAR 0395
ENCODING 917
SWIDTH 565 0
DWIDTH 11 0
BBX 10 13 1 0
BITMAP
FF80
6180
2080
2080
2000
2200
2200
3E00
2200
2000
2040
2040
FFC0
ENDCHAR
STARTCHAR 0396
ENCODING 918
SWIDTH 565 0
DWIDTH 11 0
BBX 11 13 1 0
BITMAP
FFC0
C0C0
8180
8300
0200
0600
0C00
0800
1800
3000
6020
4040
FFC0
ENDCHAR
STARTCHAR 0397
ENCODING 919
SWIDTH 771 0
DWIDTH 15 0
BBX 13 13 1 0
BITMAP
F8F8
6030
2030
2030
2030
2030
3FF0
2030
2030
2030
2030
6030
F8F8
ENDCHAR
STARTCHAR 0398
ENCODING 920
SWIDTH 668 0
DWIDTH 13 0
BBX 12 13 1 0
BITMAP
0F00
3080
6040
4060
C020
D0B0
DF30
D130
C030
C020
6060
3040
1F80
ENDCHAR
STARTCHAR 0399
ENCODING 921
SWIDTH 308 0
DWIDTH 6 0
BBX 5 13 1 0
BITMAP
F8
60
20
20
20
20
20
20
20
20
20
60
F8
ENDCHAR
STARTCHAR 039A
ENCODING 922
SWIDTH 617 0
DWIDTH 12 0
BBX 12 13 1 0
BITMAP
F9C0
6180
2100
2200
2400
2800
3800
2C00
2600
2300
2300
6180
FBF0
ENDCHAR
STARTCHAR 039B
ENCODING 923
SWIDTH 617 0
DWIDTH 12 0
BBX 13 13 0 0
BITMAP
0200
0300
0700
0500
0980
0980
1080
10C0
10C0
2040
2060
2060
F0F8
ENDCHAR
STARTCHAR 039C
ENCODING 924
SWIDTH 874 0
DWIDTH 17 0
BBX 16 13 1 0
BITMAP
C007
600C
300C
501C
582C
482C
4C4C
4C4C
444C
468C
428C
430C
E11E
ENDCHAR
STARTCHAR 039D
ENCODING 925
SWIDTH 668 0
DWIDTH 13 0
BBX 12 13 1 0
BITMAP
C070
6020
7020
5820
4C20
4420
4620
4320
41A0
40E0
40E0
4060
F020
ENDCHAR
STARTCHAR 039E
ENCODING 926
SWIDTH 514 0
DWIDTH 10 0
BBX 10 14 1 -1
BITMAP
8080
FF80
FF80
0000
0000
2100
3F00
7F00
4000
0000
4040
4080
7F80
8080
ENDCHAR
STARTCHAR 039F
ENCODING 927
SWIDTH 668 0
DWIDTH 13 0
BBX 12 14 1 -1
BITMAP
0F00
30C0
6040
4060
C020
C030
C030
C030
C030
C020
6060
3040
1D80
0200
ENDCHAR
STARTCHAR 03A0
ENCODING 928
SWIDTH 668 0
DWIDTH 13 0
BBX 12 13 1 0
BITMAP
FFF0
60C0
2040
2040
2040
2040
2040
2040
2040
2040
2040
6040
F9F0
ENDCHAR
STARTCHAR 03A1
ENCODING 929
SWIDTH 514 0
DWIDTH 10 0
BBX 9 13 1 0
BITMAP
FC00
6300
2180
2080
2080
2180
2300
3C00
2000
2000
2000
6000
F800
ENDCHAR
STARTCHAR 03A3
ENCODING 931
SWIDTH 565 0
DWIDTH 11 0
BBX 11 13 0 0
BITMAP
FFC0
60C0
6040
3040
1800
0C00
0C00
0400
0800
1000
2020
6060
7FE0
ENDCHAR
STARTCHAR 03A4
ENCODING 932
SWIDTH 617 0
DWIDTH 12 0
BBX 12 13 0 0
BITMAP
FFF0
C630
8610
8610
0600
0600
0600
0600
0600
0600
0600
0600
1F80
ENDCHAR
STARTCHAR 03A5
ENCODING 933
SWIDTH 565 0
DWIDTH 11 0
BBX 10 13 1 0
BITMAP
6180
F3C0
0C00
0C00
0C00
0C00
0C00
0C00
0C00
0C00
0C00
0C00
1F00
ENDCHAR
STARTCHAR 03A6
ENCODING 934
SWIDTH 668 0
DWIDTH 13 0
BBX 12 13 1 0
BITMAP
1F00
0600
0600
3F80
4660
C630
C630
C630
C620
36C0
0F00
0600
1F00
ENDCHAR
STARTCHAR 03A7
ENCODING 935
SWIDTH 617 0
DWIDTH 12 0
BBX 13 13 0 0
BITMAP
F8F0
3040
1040
1880
0D00
0600
0600
0700
0900
1180
20C0
2040
F0F8
ENDCHAR
STARTCHAR 03A8
ENCODING 936
SWIDTH 720 0
DWIDTH 14 0
BBX 14 13 0 0
BITMAP
CF9C
6310
6210
6210
6210
6210
2230
3260
0F80
0200
0200
0200
0F80
ENDCHAR
STARTCHAR 03A9
ENCODING 937
SWIDTH 771 0
DWIDTH 15 0
BBX 14 13 1 0
BITMAP
0780
1840
2020
6030
6010
4018
4018
6010
6010
2030
3024
904C
FCFC
ENDCHAR
STARTCHAR 03AA
ENCODING 938
SWIDTH 308 0
DWIDTH 6 0
BBX 6 16 0 0
BITMAP
CC
44
00
7C
30
10
10
10
10
10
10
10
10
10
30
7C
ENDCHAR
STARTCHAR 03AB
ENCODING 939
SWIDTH 565 0
DWIDTH 11 0
BBX 10 16 1 0
BITMAP
3300
0100
0000
6180
F3C0
0C00
0C00
0C00
0C00
0C00
0C00
0C00
0C00
0C00
0C00
1F00
ENDCHAR
STARTCHAR 03AC
ENCODING 940
SWIDTH 565 0
DWIDTH 11 0
BBX 11 15 0 0
BITMAP
0200
0600
0400
0400
0400
0000
0000
1D80
3580
2300
6300
4600
4620
9E40
73C0
ENDCHAR
STARTCHAR 03AD
ENCODING 941
SWIDTH 257 0
DWIDTH 5 0
BBX 5 15 0 0
BITMAP
08
10
10
10
00
00
00
38
60
40
58
70
80
C8
70
ENDCHAR
STARTCHAR 03AE
ENCODING 942
SWIDTH 360 0
DWIDTH 7 0
BBX 6 16 1 -1
BITMAP
08
08
08
08
10
00
00
CC
DC
74
64
64
C4
C4
84
0C
ENDCHAR
STARTCHAR 03AF
ENCODING 943
SWIDTH 205 0
DWIDTH 4 0
BBX 5 15 0 0
BITMAP
08
10
10
10
00
00
00
30
20
20
40
40
40
E0
E0
ENDCHAR
STARTCHAR 03B0
ENCODING 944
SWIDTH 360 0
DWIDTH 7 0
BBX 7 15 1 0
BITMAP
08
08
10
54
C6
00
00
C4
C4
C4
84
8C
8C
D8
F0
ENDCHAR
STARTCHAR 03B1
ENCODING 945
SWIDTH 565 0
DWIDTH 11 0
BBX 11 8 0 0
BITMAP
1D80
3580
2300
6300
4600
4620
9E40
73C0
ENDCHAR
STARTCHAR 03B2
ENCODING 946
SWIDTH 565 0
DWIDTH 11 0
BBX 11 15 0 -3
BITMAP
0F80
1880
1080
1080
2080
2100
23C0
4240
4060
6040
50C0
4F80
8000
8000
8000
ENDCHAR
STARTCHAR 03B3
ENCODING 947
SWIDTH 565 0
DWIDTH 11 0
BBX 11 12 0 -4
BITMAP
3800
6C20
C440
84C0
8580
0500
0600
0600
0C00
1800
3800
3000
ENDCHAR
STARTCHAR 03B4
ENCODING 948
SWIDTH 308 0
DWIDTH 6 0
BBX 5 14 1 0
BITMAP
80
E0
B0
58
28
20
10
10
78
48
C8
98
B0
E0
ENDCHAR
STARTCHAR 03B5
ENCODING 949
SWIDTH 257 0
DWIDTH 5 0
BBX 5 8 0 0
BITMAP
38
60
40
58
70
80
C8
70
ENDCHAR
STARTCHAR 03B6
ENCODING 950
SWIDTH 257 0
DWIDTH 5 0
BBX 7 18 0 -4
BITMAP
0C
14
14
04
0C
18
10
30
60
40
40
80
40
70
1C
04
02
0C
ENDCHAR
STARTCHAR 03B7
ENCODING 951
SWIDTH 360 0
DWIDTH 7 0
BBX 6 9 1 -1
BITMAP
CC
DC
74
64
64
C4
C4
84
0C
ENDCHAR
STARTCHAR 03B8
ENCODING 952
SWIDTH 411 0
DWIDTH 8 0
BBX 7 15 1 -1
BITMAP
0C
14
24
26
46
46
C6
FC
84
84
88
88
90
50
20
ENDCHAR
STARTCHAR 03B9
ENCODING 953
SWIDTH 205 0
DWIDTH 4 0
BBX 4 8 0 0
BITMAP
30
20
20
40
40
40
E0
E0
ENDCHAR
STARTCHAR 03BA
ENCODING 954
SWIDTH 411 0
DWIDTH 8 0
BBX 9 8 0 0
BITMAP
6000
6300
2600
3C00
3800
6880
C900
8F00
ENDCHAR
STARTCHAR 03BB
ENCODING 955
SWIDTH 411 0
DWIDTH 8 0
BBX 8 10 0 -1
BITMAP
38
04
04
0C
1A
12
32
61
41
80
ENDCHAR
STARTCHAR 03BC
ENCODING 956
SWIDTH 565 0
DWIDTH 11 0
BBX 11 12 0 -4
BITMAP
1080
3180
2180
6300
4200
4620
CE60
B9C0
8000
8000
8000
8000
ENDCHAR
STARTCHAR 03BD
ENCODING 957
SWIDTH 308 0
DWIDTH 6 0
BBX 5 8 1 0
BITMAP
80
88
90
90
B0
E0
C0
80
ENDCHAR
STARTCHAR 03BE
ENCODING 958
SWIDTH 308 0
DWIDTH 6 0
BBX 6 17 1 -3
BITMAP
44
5C
38
60
40
48
5C
30
60
40
80
80
80
FC
04
1C
18
ENDCHAR
STARTCHAR 03BF
ENCODING 959
SWIDTH 308 0
DWIDTH 6 0
BBX 5 8 1 0
BITMAP
10
78
68
C8
88
88
98
F0
ENDCHAR
STARTCHAR 03C0
ENCODING 960
SWIDTH 565 0
DWIDTH 11 0
BBX 11 8 0 0
BITMAP
7FE0
C7C0
C500
4A00
0A00
1200
1380
2300
ENDCHAR
STARTCHAR 03C1
ENCODING 961
SWIDTH 360 0
DWIDTH 7 0
BBX 6 14 1 -6
BITMAP
1C
74
44
CC
98
F0
80
80
80
C0
70
10
70
60
ENDCHAR
STARTCHAR 03C2
ENCODING 962
SWIDTH 257 0
DWIDTH 5 0
BBX 6 10 0 -2
BITMAP
1C
38
60
40
80
80
78
08
10
70
ENDCHAR
STARTCHAR 03C3
ENCODING 963
SWIDTH 411 0
DWIDTH 8 0
BBX 7 9 1 0
BITMAP
02
3E
78
C8
88
88
88
98
F0
ENDCHAR
STARTCHAR 03C4
ENCODING 964
SWIDTH 462 0
DWIDTH 9 0
BBX 9 8 0 0
BITMAP
7F80
4700
C400
4800
0800
1000
1C00
1C00
ENDCHAR
STARTCHAR 03C5
ENCODING 965
SWIDTH 360 0
DWIDTH 7 0
BBX 6 8 1 0
BITMAP
C4
C4
C4
84
8C
8C
D8
F0
ENDCHAR
STARTCHAR 03C6
ENCODING 966
SWIDTH 514 0
DWIDTH 10 0
BBX 10 15 0 -5
BITMAP
0F00
1FC0
26C0
4440
4440
4840
8840
4880
6B00
3E00
1800
1000
1000
1000
1000
ENDCHAR
STARTCHAR 03C7
ENCODING 967
SWIDTH 462 0
DWIDTH 9 0
BBX 12 12 -1 -4
BITMAP
3840
28C0
0480
0580
0700
0600
0C00
1C00
1200
3210
6220
C1E0
ENDCHAR
STARTCHAR 03C8
ENCODING 968
SWIDTH 514 0
DWIDTH 10 0
BBX 10 18 0 -4
BITMAP
0200
0200
0300
0200
0200
0200
0200
0200
E200
2200
2200
3240
1A80
0F00
0200
0200
0200
0200
ENDCHAR
STARTCHAR 03C9
ENCODING 969
SWIDTH 565 0
DWIDTH 11 0
BBX 10 8 0 0
BITMAP
1840
3040
2240
6640
4640
8CC0
8980
7F00
ENDCHAR
STARTCHAR 03CA
ENCODING 970
SWIDTH 205 0
DWIDTH 4 0
BBX 6 12 0 0
BITMAP
48
CC
00
00
30
20
20
40
40
40
E0
E0
ENDCHAR
STARTCHAR 03CB
ENCODING 971
SWIDTH 360 0
DWIDTH 7 0
BBX 6 12 1 0
BITMAP
4C
6C
00
00
C4
C4
C4
84
8C
8C
D8
F0
ENDCHAR
STARTCHAR 03CC
ENCODING 972
SWIDTH 308 0
DWIDTH 6 0
BBX 5 15 1 0
BITMAP
08
08
10
10
10
00
00
10
78
68
C8
88
88
98
F0
ENDCHAR
STARTCHAR 03CD
ENCODING 973
SWIDTH 360 0
DWIDTH 7 0
BBX 6 15 1 0
BITMAP
08
08
10
10
10
00
00
C4
C4
C4
84
8C
8C
D8
F0
ENDCHAR
STARTCHAR 03CE
ENCODING 974
SWIDTH 565 0
DWIDTH 11 0
BBX 10 15 0 0
BITMAP
0100
0100
0100
0100
0000
0000
0000
1840
3040
2240
6640
4640
8CC0
8980
7F00
ENDCHAR
STARTCHAR 03D0
ENCODING 976
SWIDTH 308 0
DWIDTH 6 0
BBX 7 14 0 0
BITMAP
0E
1E
32
3E
60
40
40
40
80
80
B8
64
44
3C
ENDCHAR
STARTCHAR 03D1
ENCODING 977
SWIDTH 514 0
DWIDTH 10 0
BBX 10 13 0 0
BITMAP
3800
6400
4200
4100
3100
1FC0
0100
0100
0100
2100
7100
CA00
0600
ENDCHAR
STARTCHAR 03D5
ENCODING 981
SWIDTH 565 0
DWIDTH 11 0
BBX 10 17 1 -6
BITMAP
0600
0600
3F00
6480
CCC0
8C40
8C40
8CC0
88C0
4980
3F00
0800
0800
1800
1800
1000
1000
ENDCHAR
STARTCHAR 03D6
ENCODING 982
SWIDTH 565 0
DWIDTH 11 0
BBX 12 8 -1 0
BITMAP
7FF0
D860
D120
7320
2320
4660
44C0
3F80
ENDCHAR
STARTCHAR 03D7
ENCODING 983
SWIDTH 565 0
DWIDTH 11 0
BBX 11 20 0 -5
BITMAP
0040
0040
0040
0020
0020
0000
0000
6000
6300
2600
3C00
3820
6860
C8A0
8F20
0020
0020
0040
0440
0780
ENDCHAR
STARTCHAR 03DB
ENCODING 987
SWIDTH 462 0
DWIDTH 9 0
BBX 9 11 0 -2
BITMAP
0080
1F80
3000
4000
C000
8000
8000
7000
1000
1000
E000
ENDCHAR
STARTCHAR 03F0
ENCODING 1008
SWIDTH 411 0
DWIDTH 8 0
BBX 9 8 0 0
BITMAP
6000
6300
2600
3C00
3800
6880
C900
8F00
ENDCHAR
STARTCHAR 10FB
ENCODING 4347
SWIDTH 462 0
DWIDTH 9 0
BBX 7 8 1 0
BITMAP
40
E0
00
06
06
00
C0
C0
ENDCHAR
STARTCHAR 16A0
ENCODING 5792
SWIDTH 411 0
DWIDTH 8 0
BBX 6 14 1 0
BITMAP
84
8C
98
B0
E4
C8
90
A0
C0
80
80
80
80
80
ENDCHAR
STARTCHAR 16A1
ENCODING 5793
SWIDTH 514 0
DWIDTH 10 0
BBX 8 14 1 0
BITMAP
A5
B5
89
9A
F6
8C
B0
C0
80
80
80
80
80
80
ENDCHAR
STARTCHAR 16A2
ENCODING 5794
SWIDTH 462 0
DWIDTH 9 0
BBX 8 14 1 0
BITMAP
80
C0
C0
A0
A0
90
90
88
88
84
84
82
82
81
ENDCHAR
STARTCHAR 16A3
ENCODING 5795
SWIDTH 462 0
DWIDTH 9 0
BBX 8 14 1 0
BITMAP
80
C0
C0
A0
A0
90
90
88
88
A4
A4
A2
A2
A1
ENDCHAR
STARTCHAR 16A4
ENCODING 5796
SWIDTH 462 0
DWIDTH 9 0
BBX 8 14 1 0
BITMAP
80
C0
C0
A0
A0
90
90
88
88
84
B4
B2
82
81
ENDCHAR
STARTCHAR 16A5
ENCODING 5797
SWIDTH 462 0
DWIDTH 9 0
BBX 8 14 1 0
BITMAP
80
C0
C0
A0
A0
90
D0
C8
A8
A4
94
92
8A
8D
ENDCHAR
STARTCHAR 16A6
ENCODING 5798
SWIDTH 411 0
DWIDTH 8 0
BBX 6 14 1 0
BITMAP
80
80
80
C0
A0
98
84
8C
90
E0
C0
80
80
80
ENDCHAR
STARTCHAR 16A7
ENCODING 5799
SWIDTH 411 0
DWIDTH 8 0
BBX 6 14 1 0
BITMAP
80
80
80
F0
98
84
B4
B4
8C
F8
E0
80
80
80
ENDCHAR
STARTCHAR 16A8
ENCODING 5800
SWIDTH 257 0
DWIDTH 5 0
BBX 4 14 1 0
BITMAP
80
E0
B0
80
C0
A0
90
80
80
80
80
80
80
80
ENDCHAR
STARTCHAR 16A9
ENCODING 5801
SWIDTH 411 0
DWIDTH 8 0
BBX 7 14 1 0
BITMAP
80
E4
B8
90
C6
A8
90
80
80
80
80
80
80
80
ENDCHAR
STARTCHAR 16AA
ENCODING 5802
SWIDTH 411 0
DWIDTH 8 0
BBX 6 14 1 0
BITMAP
80
E4
B8
90
C0
A0
90
80
80
80
80
80
80
80
ENDCHAR
STARTCHAR 16AB
ENCODING 5803
SWIDTH 411 0
DWIDTH 8 0
BBX 6 14 1 0
BITMAP
80
E0
B0
88
C4
A0
98
8C
80
80
80
80
80
80
ENDCHAR
STARTCHAR 16AC
ENCODING 5804
SWIDTH 462 0
DWIDTH 9 0
BBX 8 14 1 0
BITMAP
10
10
10
D0
70
1E
91
70
1E
13
10
10
10
10
ENDCHAR
STARTCHAR 16AD
ENCODING 5805
SWIDTH 308 0
DWIDTH 6 0
BBX 5 14 1 0
BITMAP
80
80
80
80
80
F0
88
80
F0
98
80
80
80
80
ENDCHAR
STARTCHAR 16AE
ENCODING 5806
SWIDTH 308 0
DWIDTH 6 0
BBX 4 14 1 0
BITMAP
10
10
10
10
10
70
90
10
70
90
10
10
10
10
ENDCHAR
STARTCHAR 16AF
ENCODING 5807
SWIDTH 462 0
DWIDTH 9 0
BBX 8 14 1 0
BITMAP
10
10
10
13
1C
70
91
1E
70
90
10
10
10
10
ENDCHAR
STARTCHAR 16B0
ENCODING 5808
SWIDTH 462 0
DWIDTH 9 0
BBX 8 14 1 0
BITMAP
10
10
10
13
1C
70
90
10
70
90
10
10
10
10
ENDCHAR
STARTCHAR 16B1
ENCODING 5809
SWIDTH 360 0
DWIDTH 7 0
BBX 5 14 1 0
BITMAP
80
E0
B0
88
98
B0
C0
80
C0
A0
A0
90
88
88
ENDCHAR
STARTCHAR 16B2
ENCODING 5810
SWIDTH 360 0
DWIDTH 7 0
BBX 6 10 1 2
BITMAP
0C
18
30
60
C0
80
40
20
10
08
ENDCHAR
STARTCHAR 16B3
ENCODING 5811
SWIDTH 411 0
DWIDTH 8 0
BBX 6 14 1 0
BITMAP
80
80
80
80
80
80
80
80
80
E0
B0
98
8C
84
ENDCHAR
STARTCHAR 16B4
ENCODING 5812
SWIDTH 411 0
DWIDTH 8 0
BBX 6 14 1 0
BITMAP
84
8C
98
B0
E0
C0
80
80
80
80
80
80
80
80
ENDCHAR
STARTCHAR 16B5
ENCODING 5813
SWIDTH 514 0
DWIDTH 10 0
BBX 7 14 1 0
BITMAP
B2
B4
84
88
90
E0
80
80
80
80
80
80
80
80
ENDCHAR
STARTCHAR 16B6
ENCODING 5814
SWIDTH 462 0
DWIDTH 9 0
BBX 7 14 1 0
BITMAP
40
42
44
48
F0
E0
E0
40
40
40
40
40
40
40
ENDCHAR
STARTCHAR 16B7
ENCODING 5815
SWIDTH 462 0
DWIDTH 9 0
BBX 7 14 1 0
BITMAP
82
C2
44
44
28
28
10
10
38
28
24
44
42
82
ENDCHAR
STARTCHAR 16B8
ENCODING 5816
SWIDTH 462 0
DWIDTH 9 0
BBX 7 14 1 0
BITMAP
82
C2
44
44
28
28
54
56
3C
28
24
44
42
82
ENDCHAR
STARTCHAR 16B9
ENCODING 5817
SWIDTH 308 0
DWIDTH 6 0
BBX 5 14 1 0
BITMAP
80
E0
B0
88
B0
E0
80
80
80
80
80
80
80
80
ENDCHAR
STARTCHAR 16BA
ENCODING 5818
SWIDTH 514 0
DWIDTH 10 0
BBX 9 14 1 0
BITMAP
8080
8080
8080
8080
C080
E080
9080
8C80
8680
8180
8080
8080
8080
8080
ENDCHAR
STARTCHAR 16BB
ENCODING 5819
SWIDTH 514 0
DWIDTH 10 0
BBX 9 14 1 0
BITMAP
8080
8080
8080
C080
A080
9880
EC80
B280
9980
8480
8380
8180
8080
8080
ENDCHAR
STARTCHAR 16BC
ENCODING 5820
SWIDTH 411 0
DWIDTH 8 0
BBX 6 14 1 0
BITMAP
20
20
20
20
A4
78
30
78
EC
20
20
20
20
20
ENDCHAR
STARTCHAR 16BD
ENCODING 5821
SWIDTH 257 0
DWIDTH 5 0
BBX 4 14 1 0
BITMAP
40
40
40
40
40
F0
F0
F0
40
40
40
40
40
40
ENDCHAR
STARTCHAR 16BE
ENCODING 5822
SWIDTH 360 0
DWIDTH 7 0
BBX 5 14 1 0
BITMAP
20
20
20
20
20
E0
30
28
20
20
20
20
20
20
ENDCHAR
STARTCHAR 16BF
ENCODING 5823
SWIDTH 360 0
DWIDTH 7 0
BBX 3 14 3 0
BITMAP
80
80
80
80
80
80
C0
A0
80
80
80
80
80
80
ENDCHAR
STARTCHAR 16C0
ENCODING 5824
SWIDTH 411 0
DWIDTH 8 0
BBX 7 14 1 0
BITMAP
10
10
10
10
10
F8
38
3E
10
10
10
10
10
10
ENDCHAR
STARTCHAR 16C1
ENCODING 5825
SWIDTH 154 0
DWIDTH 3 0
BBX 1 14 1 0
BITMAP
80
80
80
80
80
80
80
80
80
80
80
80
80
80
ENDCHAR
STARTCHAR 16C2
ENCODING 5826
SWIDTH 257 0
DWIDTH 5 0
BBX 4 14 1 0
BITMAP
40
40
40
40
40
F0
F0
F0
40
40
40
40
40
40
ENDCHAR
STARTCHAR 16C3
ENCODING 5827
SWIDTH 514 0
DWIDTH 10 0
BBX 8 10 1 1
BITMAP
10
60
C0
C8
64
33
01
02
0C
08
ENDCHAR
STARTCHAR 16C4
ENCODING 5828
SWIDTH 411 0
DWIDTH 8 0
BBX 6 14 1 0
BITMAP
10
10
10
10
30
58
94
D4
78
30
10
10
10
10
ENDCHAR
STARTCHAR 16C5
ENCODING 5829
SWIDTH 360 0
DWIDTH 7 0
BBX 6 14 1 0
BITMAP
20
20
20
20
20
2C
70
A0
20
20
20
20
20
20
ENDCHAR
STARTCHAR 16C6
ENCODING 5830
SWIDTH 257 0
DWIDTH 5 0
BBX 3 14 1 0
BITMAP
20
20
20
20
20
20
60
A0
20
20
20
20
20
20
ENDCHAR
STARTCHAR 16C7
ENCODING 5831
SWIDTH 462 0
DWIDTH 9 0
BBX 7 14 1 0
BITMAP
18
16
10
10
10
10
10
10
10
10
10
10
D0
30
ENDCHAR
STARTCHAR 16C8
ENCODING 5832
SWIDTH 360 0
DWIDTH 7 0
BBX 5 14 1 0
BITMAP
88
F8
A0
80
80
80
80
80
80
80
80
80
F0
C8
ENDCHAR
STARTCHAR 16C9
ENCODING 5833
SWIDTH 514 0
DWIDTH 10 0
BBX 8 14 1 0
BITMAP
89
4B
2E
1C
08
08
08
08
08
08
08
08
08
08
ENDCHAR
STARTCHAR 16CA
ENCODING 5834
SWIDTH 308 0
DWIDTH 6 0
BBX 5 14 1 0
BITMAP
08
10
60
C0
C0
60
10
18
30
40
80
60
30
08
ENDCHAR
STARTCHAR 16CB
ENCODING 5835
SWIDTH 462 0
DWIDTH 9 0
BBX 7 14 1 0
BITMAP
80
80
80
80
80
86
8A
B2
E2
82
02
02
02
02
ENDCHAR
STARTCHAR 16CC
ENCODING 5836
SWIDTH 154 0
DWIDTH 3 0
BBX 1 7 1 7
BITMAP
80
80
80
80
80
80
80
ENDCHAR
STARTCHAR 16CD
ENCODING 5837
SWIDTH 257 0
DWIDTH 5 0
BBX 4 8 1 6
BITMAP
40
40
40
40
40
F0
F0
F0
ENDCHAR
STARTCHAR 16CE
ENCODING 5838
SWIDTH 514 0
DWIDTH 10 0
BBX 9 9 1 5
BITMAP
0800
0800
0800
0800
0800
0800
C980
6B00
1C00
ENDCHAR
STARTCHAR 16CF
ENCODING 5839
SWIDTH 514 0
DWIDTH 10 0
BBX 9 14 1 0
BITMAP
0800
3E00
4900
8880
0800
0800
0800
0800
0800
0800
0800
0800
0800
0800
ENDCHAR
STARTCHAR 16D0
ENCODING 5840
SWIDTH 360 0
DWIDTH 7 0
BBX 5 14 1 0
BITMAP
08
38
48
88
08
08
08
08
08
08
08
08
08
08
ENDCHAR
STARTCHAR 16D1
ENCODING 5841
SWIDTH 411 0
DWIDTH 8 0
BBX 6 14 1 0
BITMAP
08
38
48
88
08
08
1C
3C
1C
08
08
08
08
08
ENDCHAR
STARTCHAR 16D2
ENCODING 5842
SWIDTH 411 0
DWIDTH 8 0
BBX 6 14 1 0
BITMAP
C0
A0
98
84
8C
B0
E0
C0
B0
98
84
98
B0
C0
ENDCHAR
STARTCHAR 16D3
ENCODING 5843
SWIDTH 308 0
DWIDTH 6 0
BBX 5 14 1 0
BITMAP
80
80
80
98
F0
80
88
F0
80
80
80
80
80
80
ENDCHAR
STARTCHAR 16D4
ENCODING 5844
SWIDTH 411 0
DWIDTH 8 0
BBX 6 14 1 0
BITMAP
E0
98
84
B4
84
88
F0
F0
88
84
B4
84
88
F0
ENDCHAR
STARTCHAR 16D5
ENCODING 5845
SWIDTH 411 0
DWIDTH 8 0
BBX 6 14 1 0
BITMAP
84
84
88
90
B0
A0
C0
C0
E0
A0
90
88
8C
84
ENDCHAR
STARTCHAR 16D6
ENCODING 5846
SWIDTH 617 0
DWIDTH 12 0
BBX 10 14 1 0
BITMAP
C0C0
E1C0
9340
8E40
8040
8040
8040
8040
8040
8040
8040
8040
8040
8040
ENDCHAR
STARTCHAR 16D7
ENCODING 5847
SWIDTH 617 0
DWIDTH 12 0
BBX 10 14 1 0
BITMAP
8040
E1C0
9E40
8C40
B340
C0C0
8040
8040
8040
8040
8040
8040
8040
8040
ENDCHAR
STARTCHAR 16D8
ENCODING 5848
SWIDTH 514 0
DWIDTH 10 0
BBX 9 14 1 0
BITMAP
8880
8880
4900
6E00
1800
0800
0800
0800
0800
0800
0800
0800
0800
0800
ENDCHAR
STARTCHAR 16D9
ENCODING 5849
SWIDTH 257 0
DWIDTH 5 0
BBX 4 14 1 0
BITMAP
60
F0
F0
60
40
40
40
40
40
40
40
40
40
40
ENDCHAR
STARTCHAR 16DA
ENCODING 5850
SWIDTH 360 0
DWIDTH 7 0
BBX 5 14 1 0
BITMAP
C0
E0
90
88
80
80
80
80
80
80
80
80
80
80
ENDCHAR
STARTCHAR 16DB
ENCODING 5851
SWIDTH 411 0
DWIDTH 8 0
BBX 6 14 1 0
BITMAP
60
70
48
44
40
40
F0
F0
F0
40
40
40
40
40
ENDCHAR
STARTCHAR 16DC
ENCODING 5852
SWIDTH 462 0
DWIDTH 9 0
BBX 7 8 1 2
BITMAP
18
2C
64
C2
C2
64
28
18
ENDCHAR
STARTCHAR 16DD
ENCODING 5853
SWIDTH 565 0
DWIDTH 11 0
BBX 8 14 2 0
BITMAP
81
C2
24
18
3C
66
81
81
42
2C
18
3C
42
81
ENDCHAR
STARTCHAR 16DE
ENCODING 5854
SWIDTH 617 0
DWIDTH 12 0
BBX 10 14 1 0
BITMAP
C040
C0C0
A1C0
A140
9240
8A40
8C40
8C40
8E40
9240
B140
A140
C0C0
C0C0
ENDCHAR
STARTCHAR 16DF
ENCODING 5855
SWIDTH 565 0
DWIDTH 11 0
BBX 9 14 1 0
BITMAP
0800
1C00
1600
2300
4180
C080
6100
3200
1400
0800
1400
2200
6100
C080
ENDCHAR
STARTCHAR 16E0
ENCODING 5856
SWIDTH 668 0
DWIDTH 13 0
BBX 11 14 1 0
BITMAP
8420
4E40
3580
0400
0400
0400
0400
0400
0400
0400
0400
0400
0400
0400
ENDCHAR
STARTCHAR 16E1
ENCODING 5857
SWIDTH 411 0
DWIDTH 8 0
BBX 6 14 1 0
BITMAP
20
20
20
20
A4
78
30
78
EC
20
20
20
20
20
ENDCHAR
STARTCHAR 16E2
ENCODING 5858
SWIDTH 565 0
DWIDTH 11 0
BBX 10 14 1 0
BITMAP
0440
0680
0500
0400
0400
0400
0400
0400
0400
0400
0400
2400
7400
8C00
ENDCHAR
STARTCHAR 16E3
ENCODING 5859
SWIDTH 514 0
DWIDTH 10 0
BBX 8 14 1 0
BITMAP
08
08
08
08
08
08
08
08
08
08
1C
2E
4B
89
ENDCHAR
STARTCHAR 16E4
ENCODING 5860
SWIDTH 565 0
DWIDTH 11 0
BBX 8 14 2 0
BITMAP
11
92
D2
54
34
38
5C
52
3C
3C
54
52
92
91
ENDCHAR
STARTCHAR 16E5
ENCODING 5861
SWIDTH 617 0
DWIDTH 12 0
BBX 10 14 1 0
BITMAP
8040
E1C0
9E40
8C40
B340
C0C0
8040
8040
C0C0
E1C0
9E40
9E40
B1C0
C0C0
ENDCHAR
STARTCHAR 16E6
ENCODING 5862
SWIDTH 514 0
DWIDTH 10 0
BBX 8 14 1 0
BITMAP
08
08
08
08
08
08
08
08
08
08
1C
2E
4B
89
ENDCHAR
STARTCHAR 16E7
ENCODING 5863
SWIDTH 154 0
DWIDTH 3 0
BBX 1 7 1 0
BITMAP
80
80
80
80
80
80
80
ENDCHAR
STARTCHAR 16E8
ENCODING 5864
SWIDTH 514 0
DWIDTH 10 0
BBX 9 14 1 0
BITMAP
0800
3E00
4B00
8880
0800
0800
0800
0800
0800
0800
8800
C980
3E00
1C00
ENDCHAR
STARTCHAR 16E9
ENCODING 5865
SWIDTH 360 0
DWIDTH 7 0
BBX 5 14 1 0
BITMAP
18
38
48
88
68
38
08
08
08
08
08
08
08
08
ENDCHAR
STARTCHAR 16EA
ENCODING 5866
SWIDTH 565 0
DWIDTH 11 0
BBX 9 14 1 0
BITMAP
4000
E000
4000
4000
4000
4300
4D00
5900
6100
4100
0100
0100
0380
0100
ENDCHAR
STARTCHAR 16EB
ENCODING 5867
SWIDTH 205 0
DWIDTH 4 0
BBX 2 2 1 6
BITMAP
C0
C0
ENDCHAR
STARTCHAR 16EC
ENCODING 5868
SWIDTH 205 0
DWIDTH 4 0
BBX 2 8 1 3
BITMAP
C0
C0
00
00
00
00
C0
C0
ENDCHAR
STARTCHAR 16ED
ENCODING 5869
SWIDTH 462 0
DWIDTH 9 0
BBX 7 7 1 4
BITMAP
10
10
10
FE
D6
10
10
ENDCHAR
STARTCHAR 16EE
ENCODING 5870
SWIDTH 514 0
DWIDTH 10 0
BBX 8 14 1 0
BITMAP
10
18
14
13
11
10
10
70
D0
10
10
10
10
10
ENDCHAR
STARTCHAR 16EF
ENCODING 5871
SWIDTH 514 0
DWIDTH 10 0
BBX 9 14 1 0
BITMAP
8880
8880
4900
2E00
1800
0800
0800
0800
0800
0800
3E00
4900
8980
8880
ENDCHAR
STARTCHAR 16F0
ENCODING 5872
SWIDTH 514 0
DWIDTH 10 0
BBX 9 14 1 0
BITMAP
0800
0800
0800
1C00
6A00
4900
8880
8880
8880
C900
6B00
3E00
0800
0800
ENDCHAR
STARTCHAR 1D00
ENCODING 7424
SWIDTH 411 0
DWIDTH 8 0
BBX 8 8 0 0
BITMAP
18
18
2C
24
3C
46
42
E7
ENDCHAR
STARTCHAR 1D01
ENCODING 7425
SWIDTH 565 0
DWIDTH 11 0
BBX 11 9 0 -1
BITMAP
0FC0
1440
1400
2400
3F80
4400
4420
CE60
0180
ENDCHAR
STARTCHAR 1D02
ENCODING 7426
SWIDTH 514 0
DWIDTH 10 0
BBX 10 9 0 -1
BITMAP
79C0
8E40
0440
0480
0700
1C40
6440
4F80
3000
ENDCHAR
STARTCHAR 1D03
ENCODING 7427
SWIDTH 411 0
DWIDTH 8 0
BBX 8 9 0 -1
BITMAP
FC
26
26
EF
36
22
22
74
08
ENDCHAR
STARTCHAR 1D04
ENCODING 7428
SWIDTH 411 0
DWIDTH 8 0
BBX 7 9 1 -1
BITMAP
3C
C2
80
80
80
80
C2
64
18
ENDCHAR
STARTCHAR 1D05
ENCODING 7429
SWIDTH 462 0
DWIDTH 9 0
BBX 9 9 0 -1
BITMAP
FE00
2100
2180
2080
2080
2180
2100
7600
0800
ENDCHAR
STARTCHAR 1D06
ENCODING 7430
SWIDTH 462 0
DWIDTH 9 0
BBX 9 9 0 -1
BITMAP
FE00
2100
2180
2080
7080
2180
2100
7600
0800
ENDCHAR
STARTCHAR 1D07
ENCODING 7431
SWIDTH 360 0
DWIDTH 7 0
BBX 7 8 0 0
BITMAP
FE
22
20
24
3C
24
20
7E
ENDCHAR
STARTCHAR 1D08
ENCODING 7432
SWIDTH 308 0
DWIDTH 6 0
BBX 5 9 1 -1
BITMAP
F8
18
08
08
70
08
08
D0
20
ENDCHAR
STARTCHAR 1D09
ENCODING 7433
SWIDTH 205 0
DWIDTH 4 0
BBX 2 13 2 -5
BITMAP
C0
80
80
80
80
80
C0
80
00
00
00
C0
C0
ENDCHAR
STARTCHAR 1D0A
ENCODING 7434
SWIDTH 205 0
DWIDTH 4 0
BBX 5 10 -1 -2
BITMAP
38
10
10
10
10
10
10
10
10
E0
ENDCHAR
STARTCHAR 1D0B
ENCODING 7435
SWIDTH 411 0
DWIDTH 8 0
BBX 8 8 0 0
BITMAP
F7
24
28
30
38
2C
26
77
ENDCHAR
STARTCHAR 1D0C
ENCODING 7436
SWIDTH 411 0
DWIDTH 8 0
BBX 8 9 0 -1
BITMAP
F0
20
20
30
60
A0
21
77
08
ENDCHAR
STARTCHAR 1D0D
ENCODING 7437
SWIDTH 565 0
DWIDTH 11 0
BBX 11 8 0 0
BITMAP
6060
20C0
30C0
51C0
5AC0
4AC0
4CC0
E5E0
ENDCHAR
STARTCHAR 1D0E
ENCODING 7438
SWIDTH 411 0
DWIDTH 8 0
BBX 9 8 0 0
BITMAP
E380
4200
4600
4A00
5A00
7200
6200
4300
ENDCHAR
STARTCHAR 1D0F
ENCODING 7439
SWIDTH 462 0
DWIDTH 9 0
BBX 7 9 1 -1
BITMAP
78
C6
82
82
82
82
C2
6C
10
ENDCHAR
STARTCHAR 1D10
ENCODING 7440
SWIDTH 411 0
DWIDTH 8 0
BBX 7 9 1 -1
BITMAP
F8
04
06
06
06
06
04
D8
20
ENDCHAR
STARTCHAR 1D11
ENCODING 7441
SWIDTH 462 0
DWIDTH 9 0
BBX 9 8 0 0
BITMAP
0C00
3F00
6180
4080
8080
4080
3300
1E00
ENDCHAR
STARTCHAR 1D12
ENCODING 7442
SWIDTH 462 0
DWIDTH 9 0
BBX 8 6 1 0
BITMAP
7C
E6
81
81
81
83
ENDCHAR
STARTCHAR 1D13
ENCODING 7443
SWIDTH 462 0
DWIDTH 9 0
BBX 9 8 0 0
BITMAP
0C00
BF00
6180
5080
8C80
4280
7380
3E00
ENDCHAR
STARTCHAR 1D14
ENCODING 7444
SWIDTH 720 0
DWIDTH 14 0
BBX 12 9 1 -1
BITMAP
73C0
1E20
0C10
0410
0410
FC10
8E30
5B60
2080
ENDCHAR
STARTCHAR 1D15
ENCODING 7445
SWIDTH 308 0
DWIDTH 6 0
BBX 6 9 0 -1
BITMAP
44
44
38
4C
C4
C4
44
68
10
ENDCHAR
STARTCHAR 1D16
ENCODING 7446
SWIDTH 462 0
DWIDTH 9 0
BBX 8 4 1 4
BITMAP
3C
46
C2
83
ENDCHAR
STARTCHAR 1D17
ENCODING 7447
SWIDTH 462 0
DWIDTH 9 0
BBX 8 5 1 -1
BITMAP
83
82
46
2C
10
ENDCHAR
STARTCHAR 1D18
ENCODING 7448
SWIDTH 360 0
DWIDTH 7 0
BBX 7 8 0 0
BITMAP
FC
22
22
22
3C
20
20
70
ENDCHAR
STARTCHAR 1D19
ENCODING 7449
SWIDTH 411 0
DWIDTH 8 0
BBX 8 8 1 0
BITMAP
3F
44
44
44
3C
24
44
8E
ENDCHAR
STARTCHAR 1D1A
ENCODING 7450
SWIDTH 411 0
DWIDTH 8 0
BBX 9 9 0 -1
BITMAP
C780
2300
1300
1B00
3700
2300
2300
1300
0C00
ENDCHAR
STARTCHAR 1D1B
ENCODING 7451
SWIDTH 462 0
DWIDTH 9 0
BBX 10 8 0 0
BITMAP
FFC0
8C40
0C00
0C00
0C00
0C00
0C00
1E00
ENDCHAR
STARTCHAR 1D1C
ENCODING 7452
SWIDTH 462 0
DWIDTH 9 0
BBX 9 9 0 -1
BITMAP
F380
6100
6100
6100
6100
2100
2100
3200
0C00
ENDCHAR
STARTCHAR 1D1D
ENCODING 7453
SWIDTH 462 0
DWIDTH 9 0
BBX 8 7 1 0
BITMAP
02
FF
02
01
01
02
FC
ENDCHAR
STARTCHAR 1D1E
ENCODING 7454
SWIDTH 565 0
DWIDTH 11 0
BBX 11 9 0 -1
BITMAP
0020
0020
5FE0
5020
0020
0020
C060
1FC0
1000
ENDCHAR
STARTCHAR 1D1F
ENCODING 7455
SWIDTH 462 0
DWIDTH 9 0
BBX 8 12 1 -2
BITMAP
FE
FF
02
01
01
FF
FE
02
01
01
87
FE
ENDCHAR
STARTCHAR 1D20
ENCODING 7456
SWIDTH 411 0
DWIDTH 8 0
BBX 8 8 0 0
BITMAP
E3
42
24
24
34
18
18
10
ENDCHAR
STARTCHAR 1D21
ENCODING 7457
SWIDTH 617 0
DWIDTH 12 0
BBX 12 8 0 0
BITMAP
EDB0
4D20
2640
2640
3680
1780
1980
0900
ENDCHAR
STARTCHAR 1D22
ENCODING 7458
SWIDTH 411 0
DWIDTH 8 0
BBX 7 8 1 0
BITMAP
FE
8C
08
10
30
60
C2
FE
ENDCHAR
STARTCHAR 1D23
ENCODING 7459
SWIDTH 308 0
DWIDTH 6 0
BBX 5 9 1 -1
BITMAP
F0
20
40
B0
18
18
10
B0
40
ENDCHAR
STARTCHAR 1D24
ENCODING 7460
SWIDTH 360 0
DWIDTH 7 0
BBX 7 15 0 -3
BITMAP
7C
C4
C6
06
06
0C
10
10
60
C0
C4
C4
44
64
18
ENDCHAR
STARTCHAR 1D25
ENCODING 7461
SWIDTH 565 0
DWIDTH 11 0
BBX 11 9 0 -1
BITMAP
0F00
1F80
3FC0
3FC0
1F80
9FA0
4F20
2F40
1080
ENDCHAR
STARTCHAR 1D26
ENCODING 7462
SWIDTH 411 0
DWIDTH 8 0
BBX 8 8 0 0
BITMAP
FF
21
20
20
20
20
20
70
ENDCHAR
STARTCHAR 1D27
ENCODING 7463
SWIDTH 411 0
DWIDTH 8 0
BBX 8 8 0 0
BITMAP
08
08
14
24
24
22
42
E7
ENDCHAR
STARTCHAR 1D28
ENCODING 7464
SWIDTH 462 0
DWIDTH 9 0
BBX 8 8 1 0
BITMAP
FF
42
42
42
42
42
42
E7
ENDCHAR
STARTCHAR 1D29
ENCODING 7465
SWIDTH 360 0
DWIDTH 7 0
BBX 7 8 0 0
BITMAP
FC
22
22
22
3C
20
20
70
ENDCHAR
STARTCHAR 1D2A
ENCODING 7466
SWIDTH 411 0
DWIDTH 8 0
BBX 7 8 1 0
BITMAP
3A
92
92
92
92
7C
10
38
ENDCHAR
STARTCHAR 1D2B
ENCODING 7467
SWIDTH 411 0
DWIDTH 8 0
BBX 8 9 0 -1
BITMAP
7F
26
26
26
26
26
26
4F
80
ENDCHAR
STARTCHAR 1D2C
ENCODING 7468
SWIDTH 360 0
DWIDTH 7 0
BBX 6 7 1 5
BITMAP
30
50
50
48
B8
88
84
ENDCHAR
STARTCHAR 1D2D
ENCODING 7469
SWIDTH 462 0
DWIDTH 9 0
BBX 9 8 0 4
BITMAP
0F80
3880
2900
3E00
4900
8800
8C80
0300
ENDCHAR
STARTCHAR 1D2E
ENCODING 7470
SWIDTH 308 0
DWIDTH 6 0
BBX 5 8 1 4
BITMAP
F8
88
90
F0
88
88
C8
30
ENDCHAR
STARTCHAR 1D2F
ENCODING 7471
SWIDTH 308 0
DWIDTH 6 0
BBX 5 8 1 4
BITMAP
F8
88
90
F0
88
88
C8
30
ENDCHAR
STARTCHAR 1D30
ENCODING 7472
SWIDTH 411 0
DWIDTH 8 0
BBX 7 8 1 4
BITMAP
FC
86
82
82
82
84
C8
30
ENDCHAR
STARTCHAR 1D31
ENCODING 7473
SWIDTH 308 0
DWIDTH 6 0
BBX 5 8 1 4
BITMAP
F8
80
90
70
90
80
C8
30
ENDCHAR
STARTCHAR 1D32
ENCODING 7474
SWIDTH 308 0
DWIDTH 6 0
BBX 6 8 0 4
BITMAP
F8
88
08
38
08
08
48
34
ENDCHAR
STARTCHAR 1D33
ENCODING 7475
SWIDTH 360 0
DWIDTH 7 0
BBX 7 9 1 4
BITMAP
30
4C
80
80
80
8E
84
44
38
ENDCHAR
STARTCHAR 1D34
ENCODING 7476
SWIDTH 462 0
DWIDTH 9 0
BBX 7 7 1 5
BITMAP
82
82
82
7E
82
82
C2
ENDCHAR
STARTCHAR 1D35
ENCODING 7477
SWIDTH 154 0
DWIDTH 3 0
BBX 2 7 1 5
BITMAP
80
80
80
80
80
80
C0
ENDCHAR
STARTCHAR 1D36
ENCODING 7478
SWIDTH 154 0
DWIDTH 3 0
BBX 4 9 0 3
BITMAP
70
20
20
20
20
40
40
40
C0
ENDCHAR
STARTCHAR 1D37
ENCODING 7479
SWIDTH 360 0
DWIDTH 7 0
BBX 6 8 1 4
BITMAP
C8
90
A0
60
90
98
C8
04
ENDCHAR
STARTCHAR 1D38
ENCODING 7480
SWIDTH 360 0
DWIDTH 7 0
BBX 6 8 1 4
BITMAP
80
80
80
80
80
80
C4
38
ENDCHAR
STARTCHAR 1D39
ENCODING 7481
SWIDTH 514 0
DWIDTH 10 0
BBX 8 7 1 5
BITMAP
C1
43
A5
A5
99
99
91
ENDCHAR
STARTCHAR 1D3A
ENCODING 7482
SWIDTH 411 0
DWIDTH 8 0
BBX 6 7 1 5
BITMAP
C0
E4
A4
94
8C
84
84
ENDCHAR
STARTCHAR 1D3B
ENCODING 7483
SWIDTH 411 0
DWIDTH 8 0
BBX 6 7 1 5
BITMAP
8C
8C
94
A4
E4
C4
84
ENDCHAR
STARTCHAR 1D3C
ENCODING 7484
SWIDTH 411 0
DWIDTH 8 0
BBX 7 9 1 4
BITMAP
30
CC
84
82
82
82
84
48
30
ENDCHAR
STARTCHAR 1D3D
ENCODING 7485
SWIDTH 308 0
DWIDTH 6 0
BBX 6 9 0 4
BITMAP
04
44
28
58
44
C4
44
68
10
ENDCHAR
STARTCHAR 1D3E
ENCODING 7486
SWIDTH 308 0
DWIDTH 6 0
BBX 5 7 1 5
BITMAP
F8
88
88
70
80
80
C0
ENDCHAR
STARTCHAR 1D3F
ENCODING 7487
SWIDTH 360 0
DWIDTH 7 0
BBX 6 7 1 5
BITMAP
F8
88
88
70
90
88
C4
ENDCHAR
STARTCHAR 1D40
ENCODING 7488
SWIDTH 411 0
DWIDTH 8 0
BBX 9 7 0 5
BITMAP
FF80
8880
0800
0800
0800
0800
0800
ENDCHAR
STARTCHAR 1D41
ENCODING 7489
SWIDTH 411 0
DWIDTH 8 0
BBX 7 8 1 4
BITMAP
C6
84
84
84
84
84
48
30
ENDCHAR
STARTCHAR 1D42
ENCODING 7490
SWIDTH 514 0
DWIDTH 10 0
BBX 10 7 1 5
BITMAP
90C0
9480
4900
4900
3600
3600
0200
ENDCHAR
STARTCHAR 1D43
ENCODING 7491
SWIDTH 205 0
DWIDTH 4 0
BBX 5 6 0 4
BITMAP
60
90
30
D0
B0
48
ENDCHAR
STARTCHAR 1D44
ENCODING 7492
SWIDTH 205 0
DWIDTH 4 0
BBX 4 6 0 4
BITMAP
D0
70
60
40
50
20
ENDCHAR
STARTCHAR 1D45
ENCODING 7493
SWIDTH 257 0
DWIDTH 5 0
BBX 6 6 0 4
BITMAP
38
48
88
88
48
34
ENDCHAR
STARTCHAR 1D46
ENCODING 7494
SWIDTH 308 0
DWIDTH 6 0
BBX 6 6 0 4
BITMAP
6C
14
18
30
D4
68
ENDCHAR
STARTCHAR 1D47
ENCODING 7495
SWIDTH 257 0
DWIDTH 5 0
BBX 5 9 0 4
BITMAP
C0
40
40
70
48
48
48
48
30
ENDCHAR
STARTCHAR 1D48
ENCODING 7496
SWIDTH 257 0
DWIDTH 5 0
BBX 5 9 0 4
BITMAP
18
08
08
38
48
88
88
48
30
ENDCHAR
STARTCHAR 1D49
ENCODING 7497
SWIDTH 205 0
DWIDTH 4 0
BBX 4 6 0 4
BITMAP
20
D0
E0
80
40
20
ENDCHAR
STARTCHAR 1D4A
ENCODING 7498
SWIDTH 205 0
DWIDTH 4 0
BBX 3 6 1 4
BITMAP
C0
20
20
E0
A0
40
ENDCHAR
STARTCHAR 1D4B
ENCODING 7499
SWIDTH 205 0
DWIDTH 4 0
BBX 4 6 0 4
BITMAP
60
80
60
80
D0
20
ENDCHAR
STARTCHAR 1D4C
ENCODING 7500
SWIDTH 205 0
DWIDTH 4 0
BBX 3 6 1 4
BITMAP
C0
20
40
20
20
C0
ENDCHAR
STARTCHAR 1D4D
ENCODING 7501
SWIDTH 257 0
DWIDTH 5 0
BBX 5 9 0 1
BITMAP
30
D0
90
60
80
78
88
50
20
ENDCHAR
STARTCHAR 1D4E
ENCODING 7502
SWIDTH 102 0
DWIDTH 2 0
BBX 3 8 0 2
BITMAP
E0
40
40
40
40
00
00
40
ENDCHAR
STARTCHAR 1D4F
ENCODING 7503
SWIDTH 257 0
DWIDTH 5 0
BBX 4 8 1 5
BITMAP
80
80
80
B0
A0
C0
A0
90
ENDCHAR
STARTCHAR 1D50
ENCODING 7504
SWIDTH 411 0
DWIDTH 8 0
BBX 8 6 1 4
BITMAP
A4
DA
92
92
92
01
ENDCHAR
STARTCHAR 1D51
ENCODING 7505
SWIDTH 257 0
DWIDTH 5 0
BBX 4 8 1 2
BITMAP
A0
D0
90
90
90
10
10
60
ENDCHAR
STARTCHAR 1D52
ENCODING 7506
SWIDTH 257 0
DWIDTH 5 0
BBX 5 6 0 4
BITMAP
30
48
88
88
48
30
ENDCHAR
STARTCHAR 1D53
ENCODING 7507
SWIDTH 205 0
DWIDTH 4 0
BBX 3 6 1 4
BITMAP
C0
20
20
20
20
40
ENDCHAR
STARTCHAR 1D54
ENCODING 7508
SWIDTH 257 0
DWIDTH 5 0
BBX 5 3 0 7
BITMAP
30
48
88
ENDCHAR
STARTCHAR 1D55
ENCODING 7509
SWIDTH 257 0
DWIDTH 5 0
BBX 4 3 1 4
BITMAP
10
90
60
ENDCHAR
STARTCHAR 1D56
ENCODING 7510
SWIDTH 257 0
DWIDTH 5 0
BBX 4 8 1 2
BITMAP
E0
90
90
90
90
E0
80
80
ENDCHAR
STARTCHAR 1D57
ENCODING 7511
SWIDTH 154 0
DWIDTH 3 0
BBX 3 6 1 4
BITMAP
E0
80
80
80
A0
40
ENDCHAR
STARTCHAR 1D58
ENCODING 7512
SWIDTH 257 0
DWIDTH 5 0
BBX 6 6 0 4
BITMAP
D8
48
48
48
58
24
ENDCHAR
STARTCHAR 1D59
ENCODING 7513
SWIDTH 257 0
DWIDTH 5 0
BBX 5 5 0 4
BITMAP
F8
88
08
F8
80
ENDCHAR
STARTCHAR 1D5A
ENCODING 7514
SWIDTH 411 0
DWIDTH 8 0
BBX 9 6 0 4
BITMAP
FF80
4900
4900
4900
4980
3600
ENDCHAR
STARTCHAR 1D5B
ENCODING 7515
SWIDTH 205 0
DWIDTH 4 0
BBX 5 5 0 5
BITMAP
D8
50
50
60
20
ENDCHAR
STARTCHAR 1D5C
ENCODING 7516
SWIDTH 360 0
DWIDTH 7 0
BBX 7 6 0 4
BITMAP
38
7C
7C
BA
94
68
ENDCHAR
STARTCHAR 1D5D
ENCODING 7517
SWIDTH 257 0
DWIDTH 5 0
BBX 5 10 0 2
BITMAP
70
90
90
90
88
88
90
E0
80
40
ENDCHAR
STARTCHAR 1D5E
ENCODING 7518
SWIDTH 205 0
DWIDTH 4 0
BBX 4 7 0 3
BITMAP
D0
50
60
60
20
20
20
ENDCHAR
STARTCHAR 1D5F
ENCODING 7519
SWIDTH 257 0
DWIDTH 5 0
BBX 5 8 0 4
BITMAP
20
C0
40
70
88
88
50
20
ENDCHAR
STARTCHAR 1D60
ENCODING 7520
SWIDTH 411 0
DWIDTH 8 0
BBX 8 8 0 2
BITMAP
36
49
89
89
4A
3C
08
08
ENDCHAR
STARTCHAR 1D61
ENCODING 7521
SWIDTH 308 0
DWIDTH 6 0
BBX 6 8 0 2
BITMAP
48
A8
30
10
20
30
54
48
ENDCHAR
STARTCHAR 1D62
ENCODING 7522
SWIDTH 102 0
DWIDTH 2 0
BBX 2 9 1 -3
BITMAP
80
00
00
00
80
80
80
80
40
ENDCHAR
STARTCHAR 1D63
ENCODING 7523
SWIDTH 154 0
DWIDTH 3 0
BBX 3 5 1 -2
BITMAP
A0
C0
80
80
80
ENDCHAR
STARTCHAR 1D64
ENCODING 7524
SWIDTH 257 0
DWIDTH 5 0
BBX 6 6 0 -3
BITMAP
D8
48
48
48
48
34
ENDCHAR
STARTCHAR 1D65
ENCODING 7525
SWIDTH 205 0
DWIDTH 4 0
BBX 5 5 0 -2
BITMAP
D8
50
50
60
20
ENDCHAR
STARTCHAR 1D66
ENCODING 7526
SWIDTH 257 0
DWIDTH 5 0
BBX 5 10 0 -5
BITMAP
70
90
90
90
88
88
90
E0
00
40
ENDCHAR
STARTCHAR 1D67
ENCODING 7527
SWIDTH 205 0
DWIDTH 4 0
BBX 4 7 0 -4
BITMAP
D0
50
60
60
20
20
20
ENDCHAR
STARTCHAR 1D68
ENCODING 7528
SWIDTH 205 0
DWIDTH 4 0
BBX 5 8 0 -5
BITMAP
20
D0
88
90
90
E0
80
80
ENDCHAR
STARTCHAR 1D69
ENCODING 7529
SWIDTH 411 0
DWIDTH 8 0
BBX 8 8 0 -5
BITMAP
26
49
89
89
49
3E
08
08
ENDCHAR
STARTCHAR 1D6A
ENCODING 7530
SWIDTH 308 0
DWIDTH 6 0
BBX 6 8 0 -5
BITMAP
48
A8
30
10
20
30
54
48
ENDCHAR
STARTCHAR 1D6B
ENCODING 7531
SWIDTH 668 0
DWIDTH 13 0
BBX 13 8 0 0
BITMAP
E7F0
2198
21F8
2100
2100
2100
2380
1CF0
ENDCHAR
STARTCHAR 1E00
ENCODING 7680
SWIDTH 617 0
DWIDTH 12 0
BBX 13 18 0 -5
BITMAP
0200
0700
0700
0500
0980
0980
1080
1FC0
10C0
2040
2060
2060
F0F8
0000
0200
0500
0900
0700
ENDCHAR
STARTCHAR 1E01
ENCODING 7681
SWIDTH 360 0
DWIDTH 7 0
BBX 6 13 1 -5
BITMAP
78
98
98
18
78
98
98
EC
00
20
50
90
70
ENDCHAR
STARTCHAR 1E02
ENCODING 7682
SWIDTH 565 0
DWIDTH 11 0
BBX 9 17 1 0
BITMAP
0800
1800
0000
0000
FC00
6300
2100
2180
2100
2300
3E00
2180
2080
2080
2080
6180
FF00
ENDCHAR
STARTCHAR 1E03
ENCODING 7683
SWIDTH 462 0
DWIDTH 9 0
BBX 9 15 0 -1
BITMAP
2000
E000
6400
6C00
6000
6000
7E00
6300
6100
6180
6180
6100
6100
7200
0C00
ENDCHAR
STARTCHAR 1E04
ENCODING 7684
SWIDTH 565 0
DWIDTH 11 0
BBX 9 16 1 -3
BITMAP
FC00
6300
2100
2180
2100
2300
3E00
2180
2080
2080
2080
6180
FF00
0000
0000
1800
ENDCHAR
STARTCHAR 1E05
ENCODING 7685
SWIDTH 462 0
DWIDTH 9 0
BBX 9 17 0 -3
BITMAP
2000
E000
6000
6000
6000
6000
7E00
6300
6100
6180
6180
6100
6100
7200
0C00
0000
0C00
ENDCHAR
STARTCHAR 1E06
ENCODING 7686
SWIDTH 565 0
DWIDTH 11 0
BBX 9 16 1 -3
BITMAP
FC00
6300
2100
2180
2100
2300
3E00
2180
2080
2080
2080
6180
FF00
0000
0000
3E00
ENDCHAR
STARTCHAR 1E07
ENCODING 7687
SWIDTH 462 0
DWIDTH 9 0
BBX 9 17 0 -3
BITMAP
2000
E000
6000
6000
6000
6000
7E00
6300
6100
6180
6180
6100
6100
7200
0C00
0000
3E00
ENDCHAR
STARTCHAR 1E08
ENCODING 7688
SWIDTH 617 0
DWIDTH 12 0
BBX 11 23 1 -5
BITMAP
0040
00C0
0300
0400
0000
0F80
3060
6020
4020
C000
C000
C000
C000
C000
C000
6020
3060
1DC0
0600
0600
0200
0A00
0400
ENDCHAR
STARTCHAR 1E09
ENCODING 7689
SWIDTH 360 0
DWIDTH 7 0
BBX 6 18 1 -5
BITMAP
0C
08
08
00
00
3C
44
C0
80
80
C0
C0
7C
20
30
10
50
20
ENDCHAR
STARTCHAR 1E0A
ENCODING 7690
SWIDTH 720 0
DWIDTH 14 0
BBX 12 17 1 0
BITMAP
0400
0C00
0000
0000
FE00
61C0
2060
2030
2030
2030
2010
2030
2030
2030
2060
60C0
FF80
ENDCHAR
STARTCHAR 1E0B
ENCODING 7691
SWIDTH 462 0
DWIDTH 9 0
BBX 8 14 1 0
BITMAP
02
0E
26
66
06
06
3E
46
86
86
86
86
C6
7F
ENDCHAR
STARTCHAR 1E0C
ENCODING 7692
SWIDTH 720 0
DWIDTH 14 0
BBX 12 16 1 -3
BITMAP
FE00
61C0
2060
2030
2030
2030
2010
2030
2030
2030
2060
60C0
FF80
0000
0000
0C00
ENDCHAR
STARTCHAR 1E0D
ENCODING 7693
SWIDTH 462 0
DWIDTH 9 0
BBX 8 17 1 -3
BITMAP
02
0E
06
06
06
06
3E
46
86
86
86
86
C6
7F
00
00
18
ENDCHAR
STARTCHAR 1E0E
ENCODING 7694
SWIDTH 720 0
DWIDTH 14 0
BBX 12 16 1 -3
BITMAP
FE00
61C0
2060
2030
2030
2030
2010
2030
2030
2030
2060
60C0
FF80
0000
0000
1F00
ENDCHAR
STARTCHAR 1E0F
ENCODING 7695
SWIDTH 462 0
DWIDTH 9 0
BBX 8 17 1 -3
BITMAP
02
0E
06
06
06
06
3E
46
86
86
86
86
C6
7F
00
00
7C
ENDCHAR
STARTCHAR 1E10
ENCODING 7696
SWIDTH 720 0
DWIDTH 14 0
BBX 12 18 1 -5
BITMAP
FE00
61C0
2060
2030
2030
2030
2010
2030
2030
2030
2060
60C0
FF80
0800
0C00
0400
1400
0800
ENDCHAR
STARTCHAR 1E11
ENCODING 7697
SWIDTH 462 0
DWIDTH 9 0
BBX 8 19 1 -5
BITMAP
02
0E
06
06
06
06
3E
46
86
86
86
86
C6
7F
10
18
08
28
10
ENDCHAR
STARTCHAR 1E12
ENCODING 7698
SWIDTH 720 0
DWIDTH 14 0
BBX 12 18 1 -5
BITMAP
FE00
61C0
2060
2030
2030
2030
2010
2030
2030
2030
2060
60C0
FF80
0000
0400
0A00
1200
1000
ENDCHAR
STARTCHAR 1E13
ENCODING 7699
SWIDTH 462 0
DWIDTH 9 0
BBX 8 19 1 -5
BITMAP
02
0E
06
06
06
06
3E
46
86
86
86
86
C6
7F
00
10
28
48
40
ENDCHAR
STARTCHAR 1E14
ENCODING 7700
SWIDTH 565 0
DWIDTH 11 0
BBX 10 21 1 0
BITMAP
4000
6000
1800
0400
0000
7E00
0000
0000
FF80
6180
2080
2080
2000
2200
2200
3E00
2200
2000
2040
2040
FFC0
ENDCHAR
STARTCHAR 1E15
ENCODING 7701
SWIDTH 360 0
DWIDTH 7 0
BBX 6 16 1 0
BITMAP
20
10
10
00
00
F8
00
00
38
44
FC
80
80
C0
C0
78
ENDCHAR
STARTCHAR 1E16
ENCODING 7702
SWIDTH 565 0
DWIDTH 11 0
BBX 10 21 1 0
BITMAP
0100
0300
0C00
1000
0000
7E00
0000
0000
FF80
6180
2080
2080
2000
2200
2200
3E00
2200
2000
2040
2040
FFC0
ENDCHAR
STARTCHAR 1E17
ENCODING 7703
SWIDTH 360 0
DWIDTH 7 0
BBX 6 16 1 0
BITMAP
0C
08
08
00
00
F8
00
00
38
44
FC
80
80
C0
C0
78
ENDCHAR
STARTCHAR 1E18
ENCODING 7704
SWIDTH 565 0
DWIDTH 11 0
BBX 10 18 1 -5
BITMAP
FF80
6180
2080
2080
2000
2200
2200
3E00
2200
2000
2040
2040
FFC0
0000
0400
0A00
1200
1000
ENDCHAR
STARTCHAR 1E19
ENCODING 7705
SWIDTH 360 0
DWIDTH 7 0
BBX 6 13 1 -5
BITMAP
38
44
FC
80
80
C0
C0
78
00
20
50
90
80
ENDCHAR
STARTCHAR 1E1A
ENCODING 7706
SWIDTH 565 0
DWIDTH 11 0
BBX 10 16 1 -3
BITMAP
FF80
6180
2080
2080
2000
2200
2200
3E00
2200
2000
2040
2040
FFC0
0000
0000
3E00
ENDCHAR
STARTCHAR 1E1B
ENCODING 7707
SWIDTH 360 0
DWIDTH 7 0
BBX 6 11 1 -3
BITMAP
38
44
FC
80
80
C0
C0
78
00
00
F8
ENDCHAR
STARTCHAR 1E1C
ENCODING 7708
SWIDTH 565 0
DWIDTH 11 0
BBX 10 22 1 -5
BITMAP
0200
3E00
0800
0000
FF80
6180
2080
2080
2000
2200
2200
3E00
2200
2000
2040
2040
FFC0
1000
1800
0800
2800
1000
ENDCHAR
STARTCHAR 1E1D
ENCODING 7709
SWIDTH 360 0
DWIDTH 7 0
BBX 6 17 1 -5
BITMAP
04
7C
10
00
38
44
FC
80
80
C0
C0
78
20
30
10
50
20
ENDCHAR
STARTCHAR 1E1E
ENCODING 7710
SWIDTH 514 0
DWIDTH 10 0
BBX 9 17 1 0
BITMAP
0400
0C00
0000
0000
FF80
6080
2080
2000
2200
2400
3C00
2400
2000
2000
2000
6000
F800
ENDCHAR
STARTCHAR 1E1F
ENCODING 7711
SWIDTH 257 0
DWIDTH 5 0
BBX 7 18 1 0
BITMAP
08
18
00
00
0E
36
40
40
40
40
F8
40
40
40
40
40
40
E0
ENDCHAR
STARTCHAR 1E20
ENCODING 7712
SWIDTH 668 0
DWIDTH 13 0
BBX 12 17 1 -1
BITMAP
1F80
0000
0000
0F80
3060
6020
4020
C000
C000
C000
C000
C1F0
C040
6040
3040
1DE0
0200
ENDCHAR
STARTCHAR 1E21
ENCODING 7713
SWIDTH 411 0
DWIDTH 8 0
BBX 8 16 1 -5
BITMAP
F8
00
00
78
C6
84
84
CC
70
80
FC
7F
83
81
82
FC
ENDCHAR
STARTCHAR 1E22
ENCODING 7714
SWIDTH 771 0
DWIDTH 15 0
BBX 13 17 1 0
BITMAP
0200
0600
0000
0000
F8F8
6030
2030
2030
2030
2030
3FF0
2030
2030
2030
2030
6030
F8F8
ENDCHAR
STARTCHAR 1E23
ENCODING 7715
SWIDTH 514 0
DWIDTH 10 0
BBX 8 18 1 0
BITMAP
08
18
00
00
00
C0
40
40
40
40
5E
62
43
43
43
43
43
E3
ENDCHAR
STARTCHAR 1E24
ENCODING 7716
SWIDTH 771 0
DWIDTH 15 0
BBX 13 16 1 -3
BITMAP
F8F8
6030
2030
2030
2030
2030
3FF0
2030
2030
2030
2030
6030
F8F8
0000
0000
0600
ENDCHAR
STARTCHAR 1E25
ENCODING 7717
SWIDTH 514 0
DWIDTH 10 0
BBX 8 16 1 -3
BITMAP
C0
40
40
40
40
5E
62
43
43
43
43
43
E3
00
00
18
ENDCHAR
STARTCHAR 1E26
ENCODING 7718
SWIDTH 771 0
DWIDTH 15 0
BBX 13 16 1 0
BITMAP
0CC0
0800
0000
F8F8
6030
2030
2030
2030
2030
3FF0
2030
2030
2030
2030
6030
F8F8
ENDCHAR
STARTCHAR 1E27
ENCODING 7719
SWIDTH 514 0
DWIDTH 10 0
BBX 8 18 1 0
BITMAP
64
66
00
00
00
C0
40
40
40
40
5E
62
43
43
43
43
43
E3
ENDCHAR
STARTCHAR 1E28
ENCODING 7720
SWIDTH 771 0
DWIDTH 15 0
BBX 13 18 1 -5
BITMAP
F8F8
6030
2030
2030
2030
2030
3FF0
2030
2030
2030
2030
6030
F8F8
1000
1800
0800
2800
1000
ENDCHAR
STARTCHAR 1E29
ENCODING 7721
SWIDTH 514 0
DWIDTH 10 0
BBX 8 18 1 -5
BITMAP
C0
40
40
40
40
5E
62
43
43
43
43
43
E3
20
30
10
50
20
ENDCHAR
STARTCHAR 1E2A
ENCODING 7722
SWIDTH 771 0
DWIDTH 15 0
BBX 13 17 1 -4
BITMAP
F8F8
6030
2030
2030
2030
2030
3FF0
2030
2030
2030
2030
6030
F8F8
0000
0080
0F80
0200
ENDCHAR
STARTCHAR 1E2B
ENCODING 7723
SWIDTH 514 0
DWIDTH 10 0
BBX 8 17 1 -4
BITMAP
C0
40
40
40
40
5E
62
43
43
43
43
43
E3
00
02
3E
08
ENDCHAR
STARTCHAR 1E2C
ENCODING 7724
SWIDTH 308 0
DWIDTH 6 0
BBX 5 16 1 -3
BITMAP
F8
60
20
20
20
20
20
20
20
20
20
60
F8
00
00
F8
ENDCHAR
STARTCHAR 1E2D
ENCODING 7725
SWIDTH 205 0
DWIDTH 4 0
BBX 5 15 0 -3
BITMAP
20
60
00
00
20
60
20
20
20
20
20
70
00
00
F8
ENDCHAR
STARTCHAR 1E2E
ENCODING 7726
SWIDTH 308 0
DWIDTH 6 0
BBX 7 21 0 0
BITMAP
02
06
18
20
C8
CC
00
00
7C
30
10
10
10
10
10
10
10
10
10
30
7C
ENDCHAR
STARTCHAR 1E2F
ENCODING 7727
SWIDTH 205 0
DWIDTH 4 0
BBX 6 16 0 0
BITMAP
18
10
10
00
C8
CC
00
00
20
60
20
20
20
20
20
70
ENDCHAR
STARTCHAR 1E30
ENCODING 7728
SWIDTH 617 0
DWIDTH 12 0
BBX 12 18 1 0
BITMAP
0100
0300
0C00
1000
0000
F9C0
6180
2100
2200
2400
2800
3800
2C00
2600
2300
2300
6180
FBF0
ENDCHAR
STARTCHAR 1E31
ENCODING 7729
SWIDTH 462 0
DWIDTH 9 0
BBX 8 19 1 0
BITMAP
08
18
60
80
00
00
C0
40
40
40
40
4F
44
48
70
58
4C
46
E7
ENDCHAR
STARTCHAR 1E32
ENCODING 7730
SWIDTH 617 0
DWIDTH 12 0
BBX 12 16 1 -3
BITMAP
F9C0
6180
2100
2200
2400
2800
3800
2C00
2600
2300
2300
6180
FBF0
0000
0000
0C00
ENDCHAR
STARTCHAR 1E33
ENCODING 7731
SWIDTH 462 0
DWIDTH 9 0
BBX 8 16 1 -3
BITMAP
C0
40
40
40
40
4F
44
48
70
58
4C
46
E7
00
00
18
ENDCHAR
STARTCHAR 1E34
ENCODING 7732
SWIDTH 617 0
DWIDTH 12 0
BBX 12 16 1 -3
BITMAP
F9C0
6180
2100
2200
2400
2800
3800
2C00
2600
2300
2300
6180
FBF0
0000
0000
3E00
ENDCHAR
STARTCHAR 1E35
ENCODING 7733
SWIDTH 462 0
DWIDTH 9 0
BBX 8 16 1 -3
BITMAP
C0
40
40
40
40
4F
44
48
70
58
4C
46
E7
00
00
7C
ENDCHAR
STARTCHAR 1E36
ENCODING 7734
SWIDTH 617 0
DWIDTH 12 0
BBX 11 16 1 -3
BITMAP
F800
6000
2000
2000
2000
2000
2000
2000
2000
2020
2020
2060
FFE0
0000
0000
0C00
ENDCHAR
STARTCHAR 1E37
ENCODING 7735
SWIDTH 205 0
DWIDTH 4 0
BBX 3 16 1 -3
BITMAP
C0
40
40
40
40
40
40
40
40
40
40
40
E0
00
00
C0
ENDCHAR
STARTCHAR 1E38
ENCODING 7736
SWIDTH 617 0
DWIDTH 12 0
BBX 12 19 0 -3
BITMAP
F800
0000
0000
7C00
3000
1000
1000
1000
1000
1000
1000
1000
1010
1010
1030
7FF0
0000
0200
0600
ENDCHAR
STARTCHAR 1E39
ENCODING 7737
SWIDTH 205 0
DWIDTH 4 0
BBX 5 20 0 -3
BITMAP
F8
00
00
00
60
20
20
20
20
20
20
20
20
20
20
20
70
00
20
60
ENDCHAR
STARTCHAR 1E3A
ENCODING 7738
SWIDTH 617 0
DWIDTH 12 0
BBX 11 16 1 -3
BITMAP
F800
6000
2000
2000
2000
2000
2000
2000
2000
2020
2020
2060
FFE0
0000
0000
3E00
ENDCHAR
STARTCHAR 1E3B
ENCODING 7739
SWIDTH 205 0
DWIDTH 4 0
BBX 5 16 0 -3
BITMAP
60
20
20
20
20
20
20
20
20
20
20
20
70
00
00
F8
ENDCHAR
STARTCHAR 1E3C
ENCODING 7740
SWIDTH 617 0
DWIDTH 12 0
BBX 11 18 1 -5
BITMAP
F800
6000
2000
2000
2000
2000
2000
2000
2000
2020
2020
2060
FFE0
0000
0400
0A00
1200
1000
ENDCHAR
STARTCHAR 1E3D
ENCODING 7741
SWIDTH 205 0
DWIDTH 4 0
BBX 4 18 0 -5
BITMAP
60
20
20
20
20
20
20
20
20
20
20
20
70
00
20
50
90
80
ENDCHAR
STARTCHAR 1E3E
ENCODING 7742
SWIDTH 874 0
DWIDTH 17 0
BBX 16 18 1 0
BITMAP
0020
0060
0180
0200
0000
C007
600C
300C
501C
582C
482C
4C4C
4C4C
444C
468C
428C
430C
E11E
ENDCHAR
STARTCHAR 1E3F
ENCODING 7743
SWIDTH 720 0
DWIDTH 14 0
BBX 13 13 1 0
BITMAP
00C0
0080
0080
0000
0000
5CE0
E310
4210
4210
4210
4210
4210
E738
ENDCHAR
STARTCHAR 1E40
ENCODING 7744
SWIDTH 874 0
DWIDTH 17 0
BBX 16 17 1 0
BITMAP
0100
0300
0000
0000
C007
600C
300C
501C
582C
482C
4C4C
4C4C
444C
468C
428C
430C
E11E
ENDCHAR
STARTCHAR 1E41
ENCODING 7745
SWIDTH 720 0
DWIDTH 14 0
BBX 13 12 1 0
BITMAP
0200
0600
0000
0000
5CE0
E310
4210
4210
4210
4210
4210
E738
ENDCHAR
STARTCHAR 1E42
ENCODING 7746
SWIDTH 874 0
DWIDTH 17 0
BBX 16 16 1 -3
BITMAP
C007
600C
300C
501C
582C
482C
4C4C
4C4C
444C
468C
428C
430C
E11E
0000
0000
0300
ENDCHAR
STARTCHAR 1E43
ENCODING 7747
SWIDTH 720 0
DWIDTH 14 0
BBX 13 11 1 -3
BITMAP
5CE0
E310
4210
4210
4210
4210
4210
E738
0000
0000
0600
ENDCHAR
STARTCHAR 1E44
ENCODING 7748
SWIDTH 668 0
DWIDTH 13 0
BBX 12 17 1 0
BITMAP
0400
0C00
0000
0000
C070
6020
7020
5820
4C20
4420
4620
4320
41A0
40E0
40E0
4060
F020
ENDCHAR
STARTCHAR 1E45
ENCODING 7749
SWIDTH 462 0
DWIDTH 9 0
BBX 8 12 1 0
BITMAP
08
18
00
00
5C
E2
42
42
42
42
42
E7
ENDCHAR
STARTCHAR 1E46
ENCODING 7750
SWIDTH 668 0
DWIDTH 13 0
BBX 12 16 1 -3
BITMAP
C070
6020
7020
5820
4C20
4420
4620
4320
41A0
40E0
40E0
4060
F020
0000
0000
0600
ENDCHAR
STARTCHAR 1E47
ENCODING 7751
SWIDTH 462 0
DWIDTH 9 0
BBX 8 11 1 -3
BITMAP
5C
E2
42
42
42
42
42
E7
00
00
18
ENDCHAR
STARTCHAR 1E48
ENCODING 7752
SWIDTH 668 0
DWIDTH 13 0
BBX 12 16 1 -3
BITMAP
C070
6020
7020
5820
4C20
4420
4620
4320
41A0
40E0
40E0
4060
F020
0000
0000
1F00
ENDCHAR
STARTCHAR 1E49
ENCODING 7753
SWIDTH 462 0
DWIDTH 9 0
BBX 8 11 1 -3
BITMAP
5C
E2
42
42
42
42
42
E7
00
00
7C
ENDCHAR
STARTCHAR 1E4A
ENCODING 7754
SWIDTH 668 0
DWIDTH 13 0
BBX 12 18 1 -5
BITMAP
C070
6020
7020
5820
4C20
4420
4620
4320
41A0
40E0
40E0
4060
F020
0000
0200
0500
0900
0800
ENDCHAR
STARTCHAR 1E4B
ENCODING 7755
SWIDTH 462 0
DWIDTH 9 0
BBX 8 13 1 -5
BITMAP
5C
E2
42
42
42
42
42
E7
00
10
28
48
40
ENDCHAR
STARTCHAR 1E4C
ENCODING 7756
SWIDTH 668 0
DWIDTH 13 0
BBX 12 21 1 0
BITMAP
0040
00C0
0300
0400
0000
1F80
0200
0000
0F00
3080
6040
4060
C020
C030
C030
C030
C030
C020
6060
3040
1F80
ENDCHAR
STARTCHAR 1E4D
ENCODING 7757
SWIDTH 462 0
DWIDTH 9 0
BBX 8 17 1 -1
BITMAP
0C
08
08
00
00
7C
00
00
3C
46
C2
83
83
82
46
2C
10
ENDCHAR
STARTCHAR 1E4E
ENCODING 7758
SWIDTH 668 0
DWIDTH 13 0
BBX 12 19 1 0
BITMAP
1980
1000
0000
1F80
0200
0000
0F00
3080
6040
4060
C020
C030
C030
C030
C030
C020
6060
3040
1F80
ENDCHAR
STARTCHAR 1E4F
ENCODING 7759
SWIDTH 462 0
DWIDTH 9 0
BBX 8 16 1 -1
BITMAP
64
66
00
00
7C
00
00
3C
46
C2
83
83
82
46
2C
10
ENDCHAR
STARTCHAR 1E50
ENCODING 7760
SWIDTH 668 0
DWIDTH 13 0
BBX 12 21 1 0
BITMAP
2000
3000
0C00
0200
0000
3F00
0000
0000
0F00
3080
6040
4060
C020
C030
C030
C030
C030
C020
6060
3040
1F80
ENDCHAR
STARTCHAR 1E51
ENCODING 7761
SWIDTH 462 0
DWIDTH 9 0
BBX 8 17 1 -1
BITMAP
20
10
10
00
00
7C
00
00
3C
46
C2
83
83
82
46
2C
10
ENDCHAR
STARTCHAR 1E52
ENCODING 7762
SWIDTH 668 0
DWIDTH 13 0
BBX 12 21 1 0
BITMAP
0080
0180
0600
0800
0000
3F00
0000
0000
0F00
3080
6040
4060
C020
C030
C030
C030
C030
C020
6060
3040
1F80
ENDCHAR
STARTCHAR 1E53
ENCODING 7763
SWIDTH 462 0
DWIDTH 9 0
BBX 8 17 1 -1
BITMAP
0C
08
08
00
00
7C
00
00
3C
46
C2
83
83
82
46
2C
10
ENDCHAR
STARTCHAR 1E54
ENCODING 7764
SWIDTH 514 0
DWIDTH 10 0
BBX 9 18 1 0
BITMAP
0100
0300
0C00
1000
0000
FC00
6300
2180
2080
2080
2180
2300
3C00
2000
2000
2000
6000
F800
ENDCHAR
STARTCHAR 1E55
ENCODING 7765
SWIDTH 462 0
DWIDTH 9 0
BBX 8 19 1 -6
BITMAP
0C
08
08
00
00
5C
E2
43
43
43
43
42
64
58
40
40
40
C0
20
ENDCHAR
STARTCHAR 1E56
ENCODING 7766
SWIDTH 514 0
DWIDTH 10 0
BBX 9 17 1 0
BITMAP
0800
1800
0000
0000
FC00
6300
2180
2080
2080
2180
2300
3C00
2000
2000
2000
6000
F800
ENDCHAR
STARTCHAR 1E57
ENCODING 7767
SWIDTH 462 0
DWIDTH 9 0
BBX 8 18 1 -6
BITMAP
08
18
00
00
5C
E2
43
43
43
43
42
64
58
40
40
40
C0
20
ENDCHAR
STARTCHAR 1E58
ENCODING 7768
SWIDTH 668 0
DWIDTH 13 0
BBX 11 17 1 0
BITMAP
0400
0C00
0000
0000
FC00
6380
2080
20C0
20C0
2080
2300
3E00
2300
2300
2180
60C0
F860
ENDCHAR
STARTCHAR 1E59
ENCODING 7769
SWIDTH 308 0
DWIDTH 6 0
BBX 5 12 1 0
BITMAP
10
30
00
00
58
E8
40
40
40
40
40
E0
ENDCHAR
STARTCHAR 1E5A
ENCODING 7770
SWIDTH 668 0
DWIDTH 13 0
BBX 11 16 1 -3
BITMAP
FC00
6380
2080
20C0
20C0
2080
2300
3E00
2300
2300
2180
60C0
F860
0000
0000
0C00
ENDCHAR
STARTCHAR 1E5B
ENCODING 7771
SWIDTH 308 0
DWIDTH 6 0
BBX 5 11 1 -3
BITMAP
58
E8
40
40
40
40
40
E0
00
00
60
ENDCHAR
STARTCHAR 1E5C
ENCODING 7772
SWIDTH 668 0
DWIDTH 13 0
BBX 11 19 1 -3
BITMAP
7E00
0000
0000
FC00
6380
2080
20C0
20C0
2080
2300
3E00
2300
2300
2180
60C0
F860
0000
0400
0C00
ENDCHAR
STARTCHAR 1E5D
ENCODING 7773
SWIDTH 308 0
DWIDTH 6 0
BBX 5 14 1 -3
BITMAP
F8
00
00
58
E8
40
40
40
40
40
E0
00
40
C0
ENDCHAR
STARTCHAR 1E5E
ENCODING 7774
SWIDTH 668 0
DWIDTH 13 0
BBX 11 16 1 -3
BITMAP
FC00
6380
2080
20C0
20C0
2080
2300
3E00
2300
2300
2180
60C0
F860
0000
0000
3E00
ENDCHAR
STARTCHAR 1E5F
ENCODING 7775
SWIDTH 308 0
DWIDTH 6 0
BBX 6 11 0 -3
BITMAP
2C
74
20
20
20
20
20
70
00
00
F8
ENDCHAR
STARTCHAR 1E60
ENCODING 7776
SWIDTH 462 0
DWIDTH 9 0
BBX 8 18 1 -1
BITMAP
10
30
00
00
3C
42
C2
C0
C0
70
3E
0E
03
83
83
C2
74
08
ENDCHAR
STARTCHAR 1E61
ENCODING 7777
SWIDTH 308 0
DWIDTH 6 0
BBX 5 13 1 -1
BITMAP
20
60
00
00
78
88
80
E0
38
08
88
D0
20
ENDCHAR
STARTCHAR 1E62
ENCODING 7778
SWIDTH 462 0
DWIDTH 9 0
BBX 8 16 1 -3
BITMAP
3C
42
C2
C0
C0
70
3E
0E
03
83
83
C2
74
08
00
18
ENDCHAR
STARTCHAR 1E63
ENCODING 7779
SWIDTH 308 0
DWIDTH 6 0
BBX 5 11 1 -3
BITMAP
78
88
80
E0
38
08
88
D0
20
00
60
ENDCHAR
STARTCHAR 1E64
ENCODING 7780
SWIDTH 462 0
DWIDTH 9 0
BBX 8 20 1 -1
BITMAP
08
19
03
0C
10
00
3C
42
C2
C0
C0
70
3E
0E
03
83
83
C2
74
08
ENDCHAR
STARTCHAR 1E65
ENCODING 7781
SWIDTH 308 0
DWIDTH 6 0
BBX 5 16 1 -1
BITMAP
40
C0
18
10
10
00
00
78
88
80
E0
38
08
88
D0
20
ENDCHAR
STARTCHAR 1E66
ENCODING 7782
SWIDTH 462 0
DWIDTH 9 0
BBX 8 20 1 -1
BITMAP
08
18
44
38
10
00
3C
42
C2
C0
C0
70
3E
0E
03
83
83
C2
74
08
ENDCHAR
STARTCHAR 1E67
ENCODING 7783
SWIDTH 308 0
DWIDTH 6 0
BBX 5 16 1 -1
BITMAP
20
60
08
50
20
00
00
78
88
80
E0
38
08
88
D0
20
ENDCHAR
STARTCHAR 1E68
ENCODING 7784
SWIDTH 462 0
DWIDTH 9 0
BBX 8 20 1 -3
BITMAP
10
30
00
00
3C
42
C2
C0
C0
70
3E
0E
03
83
83
C2
74
08
08
18
ENDCHAR
STARTCHAR 1E69
ENCODING 7785
SWIDTH 308 0
DWIDTH 6 0
BBX 5 15 1 -3
BITMAP
20
60
00
00
78
88
80
E0
38
08
88
D0
20
20
60
ENDCHAR
STARTCHAR 1E6A
ENCODING 7786
SWIDTH 720 0
DWIDTH 14 0
BBX 14 17 0 0
BITMAP
0100
0300
0000
0000
FFFC
C104
8104
8100
0100
0100
0100
0100
0100
0100
0100
0100
07C0
ENDCHAR
STARTCHAR 1E6B
ENCODING 7787
SWIDTH 308 0
DWIDTH 6 0
BBX 5 13 1 0
BITMAP
20
60
00
00
40
F8
40
40
40
40
40
40
78
ENDCHAR
STARTCHAR 1E6C
ENCODING 7788
SWIDTH 720 0
DWIDTH 14 0
BBX 14 16 0 -3
BITMAP
FFFC
C104
8104
8100
0100
0100
0100
0100
0100
0100
0100
0100
07C0
0000
0000
0300
ENDCHAR
STARTCHAR 1E6D
ENCODING 7789
SWIDTH 308 0
DWIDTH 6 0
BBX 5 12 1 -3
BITMAP
40
F8
40
40
40
40
40
40
78
00
00
60
ENDCHAR
STARTCHAR 1E6E
ENCODING 7790
SWIDTH 720 0
DWIDTH 14 0
BBX 14 16 0 -3
BITMAP
FFFC
C104
8104
8100
0100
0100
0100
0100
0100
0100
0100
0100
07C0
0000
0000
07C0
ENDCHAR
STARTCHAR 1E6F
ENCODING 7791
SWIDTH 308 0
DWIDTH 6 0
BBX 5 12 1 -3
BITMAP
40
F8
40
40
40
40
40
40
78
00
00
F8
ENDCHAR
STARTCHAR 1E70
ENCODING 7792
SWIDTH 720 0
DWIDTH 14 0
BBX 14 18 0 -5
BITMAP
FFFC
C104
8104
8100
0100
0100
0100
0100
0100
0100
0100
0100
07C0
0000
0100
0280
0480
0400
ENDCHAR
STARTCHAR 1E71
ENCODING 7793
SWIDTH 308 0
DWIDTH 6 0
BBX 5 14 1 -5
BITMAP
40
F8
40
40
40
40
40
40
78
00
20
50
90
80
ENDCHAR
STARTCHAR 1E72
ENCODING 7794
SWIDTH 668 0
DWIDTH 13 0
BBX 13 16 1 -3
BITMAP
F8F8
6020
6020
6020
6020
6020
6020
6020
6020
6020
2020
3040
1D80
0200
1900
1980
ENDCHAR
STARTCHAR 1E73
ENCODING 7795
SWIDTH 462 0
DWIDTH 9 0
BBX 9 11 0 -3
BITMAP
E700
2100
2100
2100
2100
2100
2300
1D80
0000
3200
3300
ENDCHAR
STARTCHAR 1E74
ENCODING 7796
SWIDTH 668 0
DWIDTH 13 0
BBX 13 16 1 -3
BITMAP
F8F8
6020
6020
6020
6020
6020
6020
6020
6020
6020
2020
3040
1D80
0200
0000
1F00
ENDCHAR
STARTCHAR 1E75
ENCODING 7797
SWIDTH 462 0
DWIDTH 9 0
BBX 9 11 0 -3
BITMAP
E700
2100
2100
2100
2100
2100
2300
1D80
0000
0000
3E00
ENDCHAR
STARTCHAR 1E76
ENCODING 7798
SWIDTH 668 0
DWIDTH 13 0
BBX 13 18 1 -5
BITMAP
F8F8
6020
6020
6020
6020
6020
6020
6020
6020
6020
2020
3040
1D80
0200
0400
0A00
1200
1000
ENDCHAR
STARTCHAR 1E77
ENCODING 7799
SWIDTH 462 0
DWIDTH 9 0
BBX 9 13 0 -5
BITMAP
E700
2100
2100
2100
2100
2100
2300
1D80
0000
0800
1400
2400
2000
ENDCHAR
STARTCHAR 1E78
ENCODING 7800
SWIDTH 668 0
DWIDTH 13 0
BBX 13 22 1 -1
BITMAP
0040
00C0
0300
0400
0000
0FC0
0100
0000
F8F8
6020
6020
6020
6020
6020
6020
6020
6020
6020
2020
3040
1D80
0200
ENDCHAR
STARTCHAR 1E79
ENCODING 7801
SWIDTH 462 0
DWIDTH 9 0
BBX 9 16 0 0
BITMAP
0600
0400
0400
0000
0000
3E00
0000
0000
E700
2100
2100
2100
2100
2100
2300
1D80
ENDCHAR
STARTCHAR 1E7A
ENCODING 7802
SWIDTH 668 0
DWIDTH 13 0
BBX 13 20 1 -1
BITMAP
1980
1000
0000
1F80
0000
0000
F8F8
6020
6020
6020
6020
6020
6020
6020
6020
6020
2020
3040
1D80
0200
ENDCHAR
STARTCHAR 1E7B
ENCODING 7803
SWIDTH 462 0
DWIDTH 9 0
BBX 9 15 0 0
BITMAP
3200
3300
0000
0000
3E00
0000
0000
E700
2100
2100
2100
2100
2100
2300
1D80
ENDCHAR
STARTCHAR 1E7C
ENCODING 7804
SWIDTH 565 0
DWIDTH 11 0
BBX 12 16 0 0
BITMAP
0FC0
0100
0000
F8F0
6060
2040
3040
1080
1080
1880
0900
0900
0E00
0600
0600
0400
ENDCHAR
STARTCHAR 1E7D
ENCODING 7805
SWIDTH 360 0
DWIDTH 7 0
BBX 8 11 0 0
BITMAP
7C
00
00
E7
62
24
24
34
18
18
18
ENDCHAR
STARTCHAR 1E7E
ENCODING 7806
SWIDTH 565 0
DWIDTH 11 0
BBX 12 16 0 -3
BITMAP
F8F0
6060
2040
3040
1080
1080
1880
0900
0900
0E00
0600
0600
0400
0000
0000
0600
ENDCHAR
STARTCHAR 1E7F
ENCODING 7807
SWIDTH 360 0
DWIDTH 7 0
BBX 8 11 0 -3
BITMAP
E7
62
24
24
34
18
18
18
00
00
18
ENDCHAR
STARTCHAR 1E80
ENCODING 7808
SWIDTH 925 0
DWIDTH 18 0
BBX 19 18 0 0
BITMAP
020000
030000
00C000
002000
000000
F7BDE0
631080
319080
31A100
10A100
18C200
084200
0C6200
04A400
06B400
073800
031800
021000
ENDCHAR
STARTCHAR 1E81
ENCODING 7809
SWIDTH 617 0
DWIDTH 12 0
BBX 13 13 0 0
BITMAP
0400
0200
0200
0000
0000
E738
6320
2320
2520
35C0
19C0
18C0
1880
ENDCHAR
STARTCHAR 1E82
ENCODING 7810
SWIDTH 925 0
DWIDTH 18 0
BBX 19 18 0 0
BITMAP
000800
001800
006000
008000
000000
F7BDE0
631080
319080
31A100
10A100
18C200
084200
0C6200
04A400
06B400
073800
031800
021000
ENDCHAR
STARTCHAR 1E83
ENCODING 7811
SWIDTH 617 0
DWIDTH 12 0
BBX 13 13 0 0
BITMAP
0180
0100
0100
0000
0000
E738
6320
2320
2520
35C0
19C0
18C0
1880
ENDCHAR
STARTCHAR 1E84
ENCODING 7812
SWIDTH 925 0
DWIDTH 18 0
BBX 19 16 0 0
BITMAP
019800
010000
000000
F7BDE0
631080
319080
31A100
10A100
18C200
084200
0C6200
04A400
06B400
073800
031800
021000
ENDCHAR
STARTCHAR 1E85
ENCODING 7813
SWIDTH 617 0
DWIDTH 12 0
BBX 13 12 0 0
BITMAP
0C80
0CC0
0000
0000
E738
6320
2320
2520
35C0
19C0
18C0
1880
ENDCHAR
STARTCHAR 1E86
ENCODING 7814
SWIDTH 925 0
DWIDTH 18 0
BBX 19 17 0 0
BITMAP
004000
00C000
000000
000000
F7BDE0
631080
319080
31A100
10A100
18C200
084200
0C6200
04A400
06B400
073800
031800
021000
ENDCHAR
STARTCHAR 1E87
ENCODING 7815
SWIDTH 617 0
DWIDTH 12 0
BBX 13 12 0 0
BITMAP
0200
0600
0000
0000
E738
6320
2320
2520
35C0
19C0
18C0
1880
ENDCHAR
STARTCHAR 1E88
ENCODING 7816
SWIDTH 925 0
DWIDTH 18 0
BBX 19 16 0 -3
BITMAP
F7BDE0
631080
319080
31A100
10A100
18C200
084200
0C6200
04A400
06B400
073800
031800
021000
000000
000000
00C000
ENDCHAR
STARTCHAR 1E89
ENCODING 7817
SWIDTH 617 0
DWIDTH 12 0
BBX 13 11 0 -3
BITMAP
E738
6320
2320
2520
35C0
19C0
18C0
1880
0000
0000
0600
ENDCHAR
STARTCHAR 1E8A
ENCODING 7818
SWIDTH 617 0
DWIDTH 12 0
BBX 13 17 0 0
BITMAP
0200
0600
0000
0000
F8F0
3040
1040
1880
0D00
0600
0600
0700
0900
1180
20C0
2040
F0F8
ENDCHAR
STARTCHAR 1E8B
ENCODING 7819
SWIDTH 411 0
DWIDTH 8 0
BBX 7 12 1 0
BITMAP
10
30
00
00
EE
64
28
30
18
68
4C
CE
ENDCHAR
STARTCHAR 1E8C
ENCODING 7820
SWIDTH 617 0
DWIDTH 12 0
BBX 13 16 0 0
BITMAP
0CC0
0800
0000
F8F0
3040
1040
1880
0D00
0600
0600
0700
0900
1180
20C0
2040
F0F8
ENDCHAR
STARTCHAR 1E8D
ENCODING 7821
SWIDTH 411 0
DWIDTH 8 0
BBX 7 12 1 0
BITMAP
64
66
00
00
EE
64
28
30
18
68
4C
CE
ENDCHAR
STARTCHAR 1E8E
ENCODING 7822
SWIDTH 565 0
DWIDTH 11 0
BBX 12 17 0 0
BITMAP
0200
0600
0000
0000
F0F0
6040
3040
3080
1900
0900
0E00
0600
0400
0400
0400
0400
1F00
ENDCHAR
STARTCHAR 1E8F
ENCODING 7823
SWIDTH 360 0
DWIDTH 7 0
BBX 8 17 0 -5
BITMAP
08
18
00
00
E7
42
64
24
24
38
18
10
10
10
20
20
C0
ENDCHAR
STARTCHAR 1E90
ENCODING 7824
SWIDTH 565 0
DWIDTH 11 0
BBX 11 17 1 0
BITMAP
0400
0A00
1100
0000
FFC0
C0C0
8180
8300
0200
0600
0C00
0800
1800
3000
6020
4040
FFC0
ENDCHAR
STARTCHAR 1E91
ENCODING 7825
SWIDTH 308 0
DWIDTH 6 0
BBX 7 13 0 0
BITMAP
10
28
48
40
00
7C
88
18
10
30
22
64
7C
ENDCHAR
STARTCHAR 1E92
ENCODING 7826
SWIDTH 565 0
DWIDTH 11 0
BBX 11 16 1 -3
BITMAP
FFC0
C0C0
8180
8300
0200
0600
0C00
0800
1800
3000
6020
4040
FFC0
0000
0000
0C00
ENDCHAR
STARTCHAR 1E93
ENCODING 7827
SWIDTH 308 0
DWIDTH 6 0
BBX 7 11 0 -3
BITMAP
7C
88
18
10
30
22
64
7C
00
00
30
ENDCHAR
STARTCHAR 1E94
ENCODING 7828
SWIDTH 565 0
DWIDTH 11 0
BBX 11 16 1 -3
BITMAP
FFC0
C0C0
8180
8300
0200
0600
0C00
0800
1800
3000
6020
4040
FFC0
0000
0000
3E00
ENDCHAR
STARTCHAR 1E95
ENCODING 7829
SWIDTH 308 0
DWIDTH 6 0
BBX 7 11 0 -3
BITMAP
7C
88
18
10
30
22
64
7C
00
00
7C
ENDCHAR
STARTCHAR 1E96
ENCODING 7830
SWIDTH 514 0
DWIDTH 10 0
BBX 8 16 1 -3
BITMAP
C0
40
40
40
40
5E
62
43
43
43
43
43
E3
00
00
7C
ENDCHAR
STARTCHAR 1E97
ENCODING 7831
SWIDTH 308 0
DWIDTH 6 0
BBX 6 13 0 0
BITMAP
C8
CC
00
00
20
7C
20
20
20
20
20
20
3C
ENDCHAR
STARTCHAR 1E98
ENCODING 7832
SWIDTH 617 0
DWIDTH 12 0
BBX 13 13 0 0
BITMAP
0200
0500
0900
0700
0000
E738
6320
2320
2520
35C0
19C0
18C0
1880
ENDCHAR
STARTCHAR 1E99
ENCODING 7833
SWIDTH 360 0
DWIDTH 7 0
BBX 8 18 0 -5
BITMAP
10
28
48
38
00
E7
42
64
24
24
38
18
10
10
10
20
20
C0
ENDCHAR
STARTCHAR 1E9A
ENCODING 7834
SWIDTH 360 0
DWIDTH 7 0
BBX 6 14 1 0
BITMAP
10
10
10
10
20
00
78
98
98
18
78
98
98
EC
ENDCHAR
STARTCHAR 1E9B
ENCODING 7835
SWIDTH 257 0
DWIDTH 5 0
BBX 7 18 1 0
BITMAP
08
18
00
00
0E
36
20
40
40
40
40
40
40
40
40
40
40
E0
ENDCHAR
STARTCHAR 1EA0
ENCODING 7840
SWIDTH 617 0
DWIDTH 12 0
BBX 13 16 0 -3
BITMAP
0200
0700
0700
0500
0980
0980
1080
1FC0
10C0
2040
2060
2060
F0F8
0000
0000
0600
ENDCHAR
STARTCHAR 1EA1
ENCODING 7841
SWIDTH 360 0
DWIDTH 7 0
BBX 6 11 1 -3
BITMAP
78
98
98
18
78
98
98
EC
00
00
30
ENDCHAR
STARTCHAR 1EA2
ENCODING 7842
SWIDTH 617 0
DWIDTH 12 0
BBX 13 19 0 0
BITMAP
0300
0100
0100
0100
0200
0000
0200
0700
0700
0500
0980
0980
1080
1FC0
10C0
2040
2060
2060
F0F8
ENDCHAR
STARTCHAR 1EA3
ENCODING 7843
SWIDTH 360 0
DWIDTH 7 0
BBX 6 14 1 0
BITMAP
30
10
10
10
20
00
78
98
98
18
78
98
98
EC
ENDCHAR
STARTCHAR 1EA4
ENCODING 7844
SWIDTH 617 0
DWIDTH 12 0
BBX 13 20 0 0
BITMAP
0060
0040
0240
0500
0900
0800
0000
0200
0700
0700
0500
0980
0980
1080
1FC0
10C0
2040
2060
2060
F0F8
ENDCHAR
STARTCHAR 1EA5
ENCODING 7845
SWIDTH 360 0
DWIDTH 7 0
BBX 7 16 1 0
BITMAP
06
04
04
20
50
90
80
00
78
98
98
18
78
98
98
EC
ENDCHAR
STARTCHAR 1EA6
ENCODING 7846
SWIDTH 617 0
DWIDTH 12 0
BBX 13 20 0 0
BITMAP
1000
0800
0A00
0500
0900
0800
0000
0200
0700
0700
0500
0980
0980
1080
1FC0
10C0
2040
2060
2060
F0F8
ENDCHAR
STARTCHAR 1EA7
ENCODING 7847
SWIDTH 360 0
DWIDTH 7 0
BBX 7 16 0 0
BITMAP
80
40
40
10
28
48
40
00
3C
4C
4C
0C
3C
4C
4C
76
ENDCHAR
STARTCHAR 1EA8
ENCODING 7848
SWIDTH 617 0
DWIDTH 12 0
BBX 13 21 0 0
BITMAP
0060
0020
0020
0020
0240
0500
0880
0000
0200
0700
0700
0500
0980
0980
1080
1FC0
10C0
2040
2060
2060
F0F8
ENDCHAR
STARTCHAR 1EA9
ENCODING 7849
SWIDTH 360 0
DWIDTH 7 0
BBX 7 17 1 0
BITMAP
06
02
02
02
24
50
90
80
00
78
98
98
18
78
98
98
EC
ENDCHAR
STARTCHAR 1EAA
ENCODING 7850
SWIDTH 617 0
DWIDTH 12 0
BBX 13 18 0 0
BITMAP
0F80
0200
0500
0880
0000
0200
0700
0700
0500
0980
0980
1080
1FC0
10C0
2040
2060
2060
F0F8
ENDCHAR
STARTCHAR 1EAB
ENCODING 7851
SWIDTH 360 0
DWIDTH 7 0
BBX 6 15 1 0
BITMAP
F8
00
20
50
90
80
00
78
98
98
18
78
98
98
EC
ENDCHAR
STARTCHAR 1EAC
ENCODING 7852
SWIDTH 617 0
DWIDTH 12 0
BBX 13 20 0 -3
BITMAP
0200
0500
0880
0000
0200
0700
0700
0500
0980
0980
1080
1FC0
10C0
2040
2060
2060
F0F8
0000
0200
0600
ENDCHAR
STARTCHAR 1EAD
ENCODING 7853
SWIDTH 360 0
DWIDTH 7 0
BBX 6 16 1 -3
BITMAP
20
50
90
80
00
78
98
98
18
78
98
98
EC
00
10
30
ENDCHAR
STARTCHAR 1EAE
ENCODING 7854
SWIDTH 617 0
DWIDTH 12 0
BBX 13 21 0 0
BITMAP
0040
00C0
0300
0400
0080
0F80
0200
0000
0200
0700
0700
0500
0980
0980
1080
1FC0
10C0
2040
2060
2060
F0F8
ENDCHAR
STARTCHAR 1EAF
ENCODING 7855
SWIDTH 360 0
DWIDTH 7 0
BBX 6 16 1 0
BITMAP
18
10
10
00
08
F8
20
00
78
98
98
18
78
98
98
EC
ENDCHAR
STARTCHAR 1EB0
ENCODING 7856
SWIDTH 617 0
DWIDTH 12 0
BBX 13 21 0 0
BITMAP
1000
1800
0600
0100
0080
0F80
0200
0000
0200
0700
0700
0500
0980
0980
1080
1FC0
10C0
2040
2060
2060
F0F8
ENDCHAR
STARTCHAR 1EB1
ENCODING 7857
SWIDTH 360 0
DWIDTH 7 0
BBX 6 16 1 0
BITMAP
40
20
20
00
08
F8
20
00
78
98
98
18
78
98
98
EC
ENDCHAR
STARTCHAR 1EB2
ENCODING 7858
SWIDTH 617 0
DWIDTH 12 0
BBX 13 21 0 0
BITMAP
0300
0100
0100
0100
0280
0F80
0200
0000
0200
0700
0700
0500
0980
0980
1080
1FC0
10C0
2040
2060
2060
F0F8
ENDCHAR
STARTCHAR 1EB3
ENCODING 7859
SWIDTH 360 0
DWIDTH 7 0
BBX 6 17 1 0
BITMAP
30
10
10
10
20
08
F8
20
00
78
98
98
18
78
98
98
EC
ENDCHAR
STARTCHAR 1EB4
ENCODING 7860
SWIDTH 617 0
DWIDTH 12 0
BBX 13 19 0 0
BITMAP
0FC0
0100
0080
0F80
0200
0000
0200
0700
0700
0500
0980
0980
1080
1FC0
10C0
2040
2060
2060
F0F8
ENDCHAR
STARTCHAR 1EB5
ENCODING 7861
SWIDTH 360 0
DWIDTH 7 0
BBX 6 14 1 0
BITMAP
F8
00
08
F8
20
00
78
98
98
18
78
98
98
EC
ENDCHAR
STARTCHAR 1EB6
ENCODING 7862
SWIDTH 617 0
DWIDTH 12 0
BBX 13 20 0 -3
BITMAP
0080
0F80
0200
0000
0200
0700
0700
0500
0980
0980
1080
1FC0
10C0
2040
2060
2060
F0F8
0000
0200
0600
ENDCHAR
STARTCHAR 1EB7
ENCODING 7863
SWIDTH 360 0
DWIDTH 7 0
BBX 6 15 1 -3
BITMAP
08
F8
20
00
78
98
98
18
78
98
98
EC
00
20
60
ENDCHAR
STARTCHAR 1EB8
ENCODING 7864
SWIDTH 565 0
DWIDTH 11 0
BBX 10 16 1 -3
BITMAP
FF80
6180
2080
2080
2000
2200
2200
3E00
2200
2000
2040
2040
FFC0
0000
0000
0C00
ENDCHAR
STARTCHAR 1EB9
ENCODING 7865
SWIDTH 360 0
DWIDTH 7 0
BBX 6 11 1 -3
BITMAP
38
44
FC
80
80
C0
C0
78
00
00
30
ENDCHAR
STARTCHAR 1EBA
ENCODING 7866
SWIDTH 565 0
DWIDTH 11 0
BBX 10 19 1 0
BITMAP
0600
0200
0200
0200
0400
0000
FF80
6180
2080
2080
2000
2200
2200
3E00
2200
2000
2040
2040
FFC0
ENDCHAR
STARTCHAR 1EBB
ENCODING 7867
SWIDTH 360 0
DWIDTH 7 0
BBX 6 14 1 0
BITMAP
18
08
08
08
10
00
38
44
FC
80
80
C0
C0
78
ENDCHAR
STARTCHAR 1EBC
ENCODING 7868
SWIDTH 565 0
DWIDTH 11 0
BBX 10 16 1 0
BITMAP
3F00
0400
0000
FF80
6180
2080
2080
2000
2200
2200
3E00
2200
2000
2040
2040
FFC0
ENDCHAR
STARTCHAR 1EBD
ENCODING 7869
SWIDTH 360 0
DWIDTH 7 0
BBX 6 11 1 0
BITMAP
F8
00
00
38
44
FC
80
80
C0
C0
78
ENDCHAR
STARTCHAR 1EBE
ENCODING 7870
SWIDTH 565 0
DWIDTH 11 0
BBX 10 20 1 0
BITMAP
0180
0100
0900
1400
2400
2000
0000
FF80
6180
2080
2080
2000
2200
2200
3E00
2200
2000
2040
2040
FFC0
ENDCHAR
STARTCHAR 1EBF
ENCODING 7871
SWIDTH 360 0
DWIDTH 7 0
BBX 8 16 1 0
BITMAP
03
02
02
10
28
48
40
00
38
44
FC
80
80
C0
C0
78
ENDCHAR
STARTCHAR 1EC0
ENCODING 7872
SWIDTH 565 0
DWIDTH 11 0
BBX 10 20 1 0
BITMAP
4000
2000
2800
1400
2400
2000
0000
FF80
6180
2080
2080
2000
2200
2200
3E00
2200
2000
2040
2040
FFC0
ENDCHAR
STARTCHAR 1EC1
ENCODING 7873
SWIDTH 360 0
DWIDTH 7 0
BBX 7 16 0 0
BITMAP
80
40
40
08
14
24
20
00
1C
22
7E
40
40
60
60
3C
ENDCHAR
STARTCHAR 1EC2
ENCODING 7874
SWIDTH 565 0
DWIDTH 11 0
BBX 10 21 1 0
BITMAP
0180
0080
0080
0080
0900
1400
2200
0000
FF80
6180
2080
2080
2000
2200
2200
3E00
2200
2000
2040
2040
FFC0
ENDCHAR
STARTCHAR 1EC3
ENCODING 7875
SWIDTH 360 0
DWIDTH 7 0
BBX 8 17 1 0
BITMAP
03
01
01
01
12
28
48
40
00
38
44
FC
80
80
C0
C0
78
ENDCHAR
STARTCHAR 1EC4
ENCODING 7876
SWIDTH 565 0
DWIDTH 11 0
BBX 10 19 1 0
BITMAP
3F00
0400
0800
1400
2200
0000
FF80
6180
2080
2080
2000
2200
2200
3E00
2200
2000
2040
2040
FFC0
ENDCHAR
STARTCHAR 1EC5
ENCODING 7877
SWIDTH 360 0
DWIDTH 7 0
BBX 6 15 1 0
BITMAP
7C
00
10
28
48
40
00
38
44
FC
80
80
C0
C0
78
ENDCHAR
STARTCHAR 1EC6
ENCODING 7878
SWIDTH 565 0
DWIDTH 11 0
BBX 10 20 1 -3
BITMAP
0800
1400
2200
0000
FF80
6180
2080
2080
2000
2200
2200
3E00
2200
2000
2040
2040
FFC0
0000
0800
1800
ENDCHAR
STARTCHAR 1EC7
ENCODING 7879
SWIDTH 360 0
DWIDTH 7 0
BBX 6 16 1 -3
BITMAP
10
28
48
40
00
38
44
FC
80
80
C0
C0
78
00
10
30
ENDCHAR
STARTCHAR 1EC8
ENCODING 7880
SWIDTH 308 0
DWIDTH 6 0
BBX 5 19 1 0
BITMAP
30
10
10
10
20
00
F8
60
20
20
20
20
20
20
20
20
20
60
F8
ENDCHAR
STARTCHAR 1EC9
ENCODING 7881
SWIDTH 205 0
DWIDTH 4 0
BBX 3 14 1 0
BITMAP
60
20
20
20
40
00
40
C0
40
40
40
40
40
E0
ENDCHAR
STARTCHAR 1ECA
ENCODING 7882
SWIDTH 308 0
DWIDTH 6 0
BBX 5 16 1 -3
BITMAP
F8
60
20
20
20
20
20
20
20
20
20
60
F8
00
00
60
ENDCHAR
STARTCHAR 1ECB
ENCODING 7883
SWIDTH 205 0
DWIDTH 4 0
BBX 3 15 1 -3
BITMAP
40
C0
00
00
40
C0
40
40
40
40
40
E0
00
00
C0
ENDCHAR
STARTCHAR 1ECC
ENCODING 7884
SWIDTH 668 0
DWIDTH 13 0
BBX 12 16 1 -3
BITMAP
0F00
3080
6040
4060
C020
C030
C030
C030
C030
C020
6060
3040
1F80
0000
0000
0600
ENDCHAR
STARTCHAR 1ECD
ENCODING 7885
SWIDTH 462 0
DWIDTH 9 0
BBX 8 11 1 -3
BITMAP
3C
46
C2
83
83
82
46
2C
10
00
18
ENDCHAR
STARTCHAR 1ECE
ENCODING 7886
SWIDTH 668 0
DWIDTH 13 0
BBX 12 19 1 0
BITMAP
0600
0200
0200
0200
0400
0000
0F00
3080
6040
4060
C020
C030
C030
C030
C030
C020
6060
3040
1F80
ENDCHAR
STARTCHAR 1ECF
ENCODING 7887
SWIDTH 462 0
DWIDTH 9 0
BBX 8 15 1 -1
BITMAP
18
08
08
08
10
00
3C
46
C2
83
83
82
46
2C
10
ENDCHAR
STARTCHAR 1ED0
ENCODING 7888
SWIDTH 668 0
DWIDTH 13 0
BBX 12 20 1 0
BITMAP
0060
0040
0440
0A00
1200
1000
0000
0F00
3080
6040
4060
C020
C030
C030
C030
C030
C020
6060
3040
1F80
ENDCHAR
STARTCHAR 1ED1
ENCODING 7889
SWIDTH 462 0
DWIDTH 9 0
BBX 8 17 1 -1
BITMAP
03
02
02
10
28
48
40
00
3C
46
C2
83
83
82
46
2C
10
ENDCHAR
STARTCHAR 1ED2
ENCODING 7890
SWIDTH 668 0
DWIDTH 13 0
BBX 12 20 1 0
BITMAP
2000
1000
1400
0A00
1200
1000
0000
0F00
3080
6040
4060
C020
C030
C030
C030
C030
C020
6060
3040
1F80
ENDCHAR
STARTCHAR 1ED3
ENCODING 7891
SWIDTH 462 0
DWIDTH 9 0
BBX 8 17 1 -1
BITMAP
80
40
40
10
28
48
40
00
3C
46
C2
83
83
82
46
2C
10
ENDCHAR
STARTCHAR 1ED4
ENCODING 7892
SWIDTH 668 0
DWIDTH 13 0
BBX 12 21 1 0
BITMAP
00C0
0040
0040
0040
0480
0A00
1100
0000
0F00
3080
6040
4060
C020
C030
C030
C030
C030
C020
6060
3040
1F80
ENDCHAR
STARTCHAR 1ED5
ENCODING 7893
SWIDTH 462 0
DWIDTH 9 0
BBX 8 18 1 -1
BITMAP
03
01
01
01
12
28
48
40
00
3C
46
C2
83
83
82
46
2C
10
ENDCHAR
STARTCHAR 1ED6
ENCODING 7894
SWIDTH 668 0
DWIDTH 13 0
BBX 12 19 1 0
BITMAP
1F80
0200
0400
0A00
1100
0000
0F00
3080
6040
4060
C020
C030
C030
C030
C030
C020
6060
3040
1F80
ENDCHAR
STARTCHAR 1ED7
ENCODING 7895
SWIDTH 462 0
DWIDTH 9 0
BBX 8 16 1 -1
BITMAP
7C
00
10
28
48
40
00
3C
46
C2
83
83
82
46
2C
10
ENDCHAR
STARTCHAR 1ED8
ENCODING 7896
SWIDTH 668 0
DWIDTH 13 0
BBX 12 20 1 -3
BITMAP
0400
0A00
1100
0000
0F00
3080
6040
4060
C020
C030
C030
C030
C030
C020
6060
3040
1F80
0000
0400
0C00
ENDCHAR
STARTCHAR 1ED9
ENCODING 7897
SWIDTH 462 0
DWIDTH 9 0
BBX 8 16 1 -3
BITMAP
10
28
48
40
00
3C
46
C2
83
83
82
46
2C
10
10
30
ENDCHAR
STARTCHAR 1EDA
ENCODING 7898
SWIDTH 668 0
DWIDTH 13 0
BBX 12 19 1 -1
BITMAP
0080
0180
0600
0800
0000
0F30
30A0
6040
4060
C020
C030
C030
C030
C030
C020
6060
3040
1D80
0200
ENDCHAR
STARTCHAR 1EDB
ENCODING 7899
SWIDTH 462 0
DWIDTH 9 0
BBX 8 14 1 -1
BITMAP
0C
08
08
00
03
3D
47
C2
83
83
82
46
2C
10
ENDCHAR
STARTCHAR 1EDC
ENCODING 7900
SWIDTH 668 0
DWIDTH 13 0
BBX 12 19 1 -1
BITMAP
2000
3000
0C00
0200
0000
0F30
30A0
6040
4060
C020
C030
C030
C030
C030
C020
6060
3040
1D80
0200
ENDCHAR
STARTCHAR 1EDD
ENCODING 7901
SWIDTH 462 0
DWIDTH 9 0
BBX 8 14 1 -1
BITMAP
20
10
10
00
03
3D
47
C2
83
83
82
46
2C
10
ENDCHAR
STARTCHAR 1EDE
ENCODING 7902
SWIDTH 668 0
DWIDTH 13 0
BBX 12 20 1 -1
BITMAP
0600
0200
0200
0200
0400
0000
0F30
30A0
6040
4060
C020
C030
C030
C030
C030
C020
6060
3040
1D80
0200
ENDCHAR
STARTCHAR 1EDF
ENCODING 7903
SWIDTH 462 0
DWIDTH 9 0
BBX 8 15 1 -1
BITMAP
18
08
08
08
10
03
3D
47
C2
83
83
82
46
2C
10
ENDCHAR
STARTCHAR 1EE0
ENCODING 7904
SWIDTH 668 0
DWIDTH 13 0
BBX 12 17 1 -1
BITMAP
1F80
0200
0000
0F30
30A0
6040
4060
C020
C030
C030
C030
C030
C020
6060
3040
1D80
0200
ENDCHAR
STARTCHAR 1EE1
ENCODING 7905
SWIDTH 462 0
DWIDTH 9 0
BBX 8 12 1 -1
BITMAP
7C
00
03
3D
47
C2
83
83
82
46
2C
10
ENDCHAR
STARTCHAR 1EE2
ENCODING 7906
SWIDTH 668 0
DWIDTH 13 0
BBX 12 16 1 -3
BITMAP
0F30
30A0
6040
4060
C020
C030
C030
C030
C030
C020
6060
3040
1D80
0200
0400
0C00
ENDCHAR
STARTCHAR 1EE3
ENCODING 7907
SWIDTH 462 0
DWIDTH 9 0
BBX 8 12 1 -3
BITMAP
03
3D
47
C2
83
83
82
46
2C
10
10
30
ENDCHAR
STARTCHAR 1EE4
ENCODING 7908
SWIDTH 668 0
DWIDTH 13 0
BBX 13 16 1 -3
BITMAP
F8F8
6020
6020
6020
6020
6020
6020
6020
6020
6020
2020
3040
1D80
0200
0000
0600
ENDCHAR
STARTCHAR 1EE5
ENCODING 7909
SWIDTH 462 0
DWIDTH 9 0
BBX 9 11 0 -3
BITMAP
E700
2100
2100
2100
2100
2100
2300
1D80
0000
0000
1800
ENDCHAR
STARTCHAR 1EE6
ENCODING 7910
SWIDTH 668 0
DWIDTH 13 0
BBX 13 20 1 -1
BITMAP
0300
0100
0100
0100
0200
0000
F8F8
6020
6020
6020
6020
6020
6020
6020
6020
6020
2020
3040
1D80
0200
ENDCHAR
STARTCHAR 1EE7
ENCODING 7911
SWIDTH 462 0
DWIDTH 9 0
BBX 9 14 0 0
BITMAP
0C00
0400
0400
0400
0800
0000
E700
2100
2100
2100
2100
2100
2300
1D80
ENDCHAR
STARTCHAR 1EE8
ENCODING 7912
SWIDTH 668 0
DWIDTH 13 0
BBX 14 19 1 -1
BITMAP
0040
00C0
0300
0400
0004
F8FC
6020
6020
6020
6020
6020
6020
6020
6020
6020
2020
3040
1D80
0200
ENDCHAR
STARTCHAR 1EE9
ENCODING 7913
SWIDTH 462 0
DWIDTH 9 0
BBX 10 13 0 0
BITMAP
0600
0400
0400
0040
0040
E7C0
2100
2100
2100
2100
2100
2300
1D80
ENDCHAR
STARTCHAR 1EEA
ENCODING 7914
SWIDTH 668 0
DWIDTH 13 0
BBX 14 19 1 -1
BITMAP
1000
1800
0600
0100
0004
F8FC
6020
6020
6020
6020
6020
6020
6020
6020
6020
2020
3040
1D80
0200
ENDCHAR
STARTCHAR 1EEB
ENCODING 7915
SWIDTH 462 0
DWIDTH 9 0
BBX 10 13 0 0
BITMAP
1000
0800
0800
0040
0040
E7C0
2100
2100
2100
2100
2100
2300
1D80
ENDCHAR
STARTCHAR 1EEC
ENCODING 7916
SWIDTH 668 0
DWIDTH 13 0
BBX 14 20 1 -1
BITMAP
0300
0100
0100
0100
0200
0004
F8FC
6020
6020
6020
6020
6020
6020
6020
6020
6020
2020
3040
1D80
0200
ENDCHAR
STARTCHAR 1EED
ENCODING 7917
SWIDTH 462 0
DWIDTH 9 0
BBX 10 14 0 0
BITMAP
0C00
0400
0400
0400
0840
0040
E7C0
2100
2100
2100
2100
2100
2300
1D80
ENDCHAR
STARTCHAR 1EEE
ENCODING 7918
SWIDTH 668 0
DWIDTH 13 0
BBX 14 17 1 -1
BITMAP
0FC0
0100
0004
F8FC
6020
6020
6020
6020
6020
6020
6020
6020
6020
2020
3040
1D80
0200
ENDCHAR
STARTCHAR 1EEF
ENCODING 7919
SWIDTH 462 0
DWIDTH 9 0
BBX 10 11 0 0
BITMAP
3E00
0040
0040
E7C0
2100
2100
2100
2100
2100
2300
1D80
ENDCHAR
STARTCHAR 1EF0
ENCODING 7920
SWIDTH 668 0
DWIDTH 13 0
BBX 14 17 1 -3
BITMAP
0004
F8FC
6020
6020
6020
6020
6020
6020
6020
6020
6020
2020
3040
1D80
0200
0200
0600
ENDCHAR
STARTCHAR 1EF1
ENCODING 7921
SWIDTH 462 0
DWIDTH 9 0
BBX 10 13 0 -3
BITMAP
0040
0040
E7C0
2100
2100
2100
2100
2100
2300
1D80
0000
0400
0C00
ENDCHAR
STARTCHAR 1EF2
ENCODING 7922
SWIDTH 565 0
DWIDTH 11 0
BBX 12 18 0 0
BITMAP
1000
1800
0600
0100
0000
F0F0
6040
3040
3080
1900
0900
0E00
0600
0400
0400
0400
0400
1F00
ENDCHAR
STARTCHAR 1EF3
ENCODING 7923
SWIDTH 360 0
DWIDTH 7 0
BBX 8 18 0 -5
BITMAP
20
10
10
00
00
E7
42
64
24
24
38
18
10
10
10
20
20
C0
ENDCHAR
STARTCHAR 1EF4
ENCODING 7924
SWIDTH 565 0
DWIDTH 11 0
BBX 12 16 0 -3
BITMAP
F0F0
6040
3040
3080
1900
0900
0E00
0600
0400
0400
0400
0400
1F00
0000
0000
0C00
ENDCHAR
STARTCHAR 1EF5
ENCODING 7925
SWIDTH 360 0
DWIDTH 7 0
BBX 8 13 0 -5
BITMAP
E7
42
64
24
24
38
18
10
10
10
2C
20
C0
ENDCHAR
STARTCHAR 1EF6
ENCODING 7926
SWIDTH 565 0
DWIDTH 11 0
BBX 12 19 0 0
BITMAP
0300
0100
0100
0100
0200
0000
F0F0
6040
3040
3080
1900
0900
0E00
0600
0400
0400
0400
0400
1F00
ENDCHAR
STARTCHAR 1EF7
ENCODING 7927
SWIDTH 360 0
DWIDTH 7 0
BBX 8 19 0 -5
BITMAP
0C
04
04
04
08
00
E7
42
64
24
24
38
18
10
10
10
20
20
C0
ENDCHAR
STARTCHAR 1EF8
ENCODING 7928
SWIDTH 565 0
DWIDTH 11 0
BBX 12 16 0 0
BITMAP
0FC0
0100
0000
F0F0
6040
3040
3080
1900
0900
0E00
0600
0400
0400
0400
0400
1F00
ENDCHAR
STARTCHAR 1EF9
ENCODING 7929
SWIDTH 360 0
DWIDTH 7 0
BBX 8 16 0 -5
BITMAP
7C
00
00
E7
42
64
24
24
38
18
10
10
10
20
20
C0
ENDCHAR
STARTCHAR 1F00
ENCODING 7936
SWIDTH 565 0
DWIDTH 11 0
BBX 11 13 0 0
BITMAP
0C00
0400
0000
0000
0000
1D80
3580
2300
6300
4600
4620
9E40
73C0
ENDCHAR
STARTCHAR 1F01
ENCODING 7937
SWIDTH 565 0
DWIDTH 11 0
BBX 11 13 0 0
BITMAP
0C00
0800
0000
0000
0000
1D80
3580
2300
6300
4600
4620
9E40
73C0
ENDCHAR
STARTCHAR 1F02
ENCODING 7938
SWIDTH 565 0
DWIDTH 11 0
BBX 11 15 0 0
BITMAP
0200
0200
0D00
0500
0900
0000
0000
1D80
3580
2300
6300
4600
4620
9E40
73C0
ENDCHAR
STARTCHAR 1F03
ENCODING 7939
SWIDTH 565 0
DWIDTH 11 0
BBX 11 15 0 0
BITMAP
0200
0200
0D00
0900
0100
0000
0000
1D80
3580
2300
6300
4600
4620
9E40
73C0
ENDCHAR
STARTCHAR 1F04
ENCODING 7940
SWIDTH 565 0
DWIDTH 11 0
BBX 11 15 0 0
BITMAP
0080
0180
0D00
0500
0900
0000
0000
1D80
3580
2300
6300
4600
4620
9E40
73C0
ENDCHAR
STARTCHAR 1F05
ENCODING 7941
SWIDTH 565 0
DWIDTH 11 0
BBX 11 15 0 0
BITMAP
0100
0100
0D00
0A00
0200
0000
0000
1D80
3580
2300
6300
4600
4620
9E40
73C0
ENDCHAR
STARTCHAR 1F06
ENCODING 7942
SWIDTH 565 0
DWIDTH 11 0
BBX 11 16 0 0
BITMAP
0C80
1700
0000
0600
0200
0400
0000
0000
1D80
3580
2300
6300
4600
4620
9E40
73C0
ENDCHAR
STARTCHAR 1F07
ENCODING 7943
SWIDTH 565 0
DWIDTH 11 0
BBX 11 15 0 0
BITMAP
1F00
0000
0400
0800
0400
0000
0000
1D80
3580
2300
6300
4600
4620
9E40
73C0
ENDCHAR
STARTCHAR 1F08
ENCODING 7944
SWIDTH 617 0
DWIDTH 12 0
BBX 13 13 0 0
BITMAP
6200
2700
0700
0500
0980
0980
1080
1FC0
10C0
2040
2060
2060
F0F8
ENDCHAR
STARTCHAR 1F09
ENCODING 7945
SWIDTH 617 0
DWIDTH 12 0
BBX 13 13 0 0
BITMAP
6200
4700
2700
0500
0980
0980
1080
1FC0
10C0
2040
2060
2060
F0F8
ENDCHAR
STARTCHAR 1F0A
ENCODING 7946
SWIDTH 720 0
DWIDTH 14 0
BBX 13 15 1 0
BITMAP
2000
2000
A200
9700
9500
0500
0980
0980
0880
1FC0
10C0
2040
2060
2060
F0F8
ENDCHAR
STARTCHAR 1F0B
ENCODING 7947
SWIDTH 720 0
DWIDTH 14 0
BBX 13 15 1 0
BITMAP
2000
2000
A200
9700
9500
0500
0980
0980
0880
1FC0
10C0
2040
2060
2060
F0F8
ENDCHAR
STARTCHAR 1F0C
ENCODING 7948
SWIDTH 720 0
DWIDTH 14 0
BBX 13 15 1 0
BITMAP
1000
1000
9200
A700
A500
0500
0980
0980
0880
1FC0
10C0
2040
2060
2060
F0F8
ENDCHAR
STARTCHAR 1F0D
ENCODING 7949
SWIDTH 720 0
DWIDTH 14 0
BBX 14 15 0 0
BITMAP
0800
0800
4900
9380
5280
0280
04C0
04C0
0440
0FE0
0860
1020
1030
1030
787C
ENDCHAR
STARTCHAR 1F0E
ENCODING 7950
SWIDTH 668 0
DWIDTH 13 0
BBX 14 16 0 0
BITMAP
2400
D800
0000
3100
1300
0380
0580
0480
04C0
08C0
0FC0
1060
1060
1020
2030
787C
ENDCHAR
STARTCHAR 1F0F
ENCODING 7951
SWIDTH 668 0
DWIDTH 13 0
BBX 13 15 1 0
BITMAP
F000
0000
6200
4600
2700
0B00
0900
0980
1180
1F80
20C0
20C0
2040
4060
F0F8
ENDCHAR
STARTCHAR 1F10
ENCODING 7952
SWIDTH 257 0
DWIDTH 5 0
BBX 5 13 0 0
BITMAP
18
08
10
00
00
38
60
40
58
70
80
C8
70
ENDCHAR
STARTCHAR 1F11
ENCODING 7953
SWIDTH 257 0
DWIDTH 5 0
BBX 5 13 0 0
BITMAP
10
20
10
00
00
38
60
40
58
70
80
C8
70
ENDCHAR
STARTCHAR 1F12
ENCODING 7954
SWIDTH 257 0
DWIDTH 5 0
BBX 6 15 0 0
BITMAP
08
08
68
28
04
00
00
38
60
40
58
70
80
C8
70
ENDCHAR
STARTCHAR 1F13
ENCODING 7955
SWIDTH 257 0
DWIDTH 5 0
BBX 5 15 0 0
BITMAP
08
08
68
48
20
00
00
38
60
40
58
70
80
C8
70
ENDCHAR
STARTCHAR 1F14
ENCODING 7956
SWIDTH 257 0
DWIDTH 5 0
BBX 6 15 0 0
BITMAP
04
04
68
28
08
00
00
38
60
40
58
70
80
C8
70
ENDCHAR
STARTCHAR 1F15
ENCODING 7957
SWIDTH 257 0
DWIDTH 5 0
BBX 6 15 0 0
BITMAP
04
04
68
48
28
00
00
38
60
40
58
70
80
C8
70
ENDCHAR
STARTCHAR 1F18
ENCODING 7960
SWIDTH 720 0
DWIDTH 14 0
BBX 13 13 1 0
BITMAP
DFF0
4C10
8410
0410
0400
0440
0440
07C0
0440
0400
0408
0408
1FF8
ENDCHAR
STARTCHAR 1F19
ENCODING 7961
SWIDTH 720 0
DWIDTH 14 0
BBX 13 13 1 0
BITMAP
DFF0
8C30
0C10
0C10
0C00
0C40
0C40
0FC0
0C40
0C00
0C08
0C08
1FF8
ENDCHAR
STARTCHAR 1F1A
ENCODING 7962
SWIDTH 822 0
DWIDTH 16 0
BBX 15 15 1 0
BITMAP
2000
2000
D7FC
5304
9104
0104
0100
0110
0110
01F0
0110
0100
0102
0102
07FE
ENDCHAR
STARTCHAR 1F1B
ENCODING 7963
SWIDTH 822 0
DWIDTH 16 0
BBX 15 15 1 0
BITMAP
2000
2000
E7FC
930C
9304
0304
0300
0310
0310
03F0
0310
0300
0302
0306
07FE
ENDCHAR
STARTCHAR 1F1C
ENCODING 7964
SWIDTH 822 0
DWIDTH 16 0
BBX 15 15 1 0
BITMAP
1000
1000
D7FC
5104
A104
0100
0100
0100
0110
01F0
0100
0100
0102
0102
07FE
ENDCHAR
STARTCHAR 1F1D
ENCODING 7965
SWIDTH 822 0
DWIDTH 16 0
BBX 15 15 1 0
BITMAP
1000
1000
D7FC
A304
A104
0104
0100
0110
0110
01F0
0110
0100
0102
0102
07FE
ENDCHAR
STARTCHAR 1F20
ENCODING 7968
SWIDTH 360 0
DWIDTH 7 0
BBX 6 14 1 -1
BITMAP
10
10
10
00
00
CC
DC
74
64
64
C4
C4
84
0C
ENDCHAR
STARTCHAR 1F21
ENCODING 7969
SWIDTH 360 0
DWIDTH 7 0
BBX 6 14 1 -1
BITMAP
18
10
10
00
00
CC
DC
74
64
64
C4
C4
84
0C
ENDCHAR
STARTCHAR 1F22
ENCODING 7970
SWIDTH 360 0
DWIDTH 7 0
BBX 6 16 1 -1
BITMAP
08
08
34
14
24
00
00
CC
DC
74
64
64
C4
C4
84
0C
ENDCHAR
STARTCHAR 1F23
ENCODING 7971
SWIDTH 360 0
DWIDTH 7 0
BBX 6 16 1 -1
BITMAP
08
08
38
24
04
00
00
CC
DC
74
64
64
C4
C4
84
0C
ENDCHAR
STARTCHAR 1F24
ENCODING 7972
SWIDTH 360 0
DWIDTH 7 0
BBX 7 16 1 -1
BITMAP
02
02
34
14
04
00
00
CC
DC
74
64
64
C4
C4
84
0C
ENDCHAR
STARTCHAR 1F25
ENCODING 7973
SWIDTH 360 0
DWIDTH 7 0
BBX 7 16 1 -1
BITMAP
02
02
34
24
14
00
00
CC
DC
74
64
64
C4
C4
84
0C
ENDCHAR
STARTCHAR 1F26
ENCODING 7974
SWIDTH 360 0
DWIDTH 7 0
BBX 6 17 1 -1
BITMAP
10
0C
00
08
08
08
00
00
CC
DC
74
64
64
C4
C4
84
0C
ENDCHAR
STARTCHAR 1F27
ENCODING 7975
SWIDTH 360 0
DWIDTH 7 0
BBX 7 16 1 -1
BITMAP
3E
00
08
08
08
00
00
CC
DC
74
64
64
C4
C4
84
0C
ENDCHAR
STARTCHAR 1F28
ENCODING 7976
SWIDTH 874 0
DWIDTH 17 0
BBX 16 13 1 0
BITMAP
FF1F
4C06
8C06
0C06
0C06
0C06
0FFE
0C06
0C06
0C06
0C06
0C06
1F1F
ENDCHAR
STARTCHAR 1F29
ENCODING 7977
SWIDTH 925 0
DWIDTH 18 0
BBX 16 13 1 0
BITMAP
DF1F
8C06
8406
0406
0406
0406
07FE
0406
0406
0406
0406
0C06
1F1F
ENDCHAR
STARTCHAR 1F2A
ENCODING 7978
SWIDTH 1028 0
DWIDTH 20 0
BBX 19 15 1 0
BITMAP
200000
200000
D7C3E0
510180
910080
010080
010080
010080
01FF80
010080
010080
010080
010080
010180
07C3E0
ENDCHAR
STARTCHAR 1F2B
ENCODING 7979
SWIDTH 1028 0
DWIDTH 20 0
BBX 19 15 1 0
BITMAP
200000
200000
D7C3E0
930180
110180
010180
010180
010180
01FF80
010180
010180
010180
010180
010180
07C3E0
ENDCHAR
STARTCHAR 1F2C
ENCODING 7980
SWIDTH 1028 0
DWIDTH 20 0
BBX 19 15 1 0
BITMAP
080000
100000
D7C3E0
518180
810080
010080
010080
010080
01FF80
010080
010080
010080
010080
010080
07C3E0
ENDCHAR
STARTCHAR 1F2D
ENCODING 7981
SWIDTH 1028 0
DWIDTH 20 0
BBX 19 15 1 0
BITMAP
100000
100000
D7C3E0
930180
210180
010180
010180
010180
01FF80
010180
010180
010180
010180
010180
07C3E0
ENDCHAR
STARTCHAR 1F2E
ENCODING 7982
SWIDTH 977 0
DWIDTH 19 0
BBX 19 16 0 0
BITMAP
640000
980000
000000
37C3E0
118080
218080
018080
018080
018080
01FF80
018080
018080
018080
018080
018080
07C3E0
ENDCHAR
STARTCHAR 1F2F
ENCODING 7983
SWIDTH 771 0
DWIDTH 15 0
BBX 18 15 1 0
BITMAP
F00000
000000
6F87C0
430300
220100
020100
020100
020100
03FF00
020100
020100
020100
020100
030100
0F87C0
ENDCHAR
STARTCHAR 1F30
ENCODING 7984
SWIDTH 205 0
DWIDTH 4 0
BBX 4 13 0 0
BITMAP
30
10
00
00
00
30
20
20
40
40
40
E0
E0
ENDCHAR
STARTCHAR 1F31
ENCODING 7985
SWIDTH 205 0
DWIDTH 4 0
BBX 4 13 0 0
BITMAP
30
20
10
00
00
30
20
20
40
40
40
E0
E0
ENDCHAR
STARTCHAR 1F32
ENCODING 7986
SWIDTH 205 0
DWIDTH 4 0
BBX 5 15 0 0
BITMAP
10
10
50
48
48
00
00
30
20
20
40
40
40
E0
E0
ENDCHAR
STARTCHAR 1F33
ENCODING 7987
SWIDTH 205 0
DWIDTH 4 0
BBX 5 15 0 0
BITMAP
10
10
50
90
48
00
00
30
20
20
40
40
40
E0
E0
ENDCHAR
STARTCHAR 1F34
ENCODING 7988
SWIDTH 205 0
DWIDTH 4 0
BBX 6 15 0 0
BITMAP
04
0C
68
28
48
00
00
30
20
20
40
40
40
E0
E0
ENDCHAR
STARTCHAR 1F35
ENCODING 7989
SWIDTH 205 0
DWIDTH 4 0
BBX 5 14 0 0
BITMAP
08
68
48
00
00
00
30
20
20
40
40
40
E0
E0
ENDCHAR
STARTCHAR 1F36
ENCODING 7990
SWIDTH 205 0
DWIDTH 4 0
BBX 5 16 0 0
BITMAP
20
18
00
30
10
00
00
00
30
20
20
40
40
40
E0
E0
ENDCHAR
STARTCHAR 1F37
ENCODING 7991
SWIDTH 205 0
DWIDTH 4 0
BBX 5 15 0 0
BITMAP
78
00
30
20
10
00
00
30
20
20
40
40
40
E0
E0
ENDCHAR
STARTCHAR 1F38
ENCODING 7992
SWIDTH 411 0
DWIDTH 8 0
BBX 7 13 1 0
BITMAP
BE
CC
8C
0C
0C
0C
0C
0C
0C
0C
0C
0C
3E
ENDCHAR
STARTCHAR 1F39
ENCODING 7993
SWIDTH 411 0
DWIDTH 8 0
BBX 7 13 1 0
BITMAP
BE
8C
8C
0C
0C
0C
0C
0C
0C
0C
0C
0C
3E
ENDCHAR
STARTCHAR 1F3A
ENCODING 7994
SWIDTH 565 0
DWIDTH 11 0
BBX 10 15 1 0
BITMAP
2000
2000
A7C0
9300
9100
0100
0100
0100
0100
0100
0100
0100
0100
0100
07C0
ENDCHAR
STARTCHAR 1F3B
ENCODING 7995
SWIDTH 565 0
DWIDTH 11 0
BBX 11 15 0 0
BITMAP
1000
1000
53E0
8980
4880
0080
0080
0080
0080
0080
0080
0080
0080
0080
03E0
ENDCHAR
STARTCHAR 1F3C
ENCODING 7996
SWIDTH 565 0
DWIDTH 11 0
BBX 10 15 1 0
BITMAP
1000
1000
97C0
A300
A100
0100
0100
0100
0100
0100
0100
0100
0100
0100
07C0
ENDCHAR
STARTCHAR 1F3D
ENCODING 7997
SWIDTH 565 0
DWIDTH 11 0
BBX 11 15 0 0
BITMAP
0800
0800
4BE0
9180
5180
0180
0180
0180
0180
0180
0180
0180
0180
0180
03E0
ENDCHAR
STARTCHAR 1F3E
ENCODING 7998
SWIDTH 514 0
DWIDTH 10 0
BBX 10 16 0 0
BITMAP
6400
9800
0000
37C0
1180
2100
0100
0100
0100
0100
0100
0100
0100
0100
0100
07C0
ENDCHAR
STARTCHAR 1F3F
ENCODING 7999
SWIDTH 514 0
DWIDTH 10 0
BBX 9 16 1 0
BITMAP
0800
F000
0000
6F80
4600
0200
0200
0200
0200
0200
0200
0200
0200
0200
0200
0F80
ENDCHAR
STARTCHAR 1F40
ENCODING 8000
SWIDTH 308 0
DWIDTH 6 0
BBX 5 13 1 0
BITMAP
18
08
10
00
00
10
78
68
C8
88
88
98
F0
ENDCHAR
STARTCHAR 1F41
ENCODING 8001
SWIDTH 308 0
DWIDTH 6 0
BBX 5 13 1 0
BITMAP
18
10
08
00
00
10
78
68
C8
88
88
98
F0
ENDCHAR
STARTCHAR 1F42
ENCODING 8002
SWIDTH 308 0
DWIDTH 6 0
BBX 6 15 1 0
BITMAP
08
08
28
24
24
00
00
10
78
68
C8
88
88
98
F0
ENDCHAR
STARTCHAR 1F43
ENCODING 8003
SWIDTH 308 0
DWIDTH 6 0
BBX 6 15 1 0
BITMAP
08
08
28
48
24
00
00
10
78
68
C8
88
88
98
F0
ENDCHAR
STARTCHAR 1F44
ENCODING 8004
SWIDTH 308 0
DWIDTH 6 0
BBX 7 15 1 0
BITMAP
02
06
34
14
24
00
00
10
78
68
C8
88
88
98
F0
ENDCHAR
STARTCHAR 1F45
ENCODING 8005
SWIDTH 308 0
DWIDTH 6 0
BBX 6 14 1 0
BITMAP
04
34
24
00
00
00
10
78
68
C8
88
88
98
F0
ENDCHAR
STARTCHAR 1F48
ENCODING 8008
SWIDTH 720 0
DWIDTH 14 0
BBX 13 14 1 -1
BITMAP
8780
9840
B020
2030
6010
6018
6018
6018
6018
6010
3030
1860
0EC0
0100
ENDCHAR
STARTCHAR 1F49
ENCODING 8009
SWIDTH 720 0
DWIDTH 14 0
BBX 13 14 1 -1
BITMAP
C780
8860
1030
3010
2018
6018
6018
6018
6018
3018
3010
1820
0EC0
0100
ENDCHAR
STARTCHAR 1F4A
ENCODING 8010
SWIDTH 874 0
DWIDTH 17 0
BBX 16 16 1 -1
BITMAP
2000
2000
A0F0
910C
9206
0402
0403
0C03
0C03
0C03
0C03
0603
0602
0304
01D8
0020
ENDCHAR
STARTCHAR 1F4B
ENCODING 8011
SWIDTH 874 0
DWIDTH 17 0
BBX 16 16 1 -1
BITMAP
2000
2000
E0F0
910C
1206
0402
0403
0C03
0C03
0C03
0C03
0603
0602
0304
01D8
0020
ENDCHAR
STARTCHAR 1F4C
ENCODING 8012
SWIDTH 822 0
DWIDTH 16 0
BBX 15 16 1 -1
BITMAP
1000
1000
91E0
A618
AC0C
080C
1806
1806
1806
1806
1806
1804
0C0C
0608
03B0
0040
ENDCHAR
STARTCHAR 1F4D
ENCODING 8013
SWIDTH 822 0
DWIDTH 16 0
BBX 15 16 1 -1
BITMAP
1000
1000
D1E0
A218
240C
0C04
0806
1806
1806
1806
1806
0C06
0C04
0608
03B0
0040
ENDCHAR
STARTCHAR 1F50
ENCODING 8016
SWIDTH 360 0
DWIDTH 7 0
BBX 6 13 1 0
BITMAP
10
10
10
00
00
C4
C4
C4
84
8C
8C
D8
F0
ENDCHAR
STARTCHAR 1F51
ENCODING 8017
SWIDTH 360 0
DWIDTH 7 0
BBX 6 13 1 0
BITMAP
30
20
10
00
00
C4
C4
C4
84
8C
8C
D8
F0
ENDCHAR
STARTCHAR 1F52
ENCODING 8018
SWIDTH 360 0
DWIDTH 7 0
BBX 6 15 1 0
BITMAP
08
08
68
28
00
04
00
C4
C4
C4
84
8C
8C
D8
F0
ENDCHAR
STARTCHAR 1F53
ENCODING 8019
SWIDTH 360 0
DWIDTH 7 0
BBX 6 15 1 0
BITMAP
10
18
68
48
08
00
00
C4
C4
C4
84
8C
8C
D8
F0
ENDCHAR
STARTCHAR 1F54
ENCODING 8020
SWIDTH 360 0
DWIDTH 7 0
BBX 6 15 1 0
BITMAP
04
04
64
28
08
00
00
C4
C4
C4
84
8C
8C
D8
F0
ENDCHAR
STARTCHAR 1F55
ENCODING 8021
SWIDTH 360 0
DWIDTH 7 0
BBX 6 15 1 0
BITMAP
04
04
24
48
28
00
00
C4
C4
C4
84
8C
8C
D8
F0
ENDCHAR
STARTCHAR 1F56
ENCODING 8022
SWIDTH 360 0
DWIDTH 7 0
BBX 7 16 1 0
BITMAP
32
4C
00
18
08
10
00
00
C4
C4
C4
84
8C
8C
D8
F0
ENDCHAR
STARTCHAR 1F57
ENCODING 8023
SWIDTH 360 0
DWIDTH 7 0
BBX 6 15 1 0
BITMAP
7C
00
30
20
10
00
00
C4
C4
C4
84
8C
8C
D8
F0
ENDCHAR
STARTCHAR 1F59
ENCODING 8025
SWIDTH 720 0
DWIDTH 14 0
BBX 13 13 1 0
BITMAP
CC30
9E78
0180
0180
0180
0180
0180
0180
0180
0180
0180
0180
07C0
ENDCHAR
STARTCHAR 1F5B
ENCODING 8027
SWIDTH 874 0
DWIDTH 17 0
BBX 16 15 1 0
BITMAP
2000
2000
D18E
97DF
1050
0020
0020
0020
0020
0020
0020
0020
0020
0020
00F8
ENDCHAR
STARTCHAR 1F5D
ENCODING 8029
SWIDTH 822 0
DWIDTH 16 0
BBX 15 15 1 0
BITMAP
1000
1000
D30C
979E
2060
0060
0060
0060
0060
0060
0060
0060
0060
0060
01F0
ENDCHAR
STARTCHAR 1F5F
ENCODING 8031
SWIDTH 720 0
DWIDTH 14 0
BBX 15 15 -1 0
BITMAP
F800
0000
231C
279E
20A0
0060
0060
0060
0060
0060
0060
0060
0060
0060
01F0
ENDCHAR
STARTCHAR 1F60
ENCODING 8032
SWIDTH 565 0
DWIDTH 11 0
BBX 10 13 0 0
BITMAP
0300
0100
0000
0000
0000
1840
3040
2240
6640
4640
8CC0
8980
7F00
ENDCHAR
STARTCHAR 1F61
ENCODING 8033
SWIDTH 565 0
DWIDTH 11 0
BBX 10 13 0 0
BITMAP
0300
0200
0000
0000
0000
1840
3040
2240
6640
4640
8CC0
8980
7F00
ENDCHAR
STARTCHAR 1F62
ENCODING 8034
SWIDTH 565 0
DWIDTH 11 0
BBX 10 15 0 0
BITMAP
0080
0080
0680
0280
0000
0040
0000
1840
3040
2240
6640
4640
8CC0
8980
7F00
ENDCHAR
STARTCHAR 1F63
ENCODING 8035
SWIDTH 565 0
DWIDTH 11 0
BBX 10 15 0 0
BITMAP
0100
0100
0680
0480
0080
0000
0000
1840
3040
2240
6640
4640
8CC0
8980
7F00
ENDCHAR
STARTCHAR 1F64
ENCODING 8036
SWIDTH 565 0
DWIDTH 11 0
BBX 10 15 0 0
BITMAP
0040
0040
0680
0280
0080
0000
0000
1840
3040
2240
6640
4640
8CC0
8980
7F00
ENDCHAR
STARTCHAR 1F65
ENCODING 8037
SWIDTH 565 0
DWIDTH 11 0
BBX 10 15 0 0
BITMAP
0040
0040
0680
0480
0280
0000
0000
1840
3040
2240
6640
4640
8CC0
8980
7F00
ENDCHAR
STARTCHAR 1F66
ENCODING 8038
SWIDTH 565 0
DWIDTH 11 0
BBX 10 16 0 0
BITMAP
0200
0180
0000
0300
0100
0000
0000
0000
1840
3040
2240
6640
4640
8CC0
8980
7F00
ENDCHAR
STARTCHAR 1F67
ENCODING 8039
SWIDTH 565 0
DWIDTH 11 0
BBX 10 15 0 0
BITMAP
0780
0000
0300
0200
0100
0000
0000
1840
3040
2240
6640
4640
8CC0
8980
7F00
ENDCHAR
STARTCHAR 1F68
ENCODING 8040
SWIDTH 822 0
DWIDTH 16 0
BBX 15 13 1 0
BITMAP
C7C0
4860
9030
3018
2018
2008
6008
2008
3018
3010
9832
C826
FC7E
ENDCHAR
STARTCHAR 1F69
ENCODING 8041
SWIDTH 822 0
DWIDTH 16 0
BBX 15 13 1 0
BITMAP
C3C0
8C30
1818
1018
300C
300C
300C
300C
3008
1018
4812
4422
7E7E
ENDCHAR
STARTCHAR 1F6A
ENCODING 8042
SWIDTH 977 0
DWIDTH 19 0
BBX 18 14 1 0
BITMAP
100000
D07800
518600
030300
020300
060180
060180
060180
060180
060100
020300
090240
088440
0FCFC0
ENDCHAR
STARTCHAR 1F6B
ENCODING 8043
SWIDTH 977 0
DWIDTH 19 0
BBX 18 15 1 0
BITMAP
200000
200000
D07800
918C00
120600
060300
040300
040100
040100
040100
060300
060200
130640
1904C0
1F8FC0
ENDCHAR
STARTCHAR 1F6C
ENCODING 8044
SWIDTH 925 0
DWIDTH 18 0
BBX 17 15 1 0
BITMAP
080000
080000
D0F000
530C00
960600
040600
0C0300
0C0300
0C0300
0C0300
0C0200
040600
120480
110880
1F9F80
ENDCHAR
STARTCHAR 1F6D
ENCODING 8045
SWIDTH 925 0
DWIDTH 18 0
BBX 17 15 1 0
BITMAP
080000
100000
D0F000
930C00
060600
0C0600
0C0300
0C0300
0C0300
0C0300
0C0200
040600
160480
130880
1F9F80
ENDCHAR
STARTCHAR 1F6E
ENCODING 8046
SWIDTH 874 0
DWIDTH 17 0
BBX 17 16 0 0
BITMAP
640000
980000
000000
30F000
131800
240C00
0C0600
080600
080300
080300
080200
0C0600
040400
060C80
120980
1F1F80
ENDCHAR
STARTCHAR 1F6F
ENCODING 8047
SWIDTH 874 0
DWIDTH 17 0
BBX 16 15 1 0
BITMAP
F000
0000
61E0
4218
240C
0806
0806
1806
1806
1806
0806
0C04
2408
2211
3F3F
ENDCHAR
STARTCHAR 1F70
ENCODING 8048
SWIDTH 565 0
DWIDTH 11 0
BBX 11 15 0 0
BITMAP
0800
0800
0800
0800
0400
0000
0000
1D80
3580
2300
6300
4600
4620
9E40
73C0
ENDCHAR
STARTCHAR 1F71
ENCODING 8049
SWIDTH 565 0
DWIDTH 11 0
BBX 11 15 0 0
BITMAP
0200
0600
0400
0400
0400
0000
0000
1D80
3580
2300
6300
4600
4620
9E40
73C0
ENDCHAR
STARTCHAR 1F72
ENCODING 8050
SWIDTH 257 0
DWIDTH 5 0
BBX 5 15 0 0
BITMAP
20
20
10
10
10
00
00
38
60
40
58
70
80
C8
70
ENDCHAR
STARTCHAR 1F73
ENCODING 8051
SWIDTH 257 0
DWIDTH 5 0
BBX 5 15 0 0
BITMAP
08
10
10
10
00
00
00
38
60
40
58
70
80
C8
70
ENDCHAR
STARTCHAR 1F74
ENCODING 8052
SWIDTH 360 0
DWIDTH 7 0
BBX 6 16 1 -1
BITMAP
20
30
10
10
10
00
00
CC
DC
74
64
64
C4
C4
84
0C
ENDCHAR
STARTCHAR 1F75
ENCODING 8053
SWIDTH 360 0
DWIDTH 7 0
BBX 6 16 1 -1
BITMAP
08
08
08
08
10
00
00
CC
DC
74
64
64
C4
C4
84
0C
ENDCHAR
STARTCHAR 1F76
ENCODING 8054
SWIDTH 205 0
DWIDTH 4 0
BBX 4 15 0 0
BITMAP
20
20
20
20
10
00
00
30
20
20
40
40
40
E0
E0
ENDCHAR
STARTCHAR 1F77
ENCODING 8055
SWIDTH 205 0
DWIDTH 4 0
BBX 5 15 0 0
BITMAP
08
10
10
10
00
00
00
30
20
20
40
40
40
E0
E0
ENDCHAR
STARTCHAR 1F78
ENCODING 8056
SWIDTH 308 0
DWIDTH 6 0
BBX 5 15 1 0
BITMAP
20
30
10
10
10
00
00
10
78
68
C8
88
88
98
F0
ENDCHAR
STARTCHAR 1F79
ENCODING 8057
SWIDTH 308 0
DWIDTH 6 0
BBX 5 15 1 0
BITMAP
08
08
10
10
10
00
00
10
78
68
C8
88
88
98
F0
ENDCHAR
STARTCHAR 1F7A
ENCODING 8058
SWIDTH 360 0
DWIDTH 7 0
BBX 6 15 1 0
BITMAP
20
20
10
10
10
00
00
C4
C4
C4
84
8C
8C
D8
F0
ENDCHAR
STARTCHAR 1F7B
ENCODING 8059
SWIDTH 360 0
DWIDTH 7 0
BBX 6 15 1 0
BITMAP
08
08
10
10
10
00
00
C4
C4
C4
84
8C
8C
D8
F0
ENDCHAR
STARTCHAR 1F7C
ENCODING 8060
SWIDTH 565 0
DWIDTH 11 0
BBX 10 14 0 0
BITMAP
0200
0200
0200
0000
0000
0000
1840
3040
2240
6640
4640
8CC0
8980
7F00
ENDCHAR
STARTCHAR 1F7D
ENCODING 8061
SWIDTH 565 0
DWIDTH 11 0
BBX 10 15 0 0
BITMAP
0100
0100
0100
0100
0000
0000
0000
1840
3040
2240
6640
4640
8CC0
8980
7F00
ENDCHAR
STARTCHAR 1F80
ENCODING 8064
SWIDTH 565 0
DWIDTH 11 0
BBX 11 18 0 -5
BITMAP
0C00
0400
0000
0000
0000
1D80
3580
2300
6300
4600
4620
9E40
73C0
0000
1000
2000
2000
2000
ENDCHAR
STARTCHAR 1F81
ENCODING 8065
SWIDTH 565 0
DWIDTH 11 0
BBX 11 18 0 -5
BITMAP
0C00
0800
0000
0000
0000
1D80
3580
2300
6300
4600
4620
9E40
73C0
0000
1000
2000
2000
2000
ENDCHAR
STARTCHAR 1F82
ENCODING 8066
SWIDTH 565 0
DWIDTH 11 0
BBX 11 20 0 -5
BITMAP
0200
0200
0D00
0500
0900
0000
0000
1D80
3580
2300
6300
4600
4620
9E40
73C0
0000
1000
2000
2000
2000
ENDCHAR
STARTCHAR 1F83
ENCODING 8067
SWIDTH 565 0
DWIDTH 11 0
BBX 11 20 0 -5
BITMAP
0200
0200
0D00
0900
0100
0000
0000
1D80
3580
2300
6300
4600
4620
9E40
73C0
0000
1000
2000
2000
2000
ENDCHAR
STARTCHAR 1F84
ENCODING 8068
SWIDTH 565 0
DWIDTH 11 0
BBX 11 20 0 -5
BITMAP
0080
0180
0D00
0500
0900
0000
0000
1D80
3580
2300
6300
4600
4620
9E40
73C0
0000
1000
2000
2000
2000
ENDCHAR
STARTCHAR 1F85
ENCODING 8069
SWIDTH 565 0
DWIDTH 11 0
BBX 11 20 0 -5
BITMAP
0100
0100
0D00
0A00
0200
0000
0000
1D80
3580
2300
6300
4600
4620
9E40
73C0
0000
1000
2000
2000
2000
ENDCHAR
STARTCHAR 1F86
ENCODING 8070
SWIDTH 565 0
DWIDTH 11 0
BBX 11 21 0 -5
BITMAP
0C80
1700
0000
0600
0200
0400
0000
0000
1D80
3580
2300
6300
4600
4620
9E40
73C0
0000
1000
2000
2000
2000
ENDCHAR
STARTCHAR 1F87
ENCODING 8071
SWIDTH 565 0
DWIDTH 11 0
BBX 11 20 0 -5
BITMAP
1F00
0000
0400
0800
0400
0000
0000
1D80
3580
2300
6300
4600
4620
9E40
73C0
0000
1000
2000
2000
2000
ENDCHAR
STARTCHAR 1F88
ENCODING 8072
SWIDTH 822 0
DWIDTH 16 0
BBX 15 13 0 0
BITMAP
6200
2700
0700
0500
0980
0980
1080
1FC0
10C0
2040
2062
2062
F0FA
ENDCHAR
STARTCHAR 1F89
ENCODING 8073
SWIDTH 822 0
DWIDTH 16 0
BBX 15 13 0 0
BITMAP
6200
4700
2700
0500
0980
0980
1080
1FC0
10C0
2040
2062
2064
F0FA
ENDCHAR
STARTCHAR 1F8A
ENCODING 8074
SWIDTH 874 0
DWIDTH 17 0
BBX 15 15 1 0
BITMAP
2000
2000
A200
9700
9500
0500
0980
0980
0880
1FC0
10C0
2040
2062
2064
F0FA
ENDCHAR
STARTCHAR 1F8B
ENCODING 8075
SWIDTH 874 0
DWIDTH 17 0
BBX 15 15 1 0
BITMAP
2000
2000
A200
9700
9500
0500
0980
0980
0880
1FC0
10C0
2040
2062
2064
F0FA
ENDCHAR
STARTCHAR 1F8C
ENCODING 8076
SWIDTH 874 0
DWIDTH 17 0
BBX 15 15 1 0
BITMAP
1000
1000
9200
A700
A500
0500
0980
0980
0880
1FC0
10C0
2040
2062
2064
F0FA
ENDCHAR
STARTCHAR 1F8D
ENCODING 8077
SWIDTH 874 0
DWIDTH 17 0
BBX 16 15 0 0
BITMAP
0800
0800
4900
9380
5280
0280
04C0
04C0
0440
0FE0
0860
1020
1031
1032
787D
ENDCHAR
STARTCHAR 1F8E
ENCODING 8078
SWIDTH 874 0
DWIDTH 17 0
BBX 16 16 0 0
BITMAP
2400
D800
0000
3100
1300
0380
0580
0480
04C0
08C0
0FC0
1060
1061
1021
2032
787F
ENDCHAR
STARTCHAR 1F8F
ENCODING 8079
SWIDTH 874 0
DWIDTH 17 0
BBX 15 15 1 0
BITMAP
F000
0000
6200
4600
2700
0B00
0900
0980
1180
1F80
20C0
20C2
2042
4064
F0FE
ENDCHAR
STARTCHAR 1F90
ENCODING 8080
SWIDTH 360 0
DWIDTH 7 0
BBX 6 18 1 -5
BITMAP
10
10
10
00
00
CC
DC
74
64
64
C4
C4
84
0C
20
40
40
40
ENDCHAR
STARTCHAR 1F91
ENCODING 8081
SWIDTH 360 0
DWIDTH 7 0
BBX 6 18 1 -5
BITMAP
18
10
10
00
00
CC
DC
74
64
64
C4
C4
84
0C
20
40
40
40
ENDCHAR
STARTCHAR 1F92
ENCODING 8082
SWIDTH 360 0
DWIDTH 7 0
BBX 6 20 1 -5
BITMAP
08
08
34
14
24
00
00
CC
DC
74
64
64
C4
C4
84
0C
20
40
40
40
ENDCHAR
STARTCHAR 1F93
ENCODING 8083
SWIDTH 360 0
DWIDTH 7 0
BBX 6 20 1 -5
BITMAP
08
08
38
24
04
00
00
CC
DC
74
64
64
C4
C4
84
0C
20
40
40
40
ENDCHAR
STARTCHAR 1F94
ENCODING 8084
SWIDTH 360 0
DWIDTH 7 0
BBX 7 20 1 -5
BITMAP
02
02
34
14
04
00
00
CC
DC
74
64
64
C4
C4
84
0C
20
40
40
40
ENDCHAR
STARTCHAR 1F95
ENCODING 8085
SWIDTH 360 0
DWIDTH 7 0
BBX 7 20 1 -5
BITMAP
02
02
34
24
14
00
00
CC
DC
74
64
64
C4
C4
84
0C
20
40
40
40
ENDCHAR
STARTCHAR 1F96
ENCODING 8086
SWIDTH 360 0
DWIDTH 7 0
BBX 6 21 1 -5
BITMAP
10
0C
00
08
08
08
00
00
CC
DC
74
64
64
C4
C4
84
0C
20
40
40
40
ENDCHAR
STARTCHAR 1F97
ENCODING 8087
SWIDTH 360 0
DWIDTH 7 0
BBX 7 20 1 -5
BITMAP
3E
00
08
08
08
00
00
CC
DC
74
64
64
C4
C4
84
0C
20
40
40
40
ENDCHAR
STARTCHAR 1F98
ENCODING 8088
SWIDTH 1028 0
DWIDTH 20 0
BBX 19 13 1 0
BITMAP
FF1F00
4C0600
8C0600
0C0600
0C0600
0C0600
0FFE00
0C0600
0C0600
0C0620
0C0640
0C0640
1F1F60
ENDCHAR
STARTCHAR 1F99
ENCODING 8089
SWIDTH 1028 0
DWIDTH 20 0
BBX 19 13 1 0
BITMAP
DF1F00
8C0600
840600
040600
040600
040600
07FE00
040600
040600
040620
040640
0C0640
1F1F60
ENDCHAR
STARTCHAR 1F9A
ENCODING 8090
SWIDTH 1182 0
DWIDTH 23 0
BBX 21 15 1 0
BITMAP
200000
200000
D7C3E0
510180
910080
010080
010080
010080
01FF80
010080
010080
010088
010088
010190
07C3E8
ENDCHAR
STARTCHAR 1F9B
ENCODING 8091
SWIDTH 1182 0
DWIDTH 23 0
BBX 21 15 1 0
BITMAP
200000
200000
D7C3E0
930180
110180
010180
010180
010180
01FF80
010180
010180
010188
010188
010190
07C3E8
ENDCHAR
STARTCHAR 1F9C
ENCODING 8092
SWIDTH 1182 0
DWIDTH 23 0
BBX 21 15 1 0
BITMAP
080000
100000
D7C3E0
518180
810080
010080
010080
010080
01FF80
010080
010080
010080
010088
010090
07C3E8
ENDCHAR
STARTCHAR 1F9D
ENCODING 8093
SWIDTH 1182 0
DWIDTH 23 0
BBX 21 15 1 0
BITMAP
100000
100000
D7C3E0
930180
210180
010180
010180
010180
01FF80
010180
010180
010188
010188
010190
07C3E8
ENDCHAR
STARTCHAR 1F9E
ENCODING 8094
SWIDTH 1131 0
DWIDTH 22 0
BBX 22 16 0 0
BITMAP
640000
980000
000000
37C3E0
118080
218080
018080
018080
018080
01FF80
018080
018080
018084
018088
018088
07C3E8
ENDCHAR
STARTCHAR 1F9F
ENCODING 8095
SWIDTH 1131 0
DWIDTH 22 0
BBX 20 15 1 0
BITMAP
F00000
000000
6F87C0
430300
220100
020100
020100
020100
03FF00
020100
020100
020100
020110
030110
0F87D0
ENDCHAR
STARTCHAR 1FA0
ENCODING 8096
SWIDTH 565 0
DWIDTH 11 0
BBX 10 18 0 -5
BITMAP
0300
0100
0000
0000
0000
1840
3040
2240
6640
4640
8CC0
8980
7F00
0000
1000
1000
2000
1000
ENDCHAR
STARTCHAR 1FA1
ENCODING 8097
SWIDTH 565 0
DWIDTH 11 0
BBX 10 18 0 -5
BITMAP
0300
0200
0000
0000
0000
1840
3040
2240
6640
4640
8CC0
8980
7F00
0000
1000
1000
2000
1000
ENDCHAR
STARTCHAR 1FA2
ENCODING 8098
SWIDTH 565 0
DWIDTH 11 0
BBX 10 20 0 -5
BITMAP
0080
0080
0680
0280
0000
0040
0000
1840
3040
2240
6640
4640
8CC0
8980
7F00
0000
1000
1000
2000
1000
ENDCHAR
STARTCHAR 1FA3
ENCODING 8099
SWIDTH 565 0
DWIDTH 11 0
BBX 10 20 0 -5
BITMAP
0100
0100
0680
0480
0080
0000
0000
1840
3040
2240
6640
4640
8CC0
8980
7F00
0000
1000
1000
2000
1000
ENDCHAR
STARTCHAR 1FA4
ENCODING 8100
SWIDTH 565 0
DWIDTH 11 0
BBX 10 20 0 -5
BITMAP
0040
0040
0680
0280
0080
0000
0000
1840
3040
2240
6640
4640
8CC0
8980
7F00
0000
1000
1000
2000
1000
ENDCHAR
STARTCHAR 1FA5
ENCODING 8101
SWIDTH 565 0
DWIDTH 11 0
BBX 10 20 0 -5
BITMAP
0040
0040
0680
0480
0280
0000
0000
1840
3040
2240
6640
4640
8CC0
8980
7F00
0000
1000
1000
2000
1000
ENDCHAR
STARTCHAR 1FA6
ENCODING 8102
SWIDTH 565 0
DWIDTH 11 0
BBX 10 21 0 -5
BITMAP
0200
0180
0000
0300
0100
0000
0000
0000
1840
3040
2240
6640
4640
8CC0
8980
7F00
0000
1000
1000
2000
1000
ENDCHAR
STARTCHAR 1FA7
ENCODING 8103
SWIDTH 565 0
DWIDTH 11 0
BBX 10 20 0 -5
BITMAP
0780
0000
0300
0200
0100
0000
0000
1840
3040
2240
6640
4640
8CC0
8980
7F00
0000
1000
1000
2000
1000
ENDCHAR
STARTCHAR 1FA8
ENCODING 8104
SWIDTH 977 0
DWIDTH 19 0
BBX 17 13 1 0
BITMAP
C7C000
486000
903000
301800
201800
200800
600800
200800
301800
301080
983280
C82700
FC7E80
ENDCHAR
STARTCHAR 1FA9
ENCODING 8105
SWIDTH 977 0
DWIDTH 19 0
BBX 18 13 1 0
BITMAP
C3C000
8C3000
181800
101800
300C00
300C00
300C00
300C00
300800
101840
481280
442280
7E7E80
ENDCHAR
STARTCHAR 1FAA
ENCODING 8106
SWIDTH 1131 0
DWIDTH 22 0
BBX 21 14 1 0
BITMAP
100000
D07800
518600
030300
020300
060180
060180
060180
060180
060100
020308
090250
088450
0FCFD0
ENDCHAR
STARTCHAR 1FAB
ENCODING 8107
SWIDTH 1131 0
DWIDTH 22 0
BBX 20 15 1 0
BITMAP
200000
200000
D07800
918C00
120600
060300
040300
040100
040100
040100
060300
060210
130650
1904E0
1F8FD0
ENDCHAR
STARTCHAR 1FAC
ENCODING 8108
SWIDTH 1080 0
DWIDTH 21 0
BBX 20 15 1 0
BITMAP
080000
080000
D0F000
530C00
960600
040600
0C0300
0C0300
0C0300
0C0300
0C0200
040610
1204A0
1108A0
1F9FA0
ENDCHAR
STARTCHAR 1FAD
ENCODING 8109
SWIDTH 1080 0
DWIDTH 21 0
BBX 19 15 1 0
BITMAP
080000
100000
D0F000
930C00
060600
0C0600
0C0300
0C0300
0C0300
0C0300
0C0200
040600
1604A0
1308A0
1F9FA0
ENDCHAR
STARTCHAR 1FAE
ENCODING 8110
SWIDTH 1028 0
DWIDTH 20 0
BBX 19 16 0 0
BITMAP
640000
980000
000000
30F000
131800
240C00
0C0600
080600
080300
080300
080200
0C0600
040420
060CA0
1209C0
1F1FA0
ENDCHAR
STARTCHAR 1FAF
ENCODING 8111
SWIDTH 1028 0
DWIDTH 20 0
BBX 19 15 1 0
BITMAP
F00000
000000
61E000
421800
240C00
080600
080600
180600
180600
180600
080600
0C0420
240840
221140
3F3F60
ENDCHAR
STARTCHAR 1FB0
ENCODING 8112
SWIDTH 565 0
DWIDTH 11 0
BBX 11 12 0 0
BITMAP
1100
0F00
0400
0000
1D80
3580
2300
6300
4600
4620
9E40
73C0
ENDCHAR
STARTCHAR 1FB1
ENCODING 8113
SWIDTH 565 0
DWIDTH 11 0
BBX 11 11 0 0
BITMAP
1F00
0000
0000
1D80
3580
2300
6300
4600
4620
9E40
73C0
ENDCHAR
STARTCHAR 1FB2
ENCODING 8114
SWIDTH 565 0
DWIDTH 11 0
BBX 11 20 0 -5
BITMAP
0800
0800
0800
0800
0400
0000
0000
1D80
3580
2300
6300
4600
4620
9E40
73C0
0000
0800
1000
1000
1800
ENDCHAR
STARTCHAR 1FB3
ENCODING 8115
SWIDTH 565 0
DWIDTH 11 0
BBX 11 13 0 -5
BITMAP
1D80
3580
2300
6300
4600
4620
9E40
73C0
0000
0800
1000
1000
1800
ENDCHAR
STARTCHAR 1FB4
ENCODING 8116
SWIDTH 565 0
DWIDTH 11 0
BBX 11 20 0 -5
BITMAP
0200
0400
0400
0400
0000
0000
0000
1D80
3580
2300
6300
4600
4620
9E40
73C0
0000
0800
1000
1000
1800
ENDCHAR
STARTCHAR 1FB6
ENCODING 8118
SWIDTH 565 0
DWIDTH 11 0
BBX 11 11 0 0
BITMAP
0F80
0000
0000
1D80
3580
2300
6300
4600
4620
9E40
73C0
ENDCHAR
STARTCHAR 1FB7
ENCODING 8119
SWIDTH 565 0
DWIDTH 11 0
BBX 11 16 0 -5
BITMAP
0F80
0000
0000
1D80
3580
2300
6300
4600
4620
9E40
73C0
0000
0800
1000
1000
1800
ENDCHAR
STARTCHAR 1FB8
ENCODING 8120
SWIDTH 617 0
DWIDTH 12 0
BBX 13 17 0 0
BITMAP
0880
0880
0700
0000
0200
0700
0700
0500
0980
0980
1080
1FC0
10C0
2040
2060
2060
F0F8
ENDCHAR
STARTCHAR 1FB9
ENCODING 8121
SWIDTH 617 0
DWIDTH 12 0
BBX 13 16 0 0
BITMAP
0F80
0000
0000
0200
0700
0700
0500
0980
0980
1080
1FC0
10C0
2040
2060
2060
F0F8
ENDCHAR
STARTCHAR 1FBA
ENCODING 8122
SWIDTH 617 0
DWIDTH 12 0
BBX 13 15 0 0
BITMAP
4000
4000
2200
2700
2700
0500
0980
0980
1080
1FC0
10C0
2040
2060
2060
F0F8
ENDCHAR
STARTCHAR 1FBB
ENCODING 8123
SWIDTH 617 0
DWIDTH 12 0
BBX 13 14 0 0
BITMAP
2000
2200
2700
0700
0500
0980
0980
1080
1FC0
10C0
2040
2060
2060
F0F8
ENDCHAR
STARTCHAR 1FBC
ENCODING 8124
SWIDTH 771 0
DWIDTH 15 0
BBX 15 13 0 0
BITMAP
0200
0700
0700
0500
0980
0980
1080
1FC0
10C0
2042
2062
2064
F0FE
ENDCHAR
STARTCHAR 1FBE
ENCODING 8126
SWIDTH 205 0
DWIDTH 4 0
BBX 2 4 1 0
BITMAP
40
40
80
40
ENDCHAR
STARTCHAR 1FBF
ENCODING 8127
SWIDTH 205 0
DWIDTH 4 0
BBX 1 3 2 10
BITMAP
80
80
80
ENDCHAR
STARTCHAR 1FC0
ENCODING 8128
SWIDTH 257 0
DWIDTH 5 0
BBX 5 1 0 10
BITMAP
F8
ENDCHAR
STARTCHAR 1FC1
ENCODING 8129
SWIDTH 360 0
DWIDTH 7 0
BBX 6 5 1 10
BITMAP
64
B8
00
C8
CC
ENDCHAR
STARTCHAR 1FC2
ENCODING 8130
SWIDTH 360 0
DWIDTH 7 0
BBX 6 20 1 -5
BITMAP
20
30
10
10
10
00
00
CC
DC
74
64
64
C4
C4
84
0C
20
20
40
60
ENDCHAR
STARTCHAR 1FC3
ENCODING 8131
SWIDTH 360 0
DWIDTH 7 0
BBX 6 13 1 -5
BITMAP
CC
DC
74
64
64
C4
C4
84
0C
20
20
40
60
ENDCHAR
STARTCHAR 1FC4
ENCODING 8132
SWIDTH 360 0
DWIDTH 7 0
BBX 6 20 1 -5
BITMAP
08
08
08
10
10
00
00
CC
DC
74
64
64
C4
C4
84
0C
20
20
40
60
ENDCHAR
STARTCHAR 1FC6
ENCODING 8134
SWIDTH 360 0
DWIDTH 7 0
BBX 6 12 1 -1
BITMAP
7C
00
00
CC
DC
74
64
64
C4
C4
84
0C
ENDCHAR
STARTCHAR 1FC7
ENCODING 8135
SWIDTH 360 0
DWIDTH 7 0
BBX 6 16 1 -5
BITMAP
7C
00
00
CC
DC
74
64
64
C4
C4
84
0C
20
20
40
60
ENDCHAR
STARTCHAR 1FC8
ENCODING 8136
SWIDTH 720 0
DWIDTH 14 0
BBX 13 15 1 0
BITMAP
8000
8000
9FF0
4C10
4410
0400
0400
0440
0440
07C0
0440
0400
0408
0408
1FF8
ENDCHAR
STARTCHAR 1FC9
ENCODING 8137
SWIDTH 720 0
DWIDTH 14 0
BBX 13 15 1 0
BITMAP
4000
4000
5FF0
8418
8408
0408
0400
0400
0440
07C0
0400
0400
0408
0608
1FF8
ENDCHAR
STARTCHAR 1FCA
ENCODING 8138
SWIDTH 925 0
DWIDTH 18 0
BBX 17 15 1 0
BITMAP
800000
800000
9F0F80
4C0600
440600
040600
040600
040600
07FE00
040600
040600
040600
040600
040600
1F0F80
ENDCHAR
STARTCHAR 1FCB
ENCODING 8139
SWIDTH 874 0
DWIDTH 17 0
BBX 16 15 1 0
BITMAP
4000
4000
9F1F
8C06
8C06
0C06
0C06
0C06
0FFE
0C06
0C06
0C06
0C06
0C06
1F1F
ENDCHAR
STARTCHAR 1FCC
ENCODING 8140
SWIDTH 874 0
DWIDTH 17 0
BBX 16 13 1 0
BITMAP
F8F8
6030
2030
2030
2030
2030
3FF0
2030
2030
2031
2032
6032
F8FA
ENDCHAR
STARTCHAR 1FCD
ENCODING 8141
SWIDTH 308 0
DWIDTH 6 0
BBX 4 5 2 10
BITMAP
20
20
A0
90
90
ENDCHAR
STARTCHAR 1FCE
ENCODING 8142
SWIDTH 360 0
DWIDTH 7 0
BBX 4 5 2 10
BITMAP
10
10
90
A0
A0
ENDCHAR
STARTCHAR 1FCF
ENCODING 8143
SWIDTH 205 0
DWIDTH 4 0
BBX 5 6 0 10
BITMAP
60
B8
00
20
20
20
ENDCHAR
STARTCHAR 1FD0
ENCODING 8144
SWIDTH 205 0
DWIDTH 4 0
BBX 6 12 0 0
BITMAP
04
78
10
00
30
20
20
40
40
40
E0
E0
ENDCHAR
STARTCHAR 1FD1
ENCODING 8145
SWIDTH 205 0
DWIDTH 4 0
BBX 6 11 0 0
BITMAP
7C
00
00
30
20
20
40
40
40
E0
E0
ENDCHAR
STARTCHAR 1FD2
ENCODING 8146
SWIDTH 205 0
DWIDTH 4 0
BBX 6 15 0 0
BITMAP
20
20
20
4C
CC
00
00
30
20
20
40
40
40
E0
E0
ENDCHAR
STARTCHAR 1FD3
ENCODING 8147
SWIDTH 205 0
DWIDTH 4 0
BBX 6 15 0 0
BITMAP
08
08
10
5C
6C
00
00
30
20
20
40
40
40
E0
E0
ENDCHAR
STARTCHAR 1FD6
ENCODING 8150
SWIDTH 205 0
DWIDTH 4 0
BBX 6 11 0 0
BITMAP
7C
00
00
30
20
20
40
40
40
E0
E0
ENDCHAR
STARTCHAR 1FD7
ENCODING 8151
SWIDTH 205 0
DWIDTH 4 0
BBX 6 15 0 0
BITMAP
20
18
00
4C
CC
00
00
30
20
20
40
40
40
E0
E0
ENDCHAR
STARTCHAR 1FD8
ENCODING 8152
SWIDTH 308 0
DWIDTH 6 0
BBX 5 17 1 0
BITMAP
08
88
F0
00
F8
60
20
20
20
20
20
20
20
20
20
60
F8
ENDCHAR
STARTCHAR 1FD9
ENCODING 8153
SWIDTH 308 0
DWIDTH 6 0
BBX 6 16 0 0
BITMAP
FC
00
00
7C
30
10
10
10
10
10
10
10
10
10
30
7C
ENDCHAR
STARTCHAR 1FDA
ENCODING 8154
SWIDTH 411 0
DWIDTH 8 0
BBX 7 14 1 0
BITMAP
80
BE
8C
0C
0C
0C
0C
0C
0C
0C
0C
0C
0C
3E
ENDCHAR
STARTCHAR 1FDB
ENCODING 8155
SWIDTH 411 0
DWIDTH 8 0
BBX 7 15 1 0
BITMAP
40
80
BE
8C
0C
0C
0C
0C
0C
0C
0C
0C
0C
0C
3E
ENDCHAR
STARTCHAR 1FDD
ENCODING 8157
SWIDTH 360 0
DWIDTH 7 0
BBX 4 5 2 10
BITMAP
20
20
E0
90
90
ENDCHAR
STARTCHAR 1FDE
ENCODING 8158
SWIDTH 205 0
DWIDTH 4 0
BBX 4 5 2 10
BITMAP
10
10
D0
A0
A0
ENDCHAR
STARTCHAR 1FDF
ENCODING 8159
SWIDTH 205 0
DWIDTH 4 0
BBX 5 5 0 10
BITMAP
F8
00
30
20
20
ENDCHAR
STARTCHAR 1FE0
ENCODING 8160
SWIDTH 360 0
DWIDTH 7 0
BBX 6 12 1 0
BITMAP
44
7C
10
00
C4
C4
C4
84
8C
8C
D8
F0
ENDCHAR
STARTCHAR 1FE1
ENCODING 8161
SWIDTH 360 0
DWIDTH 7 0
BBX 6 11 1 0
BITMAP
7C
00
00
C4
C4
C4
84
8C
8C
D8
F0
ENDCHAR
STARTCHAR 1FE2
ENCODING 8162
SWIDTH 360 0
DWIDTH 7 0
BBX 6 15 1 0
BITMAP
20
20
20
4C
CC
00
00
C4
C4
C4
84
8C
8C
D8
F0
ENDCHAR
STARTCHAR 1FE3
ENCODING 8163
SWIDTH 360 0
DWIDTH 7 0
BBX 6 15 1 0
BITMAP
08
08
10
5C
6C
00
00
C4
C4
C4
84
8C
8C
D8
F0
ENDCHAR
STARTCHAR 1FE4
ENCODING 8164
SWIDTH 360 0
DWIDTH 7 0
BBX 7 19 0 -6
BITMAP
0C
04
08
00
00
1C
32
62
44
5C
F8
C0
80
80
40
38
08
38
70
ENDCHAR
STARTCHAR 1FE5
ENCODING 8165
SWIDTH 360 0
DWIDTH 7 0
BBX 7 19 0 -6
BITMAP
0C
08
00
00
00
1C
32
62
44
5C
F8
C0
80
80
40
38
08
38
70
ENDCHAR
STARTCHAR 1FE6
ENCODING 8166
SWIDTH 360 0
DWIDTH 7 0
BBX 6 11 1 0
BITMAP
7C
00
00
C4
C4
C4
84
8C
8C
D8
F0
ENDCHAR
ENDFONT
